<svg width="74" height="38" viewBox="0 0 74 38" fill="none" xmlns="http://www.w3.org/2000/svg">
<rect x="0.5" y="0.5" width="73" height="37" rx="18.5" fill="black" stroke="white"/>
<circle cx="55" cy="19" r="15" fill="white"/>
<path d="M61.6492 20.4274H61.6548C62.105 20.4274 62.5462 20.3856 62.9733 20.3056L62.9293 20.3127C62.1281 23.2324 59.5274 25.3404 56.4409 25.3404H56.4004H56.4025C52.6672 25.3361 49.6401 22.2691 49.6366 18.4845V18.4838C49.6454 16.9948 50.1284 15.5484 51.0138 14.36C51.8992 13.1715 53.1396 12.3044 54.5506 11.8878L54.5988 11.8758C54.5224 12.3009 54.4845 12.7321 54.4855 13.1642V13.1692C54.489 17.1769 57.6944 20.4246 61.6492 20.4281H61.6499L61.6492 20.4274ZM56.3934 10.333C56.3101 10.2192 56.1992 10.129 56.0715 10.0713C55.9438 10.0136 55.8035 9.99031 55.6642 10.0037H55.6677C51.3648 10.4223 48.0238 14.0546 48 18.4831V18.4852C48.0056 23.1849 51.7646 26.9936 56.4025 27H56.4451C60.8096 27 64.3918 23.6099 64.7679 19.287L64.77 19.2551C64.782 19.1206 64.7614 18.9851 64.7098 18.8605C64.6583 18.7359 64.5774 18.626 64.4743 18.5404L64.4729 18.539C64.3688 18.4522 64.245 18.393 64.1128 18.3667C63.9805 18.3404 63.8438 18.3477 63.7151 18.3881L63.7206 18.3867L63.3543 18.4972C62.8049 18.6797 62.2302 18.7718 61.652 18.7699H61.6471C60.1823 18.7682 58.778 18.1779 57.7422 17.1285C56.7064 16.079 56.1238 14.6562 56.1221 13.172V13.1593C56.1221 12.4297 56.2606 11.7327 56.5122 11.0945L56.4989 11.132C56.5504 11 56.5674 10.8567 56.5484 10.716C56.5295 10.5754 56.4751 10.442 56.3906 10.3288L56.392 10.3309L56.3934 10.333Z" fill="black"/>
<path d="M18.8701 23.5185C21.2642 23.5185 23.205 21.5514 23.205 19.125C23.205 16.6985 21.2642 14.7314 18.8701 14.7314C16.476 14.7314 14.5352 16.6985 14.5352 19.125C14.5352 21.5514 16.476 23.5185 18.8701 23.5185Z" stroke="white" stroke-width="2.3" stroke-linecap="round" stroke-linejoin="round"/>
<path d="M18.87 10V11.3519M11.8674 26.2222L12.5344 25.5463L11.8674 26.2222ZM25.2057 25.5463L25.8726 26.2222L25.2057 25.5463ZM25.2057 12.7037L25.8726 12.0278L25.2057 12.7037ZM12.5344 12.7037L11.8674 12.0278L12.5344 12.7037ZM11.2005 19.125H9.8667H11.2005ZM27.8734 19.125H26.5395H27.8734ZM18.87 26.8981V28.25V26.8981Z" stroke="white" stroke-width="2.3" stroke-linecap="round" stroke-linejoin="round"/>
</svg>
