<svg width="60" height="60" viewBox="0 0 60 60" fill="none" xmlns="http://www.w3.org/2000/svg">
<rect width="60" height="60" fill="#D0D0D0"/>
<rect width="60" height="60" fill="#D0D0D0"/>
<path d="M32.69 35.29C32.7827 35.1975 32.8563 35.0876 32.9064 34.9666C32.9566 34.8456 32.9824 34.716 32.9824 34.585C32.9824 34.454 32.9566 34.3243 32.9064 34.2034C32.8563 34.0824 32.7827 33.9725 32.69 33.88L28.81 30L32.69 26.12C32.877 25.933 32.982 25.6794 32.982 25.415C32.982 25.1506 32.877 24.897 32.69 24.71C32.503 24.523 32.2494 24.418 31.985 24.418C31.7206 24.418 31.467 24.523 31.28 24.71L26.69 29.3C26.5973 29.3925 26.5237 29.5024 26.4736 29.6234C26.4234 29.7443 26.3976 29.874 26.3976 30.005C26.3976 30.136 26.4234 30.2656 26.4736 30.3866C26.5237 30.5076 26.5973 30.6175 26.69 30.71L31.28 35.3C31.66 35.68 32.3 35.68 32.69 35.29Z" fill="black"/>
</svg>
