<svg width="74" height="38" viewBox="0 0 74 38" fill="none" xmlns="http://www.w3.org/2000/svg">
<rect x="0.5" y="0.5" width="73" height="37" rx="18.5" stroke="white"/>
<circle cx="19" cy="19" r="15" fill="white"/>
<path d="M61.8337 20.4274H61.8393C62.2956 20.4274 62.7427 20.3856 63.1756 20.3056L63.131 20.3127C62.319 23.2324 59.6832 25.3404 56.555 25.3404H56.5139H56.516C52.7303 25.3361 49.6623 22.2691 49.6587 18.4845V18.4838C49.6676 16.9948 50.1571 15.5484 51.0545 14.36C51.9519 13.1715 53.2091 12.3044 54.6391 11.8878L54.688 11.8758C54.6105 12.3009 54.5721 12.7321 54.5732 13.1642V13.1692C54.5767 17.1769 57.8254 20.4246 61.8337 20.4281H61.8344L61.8337 20.4274ZM56.5068 10.333C56.4224 10.2192 56.31 10.129 56.1806 10.0713C56.0511 10.0136 55.9089 9.99031 55.7678 10.0037H55.7713C51.4102 10.4223 48.0241 14.0546 48 18.4831V18.4852C48.0057 23.1849 51.8155 26.9936 56.516 27H56.5592C60.9827 27 64.6133 23.6099 64.9945 19.287L64.9966 19.2551C65.0088 19.1206 64.9879 18.9851 64.9356 18.8605C64.8834 18.7359 64.8014 18.626 64.6969 18.5404L64.6955 18.539C64.59 18.4522 64.4646 18.393 64.3305 18.3667C64.1964 18.3404 64.0579 18.3477 63.9274 18.3881L63.9331 18.3867L63.5618 18.4972C63.005 18.6797 62.4225 18.7718 61.8365 18.7699H61.8315C60.3469 18.7682 58.9236 18.1779 57.8739 17.1285C56.8241 16.079 56.2336 14.6562 56.2319 13.172V13.1593C56.2319 12.4297 56.3722 11.7327 56.6273 11.0945L56.6138 11.132C56.6659 11 56.6832 10.8567 56.6639 10.716C56.6447 10.5754 56.5896 10.442 56.504 10.3288L56.5054 10.3309L56.5068 10.333Z" fill="white"/>
<path d="M19.125 23.5185C21.5514 23.5185 23.5185 21.5514 23.5185 19.125C23.5185 16.6985 21.5514 14.7314 19.125 14.7314C16.6985 14.7314 14.7314 16.6985 14.7314 19.125C14.7314 21.5514 16.6985 23.5185 19.125 23.5185Z" stroke="#919191" stroke-width="2.3" stroke-linecap="round" stroke-linejoin="round"/>
<path d="M19.125 10V11.3519M12.0278 26.2222L12.7037 25.5463L12.0278 26.2222ZM25.5463 25.5463L26.2222 26.2222L25.5463 25.5463ZM25.5463 12.7037L26.2222 12.0278L25.5463 12.7037ZM12.7037 12.7037L12.0278 12.0278L12.7037 12.7037ZM11.3519 19.125H10H11.3519ZM28.25 19.125H26.8981H28.25ZM19.125 26.8981V28.25V26.8981Z" stroke="#919191" stroke-width="2.3" stroke-linecap="round" stroke-linejoin="round"/>
</svg>
