<svg width="60" height="60" viewBox="0 0 60 60" fill="none" xmlns="http://www.w3.org/2000/svg">
<rect width="60" height="60" fill="#D0D0D0"/>
<rect width="60" height="60" fill="#D0D0D0"/>
<path d="M27.31 24.71C27.2173 24.8025 27.1437 24.9124 27.0936 25.0334C27.0434 25.1544 27.0176 25.284 27.0176 25.415C27.0176 25.546 27.0434 25.6757 27.0936 25.7966C27.1437 25.9176 27.2173 26.0275 27.31 26.12L31.19 30L27.31 33.88C27.123 34.067 27.018 34.3206 27.018 34.585C27.018 34.8494 27.123 35.103 27.31 35.29C27.497 35.477 27.7506 35.582 28.015 35.582C28.2794 35.582 28.533 35.477 28.72 35.29L33.31 30.7C33.4027 30.6075 33.4763 30.4976 33.5264 30.3766C33.5766 30.2557 33.6024 30.126 33.6024 29.995C33.6024 29.864 33.5766 29.7344 33.5264 29.6134C33.4763 29.4924 33.4027 29.3825 33.31 29.29L28.72 24.7C28.34 24.32 27.7 24.32 27.31 24.71Z" fill="black"/>
</svg>
