<?xml version="1.0" encoding="UTF-8"?>
<!DOCTYPE svg PUBLIC "-//W3C//DTD SVG 1.1//EN" "http://www.w3.org/Graphics/SVG/1.1/DTD/svg11.dtd">
<!-- Creator: CorelDRAW Standard 2020 -->
<svg xmlns="http://www.w3.org/2000/svg" xml:space="preserve" width="2.63333in" height="1.61667in" version="1.1" style="shape-rendering:geometricPrecision; text-rendering:geometricPrecision; image-rendering:optimizeQuality; fill-rule:evenodd; clip-rule:evenodd"
viewBox="0 0 53.17 32.64"
 xmlns:xlink="http://www.w3.org/1999/xlink"
 xmlns:xodm="http://www.corel.com/coreldraw/odm/2003">
 <defs>
  <style type="text/css">
   <![CDATA[
    .fil1 {fill:none}
    .fil0 {fill:#FF000E;fill-rule:nonzero}
   ]]>
  </style>
 </defs>
 <g id="Layer_x0020_1">
  <metadata id="CorelCorpID_0Corel-Layer"/>
  <g id="_-590672224">
   <path class="fil0" d="M23.03 18.73c-0.71,-1.5 -1.73,-2.14 -2.3,-2.36 1.2,-0.53 1.83,-1.25 2.3,-2.69l0 5.05zm14.34 -11.96l-2.9 11.8 -2.92 -11.8 -8.53 0 0 4.37c-1.03,-3.82 -4.64,-4.77 -8,-4.83 -4.08,-0.06 -8.36,1.71 -8.51,7.11l5.64 0c0,-1.63 1.26,-2.56 2.66,-2.54 1.73,-0.01 2.52,0.73 2.57,1.87 -0.06,1 -0.66,1.7 -2.56,1.7l-1.9 0 0 3.91 1.73 0c0.98,0 2.34,0.53 2.39,1.93 0.07,1.66 -1.09,2.39 -2.51,2.41 -2.54,-0.1 -2.95,-2.05 -2.95,-3.72l-5.86 0c0.03,1.13 -0.25,8.49 8.94,8.44 4.4,0.04 7.47,-1.81 8.37,-4.36l0 3.91 5.78 0 0 -12.73 3.12 12.73 5.06 0 3.13 -12.72 0 12.74 5.77 0 0 -20.21 -8.53 0z"/>
   <rect class="fil1" x="-0" y="-0" width="53.17" height="32.64"/>
  </g>
 </g>
</svg>
