<?xml version="1.0" encoding="UTF-8"?>
<!DOCTYPE svg PUBLIC "-//W3C//DTD SVG 1.1//EN" "http://www.w3.org/Graphics/SVG/1.1/DTD/svg11.dtd">
<!-- Creator: CorelDRAW Standard 2020 -->
<svg xmlns="http://www.w3.org/2000/svg" xml:space="preserve" width="1.98972in" height="1.04537in" version="1.1" style="shape-rendering:geometricPrecision; text-rendering:geometricPrecision; image-rendering:optimizeQuality; fill-rule:evenodd; clip-rule:evenodd"
viewBox="0 0 30.22 15.88"
 xmlns:xlink="http://www.w3.org/1999/xlink"
 xmlns:xodm="http://www.corel.com/coreldraw/odm/2003">
 <defs>
  <style type="text/css">
   <![CDATA[
    .fil0 {fill:#FF000E;fill-rule:nonzero}
   ]]>
  </style>
 </defs>
 <g id="Layer_x0020_1">
  <metadata id="CorelCorpID_0Corel-Layer"/>
  <path class="fil0" d="M13.02 9.35c-0.53,-1.13 -1.3,-1.61 -1.73,-1.77 0.91,-0.4 1.37,-0.94 1.73,-2.02l0 3.8zm10.79 -9l-2.18 8.88 -2.19 -8.88 -6.41 0 0 3.28c-0.78,-2.87 -3.49,-3.59 -6.02,-3.63 -3.07,-0.04 -6.29,1.29 -6.41,5.35l4.24 0c0,-1.23 0.94,-1.92 2,-1.91 1.3,-0.01 1.9,0.55 1.93,1.41 -0.05,0.75 -0.49,1.28 -1.92,1.28l-1.43 0 0 2.94 1.3 0c0.74,0 1.76,0.4 1.8,1.45 0.05,1.25 -0.82,1.8 -1.89,1.81 -1.91,-0.07 -2.22,-1.54 -2.22,-2.8l-4.41 0c0.02,0.85 -0.18,6.39 6.72,6.35 3.31,0.03 5.62,-1.36 6.3,-3.28l0 2.94 4.35 0 0 -9.57 2.35 9.57 3.8 0 2.36 -9.57 0 9.58 4.34 0 0 -15.2 -6.42 0z"/>
 </g>
</svg>
