<?xml version="1.0" encoding="UTF-8"?>
<!DOCTYPE svg PUBLIC "-//W3C//DTD SVG 1.1//EN" "http://www.w3.org/Graphics/SVG/1.1/DTD/svg11.dtd">
<!-- Creator: CorelDRAW Standard 2020 -->
<svg xmlns="http://www.w3.org/2000/svg" xml:space="preserve" width="3.65593in" height="0.997606in" version="1.1" style="shape-rendering:geometricPrecision; text-rendering:geometricPrecision; image-rendering:optimizeQuality; fill-rule:evenodd; clip-rule:evenodd"
viewBox="0 0 46.17 12.6"
 xmlns:xlink="http://www.w3.org/1999/xlink"
 xmlns:xodm="http://www.corel.com/coreldraw/odm/2003">
 <defs>
  <style type="text/css">
   <![CDATA[
    .fil1 {fill:#852734}
    .fil0 {fill:#002969}
   ]]>
  </style>
 </defs>
 <g id="Layer_x0020_1">
  <metadata id="CorelCorpID_0Corel-Layer"/>
  <path class="fil0" d="M7.59 7.42l0.98 0 0.95 -1.77 2.45 0 0.35 1.77 0.94 0 -1.25 -6.17 -1.03 0 -3.38 6.17zm4.23 -2.63l-1.83 0 1.37 -2.59 0.46 2.59z"/>
  <path class="fil0" d="M17.61 4.91c0,1.05 -0.75,1.82 -1.66,1.82 -0.85,0 -1.43,-0.58 -1.43,-1.46 0,-1.04 0.75,-1.84 1.7,-1.84 0.82,0 1.39,0.58 1.39,1.47zm1.52 -3.66l-0.84 0 -0.43 2.19c-0.36,-0.54 -0.92,-0.82 -1.67,-0.82 -0.67,0 -1.3,0.26 -1.76,0.74 -0.49,0.51 -0.75,1.19 -0.75,1.93 0,1.27 0.89,2.21 2.12,2.21 0.58,0 1.05,-0.18 1.4,-0.56l-0.1 0.47 0.84 0 1.21 -6.17z"/>
  <path class="fil0" d="M27.76 4.91c0,1.05 -0.75,1.82 -1.66,1.82 -0.85,0 -1.43,-0.58 -1.43,-1.46 0,-1.04 0.75,-1.84 1.7,-1.84 0.82,0 1.39,0.58 1.39,1.47zm1.22 -2.15l-0.85 0 -0.13 0.69c-0.36,-0.54 -0.92,-0.82 -1.67,-0.82 -0.67,0 -1.3,0.26 -1.76,0.74 -0.49,0.51 -0.75,1.19 -0.75,1.93 0,1.27 0.89,2.21 2.12,2.21 0.58,0 1.05,-0.18 1.4,-0.56l-0.1 0.47 0.84 0 0.91 -4.66z"/>
  <path class="fil0" d="M30.63 2.76l-0.81 0 -0.94 4.66 0.84 0 0.46 -2.34c0.2,-1.05 0.76,-1.6 1.57,-1.6 0.57,0 0.9,0.32 0.9,0.87 0,0.14 -0.02,0.34 -0.07,0.61l-0.48 2.46 0.83 0 0.41 -2.12c0.08,-0.41 0.11,-0.79 0.11,-1.1 0,-0.9 -0.65,-1.53 -1.61,-1.53 -0.43,0 -0.88,0.17 -1.33,0.53l0.1 -0.44z"/>
  <path class="fil0" d="M38.66 5.75l-0.92 0c-0.34,0.66 -0.84,0.99 -1.5,0.99 -0.82,0 -1.39,-0.59 -1.39,-1.49 0,-1.06 0.73,-1.84 1.68,-1.84 0.67,0 1.14,0.36 1.35,1.04l0.88 0c-0.23,-1.14 -1.07,-1.84 -2.2,-1.84 -0.66,0 -1.24,0.22 -1.69,0.62 -0.58,0.52 -0.9,1.26 -0.9,2.06 0,1.32 0.91,2.27 2.23,2.27 1.21,0 2.1,-0.65 2.46,-1.8z"/>
  <path class="fil0" d="M39.83 2.76l-0.91 4.66 0.88 0 0.91 -4.66 -0.88 0zm0.97 -0.52l0.19 -0.99 -0.88 0 -0.19 0.99 0.88 0z"/>
  <path class="fil0" d="M40.72 5.88l0 0.09c0,1 0.56,1.55 1.6,1.55 0.89,0 1.55,-0.65 1.55,-1.52 0,-0.75 -0.45,-1.02 -1.14,-1.42 -0.39,-0.23 -0.64,-0.36 -0.64,-0.73 0,-0.29 0.23,-0.49 0.55,-0.49 0.38,0 0.56,0.21 0.56,0.63l0 0.03 0.83 0c-0.01,-0.89 -0.5,-1.4 -1.36,-1.4 -0.88,0 -1.47,0.55 -1.47,1.34 0,0.5 0.24,0.89 0.75,1.19 0.62,0.36 1.01,0.5 1.01,0.95 0,0.39 -0.27,0.63 -0.71,0.63 -0.43,0 -0.68,-0.29 -0.7,-0.85l-0.83 0z"/>
  <polygon class="fil1" points="19.38,1.73 18.31,7.43 28.22,0 19.99,3.42 "/>
  <polygon class="fil0" points="20.5,12.55 20.48,10.59 21.21,12.55 21.44,12.55 22.18,10.59 22.16,12.55 22.47,12.55 22.47,10.29 21.99,10.29 21.33,12.04 20.67,10.29 20.18,10.29 20.18,12.55 "/>
  <path class="fil0" d="M26.13 11.53l-1.09 0c0.07,-0.27 0.29,-0.44 0.55,-0.44 0.26,0 0.46,0.16 0.54,0.44zm-1.1 0.28l1.44 0 0 -0.05c0,-0.24 -0.04,-0.42 -0.15,-0.57 -0.17,-0.26 -0.44,-0.4 -0.74,-0.4 -0.25,0 -0.47,0.09 -0.64,0.28 -0.16,0.17 -0.24,0.38 -0.24,0.62 0,0.23 0.09,0.47 0.26,0.63 0.17,0.18 0.38,0.27 0.63,0.27 0.37,0 0.67,-0.2 0.83,-0.59l-0.35 0c-0.1,0.18 -0.27,0.28 -0.48,0.28 -0.28,0 -0.51,-0.19 -0.56,-0.48z"/>
  <path class="fil0" d="M28.9 11.69c0,-0.33 0.27,-0.59 0.59,-0.59 0.31,0 0.58,0.26 0.58,0.61 0,0.32 -0.27,0.59 -0.57,0.59 -0.32,0 -0.59,-0.26 -0.59,-0.61zm1.15 0.87l0.31 0 0 -2.27 -0.31 0 0 0.76c-0.17,-0.17 -0.36,-0.25 -0.6,-0.25 -0.26,0 -0.46,0.08 -0.63,0.26 -0.16,0.17 -0.25,0.39 -0.25,0.63 0,0.51 0.38,0.9 0.9,0.9 0.22,0 0.41,-0.08 0.57,-0.25l0 0.21z"/>
  <path class="fil0" d="M32.97 10.29l-0.31 0 0 0.35 0.31 0 0 -0.35zm-0.31 2.27l0.31 0 0 -1.71 -0.31 0 0 1.71z"/>
  <path class="fil0" d="M36.91 11.97l-0.34 0c-0.1,0.21 -0.28,0.32 -0.5,0.32 -0.32,0 -0.56,-0.25 -0.56,-0.6 0,-0.34 0.25,-0.6 0.55,-0.6 0.24,0 0.41,0.1 0.51,0.31l0.34 0c-0.13,-0.4 -0.44,-0.62 -0.83,-0.62 -0.25,0 -0.48,0.1 -0.65,0.29 -0.16,0.17 -0.24,0.38 -0.24,0.62 0,0.23 0.09,0.47 0.26,0.63 0.17,0.18 0.38,0.27 0.63,0.27 0.4,0 0.69,-0.22 0.84,-0.63z"/>
  <path class="fil0" d="M39.38 11.69c0,-0.33 0.27,-0.59 0.59,-0.59 0.31,0 0.58,0.26 0.58,0.61 0,0.32 -0.27,0.59 -0.57,0.59 -0.32,0 -0.59,-0.26 -0.59,-0.61zm1.15 0.87l0.31 0 0 -1.71 -0.31 0 0 0.21c-0.16,-0.17 -0.36,-0.25 -0.59,-0.25 -0.26,0 -0.46,0.08 -0.63,0.26 -0.16,0.17 -0.25,0.39 -0.25,0.63 0,0.51 0.38,0.9 0.9,0.9 0.22,0 0.41,-0.08 0.57,-0.25l0 0.21z"/>
  <polygon class="fil0" points="43.15,12.55 43.45,12.55 43.45,10.29 43.15,10.29 "/>
  <path class="fil0" d="M0.4 8.24l43.96 0c0.15,-0.33 0.48,-0.55 0.87,-0.55 0.53,0 0.95,0.43 0.95,0.95 0,0.53 -0.43,0.95 -0.95,0.95 -0.38,0 -0.71,-0.23 -0.87,-0.55l-43.95 0 -0 0c-0.22,0 -0.39,-0.17 -0.4,-0.39l0 -0.03c0.01,-0.21 0.18,-0.39 0.4,-0.39l0 -0z"/>
 </g>
</svg>
