<?xml version="1.0" encoding="UTF-8"?>
<!DOCTYPE svg PUBLIC "-//W3C//DTD SVG 1.1//EN" "http://www.w3.org/Graphics/SVG/1.1/DTD/svg11.dtd">
<!-- Creator: CorelDRAW Standard 2020 -->
<svg xmlns="http://www.w3.org/2000/svg" xml:space="preserve" width="2.63333in" height="1.61667in" version="1.1" style="shape-rendering:geometricPrecision; text-rendering:geometricPrecision; image-rendering:optimizeQuality; fill-rule:evenodd; clip-rule:evenodd"
viewBox="0 0 15.9 9.76"
 xmlns:xlink="http://www.w3.org/1999/xlink"
 xmlns:xodm="http://www.corel.com/coreldraw/odm/2003">
 <defs>
  <style type="text/css">
   <![CDATA[
    .fil2 {fill:none}
    .fil0 {fill:#0068AA}
    .fil1 {fill:#7E8083}
   ]]>
  </style>
 </defs>
 <g id="Layer_x0020_1">
  <metadata id="CorelCorpID_0Corel-Layer"/>
  <g id="_-757465568">
   <g>
    <path class="fil0" d="M10.14 4.87c-0.57,0.07 -1.02,0.59 -0.94,1.25 0.08,0.61 0.64,1 1.29,0.92 0.57,-0.08 1.04,-0.59 0.94,-1.26 -0.09,-0.63 -0.67,-0.99 -1.3,-0.91zm-0.46 1.07c0,0.37 0.26,0.67 0.63,0.68 0.86,0.02 0.87,-1.32 0.03,-1.33 -0.37,-0.01 -0.66,0.28 -0.66,0.65z"/>
    <path class="fil0" d="M4.72 7.02l0.47 0 -0 -0.68 0.38 -0.01c0.03,0.08 0.16,0.26 0.22,0.34 0.07,0.11 0.17,0.24 0.23,0.35l0.55 -0 -0.38 -0.57c-0.04,-0.05 -0.1,-0.14 -0.12,-0.19 0.63,-0.26 0.49,-0.95 0.27,-1.15 -0.18,-0.16 -0.37,-0.21 -0.68,-0.21 -0.3,0 -0.61,0 -0.91,0l-0 2.12zm0.47 -1.11c0.05,0.02 0.21,0.01 0.26,0.01 0.09,0 0.2,0.01 0.28,-0 0.37,-0.05 0.38,-0.54 0.01,-0.6 -0.08,-0.01 -0.48,-0.01 -0.55,0l0 0.58z"/>
    <path class="fil0" d="M11.87 6.96l0 0.06 0.45 -0c0.02,-0.13 0.01,-1.12 0.01,-1.34 0.04,0.03 0.66,0.86 0.79,1.02 0.04,0.06 0.09,0.11 0.13,0.17 0.14,0.19 0.04,0.15 0.47,0.15 0.07,0 0.04,-0.04 0.04,-0.21l0 -1.91 -0.46 -0 0 1.29c-0,-0 -0.01,-0.01 -0.01,-0.01l-0.06 -0.07c-0.03,-0.03 -0.05,-0.05 -0.07,-0.08l-0.82 -1.09c-0.04,-0.06 -0.03,-0.05 -0.11,-0.05l-0.37 0 -0 2.06z"/>
    <path class="fil0" d="M6.82 5.96c0,0.69 0.49,1.1 1.15,1.1 0.37,0 0.81,-0.12 0.86,-0.51 0,-0.03 0,-0.68 -0.01,-0.75l-0.9 -0 -0 0.4 0.47 0 0 0.31c-0.1,0.06 -0.17,0.12 -0.47,0.12 -0.82,0 -0.81,-1.33 0,-1.33 0.12,0 0.21,0.02 0.31,0.06 0.11,0.04 0.17,0.12 0.25,0.15 0.04,-0.07 0.2,-0.23 0.28,-0.35l-0.15 -0.12c-0.67,-0.42 -1.79,-0.07 -1.79,0.92z"/>
    <path class="fil0" d="M2.14 7.02l0.44 -0 0.2 -0.41 0.04 -0.06 0.88 -0.01 0.2 0.48 0.48 0c-0.05,-0.21 -0.83,-1.9 -0.9,-2.14l-0.43 0c-0.03,0.04 -0.88,2 -0.92,2.14zm0.83 -0.89l0.56 0c-0.01,-0.02 -0.24,-0.63 -0.28,-0.67l-0.28 0.67z"/>
    <path class="fil1" d="M8.54 3.73l-0.89 -0 -0.24 0.55 1.98 0 -1 -2.28c-0.03,0.03 -0.16,0.35 -0.19,0.41 -0.11,0.26 -0.13,0.17 -0.02,0.43l0.35 0.88z"/>
    <path class="fil0" d="M6.51 4.29c0.74,0 0.54,0.11 0.76,-0.42 0.12,-0.28 0.23,-0.55 0.36,-0.84l0.53 -1.25c0.06,-0.13 0.11,-0.2 -0.04,-0.43 -0.09,-0.14 -0.3,-0.15 -0.37,0 -0.13,0.26 -0.39,0.94 -0.53,1.26 -0.04,0.09 -0.69,1.61 -0.7,1.67z"/>
    <path class="fil1" d="M8.41 8.49c0.32,0 0.73,0.04 0.73,-0.47 0,-0.48 -0.45,-0.44 -0.72,-0.44l-0 0.92zm0.12 -0.1c0.14,0.02 0.26,0 0.35,-0.05 0.24,-0.15 0.18,-0.78 -0.35,-0.65l-0 0.71z"/>
    <path class="fil1" d="M4.18 8.49c0.3,0 0.72,0.04 0.72,-0.45 0,-0.18 -0.06,-0.28 -0.16,-0.36 -0.13,-0.12 -0.37,-0.1 -0.57,-0.1l0 0.92zm0.12 -0.1c0.26,0.02 0.48,-0.04 0.49,-0.34 0,-0.15 -0.05,-0.23 -0.13,-0.3 -0.1,-0.09 -0.21,-0.07 -0.36,-0.07l0 0.71z"/>
    <path class="fil1" d="M2.13 8.49l0.12 -0 0 -0.74c0.05,0.05 0.21,0.39 0.25,0.48 0.03,0.08 0.03,0.14 0.12,0.14 0.07,0 0.15,-0.25 0.18,-0.31 0.04,-0.09 0.11,-0.24 0.16,-0.31l0 0.74 0.12 0 -0 -0.92c-0.21,0 -0.14,-0.05 -0.31,0.3 -0.04,0.08 -0.11,0.26 -0.16,0.3l-0.3 -0.6 -0.17 -0 0 0.92z"/>
    <path class="fil1" d="M6.34 8.49l0.11 0 0.04 -0.11c0.05,-0.17 0.02,-0.13 0.41,-0.13l0.08 0.23 0.11 -0 -0.27 -0.8c-0.04,-0.13 -0.02,-0.11 -0.17,-0.11l-0.09 0.22 -0.24 0.7zm0.23 -0.32l0.29 0 -0.15 -0.45 -0.04 0.11c-0.01,0.04 -0.02,0.08 -0.04,0.11 -0.02,0.07 -0.04,0.11 -0.07,0.22z"/>
    <path class="fil1" d="M13.45 8.42c-0.13,0 -0.24,-0.05 -0.24,-0.19l-0.12 0c0.02,0.4 0.65,0.35 0.68,0.06 0.02,-0.19 -0.12,-0.25 -0.26,-0.3 -0.07,-0.02 -0.37,-0.09 -0.25,-0.25 0.04,-0.06 0.15,-0.07 0.22,-0.06 0.15,0.02 0.15,0.11 0.17,0.13l0.09 0c-0.04,-0.17 -0.15,-0.26 -0.36,-0.24 -0.16,0.02 -0.33,0.15 -0.24,0.33 0.06,0.13 0.26,0.15 0.4,0.22 0.21,0.09 0.1,0.29 -0.09,0.29z"/>
    <polygon class="fil1" points="12.3,8.49 12.88,8.49 12.87,8.39 12.43,8.39 12.43,8.08 12.85,8.08 12.85,7.99 12.43,7.98 12.42,7.68 12.87,7.67 12.87,7.57 12.3,7.57 "/>
    <path class="fil1" d="M6.22 8.19l-0.11 0c-0.04,0.14 -0.11,0.25 -0.31,0.2 -0.22,-0.05 -0.24,-0.41 -0.17,-0.57 0.02,-0.05 0.09,-0.13 0.13,-0.14 0.21,-0.1 0.27,0.08 0.35,0.16l0.1 -0.02c-0.02,-0.35 -0.76,-0.45 -0.75,0.22 0.01,0.22 0.1,0.41 0.3,0.44 0.25,0.05 0.44,-0.07 0.45,-0.3z"/>
    <polygon class="fil1" points="9.37,8.49 9.94,8.49 9.94,8.39 9.49,8.39 9.49,8.08 9.91,8.08 9.91,7.99 9.49,7.98 9.49,7.68 9.93,7.67 9.94,7.57 9.37,7.57 "/>
    <path class="fil1" d="M3.36 8.49l0.57 0 0 -0.09c-0.1,-0.02 -0.27,-0 -0.38,-0.01 -0.09,-0 -0.07,-0.01 -0.07,-0.12 0,-0.06 -0,-0.13 0,-0.19l0.42 -0.01 0 -0.1 -0.42 -0 -0.01 -0.3 0.45 -0 -0 -0.1 -0.56 -0 -0.01 0.92z"/>
    <path class="fil1" d="M12.09 8.19c-0.06,0 -0.09,0 -0.11,0.01 -0.02,0.01 0.02,0.07 -0.09,0.15 -0.14,0.11 -0.42,0.07 -0.43,-0.31 -0.01,-0.36 0.25,-0.44 0.4,-0.35 0.09,0.05 0.09,0.09 0.12,0.15l0.11 -0.02c-0.04,-0.37 -0.77,-0.42 -0.75,0.22 0.02,0.46 0.39,0.53 0.61,0.4 0.09,-0.05 0.12,-0.13 0.14,-0.25z"/>
    <path class="fil1" d="M10.42 8.49c0.12,0 0.1,0.01 0.18,-0.21 0.03,-0.08 0.05,-0.15 0.08,-0.23 0.05,-0.14 0.13,-0.33 0.16,-0.47l-0.12 -0.01 -0.26 0.76 -0.27 -0.75 -0.12 0c0.06,0.15 0.11,0.31 0.16,0.46 0.02,0.07 0.06,0.16 0.08,0.23 0.02,0.06 0.05,0.17 0.1,0.22z"/>
    <polygon class="fil1" points="7.28,8.49 7.8,8.49 7.8,8.4 7.4,8.39 7.4,7.58 7.34,7.57 7.28,7.57 "/>
    <path class="fil1" d="M5.15 8.49l0.06 0.01c0.03,0 0.03,-0 0.06,-0.01l0 -0.9 -0.11 -0 0 0.91z"/>
    <path class="fil1" d="M11.01 8.49l0.06 0.01c0.03,0 0.03,-0 0.06,-0.01l0 -0.9 -0.11 -0 0 0.91z"/>
   </g>
   <rect class="fil2" width="15.9" height="9.76"/>
  </g>
 </g>
</svg>
