<?xml version="1.0" encoding="UTF-8"?>
<!DOCTYPE svg PUBLIC "-//W3C//DTD SVG 1.1//EN" "http://www.w3.org/Graphics/SVG/1.1/DTD/svg11.dtd">
<!-- Creator: CorelDRAW Standard 2020 -->
<svg xmlns="http://www.w3.org/2000/svg" xml:space="preserve" width="6.52705in" height="4.07569in" version="1.1" style="shape-rendering:geometricPrecision; text-rendering:geometricPrecision; image-rendering:optimizeQuality; fill-rule:evenodd; clip-rule:evenodd"
viewBox="0 0 174.14 108.74"
 xmlns:xlink="http://www.w3.org/1999/xlink"
 xmlns:xodm="http://www.corel.com/coreldraw/odm/2003">
 <defs>
  <style type="text/css">
   <![CDATA[
    .fil0 {fill:#0068AA}
    .fil1 {fill:#7E8083}
   ]]>
  </style>
 </defs>
 <g id="Layer_x0020_1">
  <metadata id="CorelCorpID_0Corel-Layer"/>
  <path class="fil0" d="M119.85 54.27c-8.52,1.12 -15.3,8.82 -13.99,18.67 1.21,9.12 9.62,15.02 19.3,13.7 8.59,-1.17 15.54,-8.76 14.11,-18.78 -1.35,-9.48 -10.04,-14.82 -19.42,-13.59zm-6.81 15.97c0,5.54 3.93,10.07 9.35,10.21 12.88,0.34 12.97,-19.68 0.45,-19.88 -5.51,-0.09 -9.8,4.21 -9.8,9.67z"/>
  <path class="fil0" d="M38.71 86.36l7.01 0 -0.03 -10.12 5.61 -0.13c0.43,1.14 2.44,3.82 3.28,5.06 1.06,1.58 2.56,3.61 3.39,5.18l8.16 -0.01 -5.71 -8.53c-0.54,-0.78 -1.55,-2.09 -1.86,-2.82 9.47,-3.87 7.35,-14.16 3.97,-17.19 -2.69,-2.42 -5.52,-3.15 -10.15,-3.15 -4.54,0 -9.07,0 -13.61,0l-0.06 31.69zm6.99 -16.62c0.69,0.35 3.08,0.2 3.96,0.2 1.3,0 2.95,0.09 4.21,-0.06 5.59,-0.67 5.75,-8.15 0.09,-8.92 -1.19,-0.16 -7.2,-0.19 -8.26,0.03l0.01 8.75z"/>
  <path class="fil0" d="M145.69 85.42l0.05 0.85 6.79 -0c0.29,-1.94 0.14,-16.74 0.09,-20 0.66,0.45 9.87,12.83 11.75,15.24 0.67,0.86 1.32,1.66 1.97,2.56 2.05,2.82 0.55,2.19 7.03,2.19 1,0 0.62,-0.57 0.62,-3.11l0 -28.52 -6.9 -0.03 0 19.33c-0.05,-0.04 -0.11,-0.17 -0.13,-0.13l-0.87 -1.03c-0.38,-0.49 -0.68,-0.82 -1.01,-1.25l-12.3 -16.25c-0.66,-0.85 -0.47,-0.68 -1.61,-0.68l-5.47 0 -0 30.85z"/>
  <path class="fil0" d="M70.11 70.47c0,10.3 7.26,16.48 17.16,16.48 5.53,0 12.1,-1.75 12.91,-7.67 0.06,-0.46 0.02,-10.18 -0.1,-11.18l-13.46 -0.07 -0.03 6 7 0 0 4.62c-1.56,0.96 -2.6,1.85 -6.99,1.85 -12.23,0 -12.16,-19.93 0,-19.93 1.82,0 3.17,0.27 4.7,0.9 1.6,0.66 2.59,1.75 3.75,2.21 0.6,-1.06 2.93,-3.42 4.12,-5.21l-2.24 -1.73c-10.03,-6.25 -26.82,-1.06 -26.82,13.74z"/>
  <path class="fil0" d="M0.14 86.37l6.51 -0.01 3.06 -6.2 0.56 -0.88 13.22 -0.09 2.99 7.16 7.2 0.02c-0.76,-3.08 -12.39,-28.37 -13.41,-32.02l-6.42 0.01c-0.44,0.53 -13.14,29.94 -13.71,32.02zm12.47 -13.36l8.42 0.01c-0.11,-0.35 -3.64,-9.37 -4.23,-10.05l-4.19 10.04z"/>
  <path class="fil1" d="M95.95 37.23l-13.26 -0.01 -3.52 8.29 29.62 0.03 -14.95 -34.11c-0.49,0.46 -2.39,5.17 -2.81,6.16 -1.64,3.86 -1.93,2.5 -0.36,6.42l5.27 13.22z"/>
  <path class="fil0" d="M65.51 45.48c11.03,0 8,1.64 11.4,-6.22 1.83,-4.24 3.51,-8.28 5.32,-12.57l7.89 -18.62c0.86,-2 1.65,-3.01 -0.6,-6.46 -1.33,-2.03 -4.41,-2.27 -5.57,0.07 -1.94,3.92 -5.82,13.99 -7.95,18.8 -0.6,1.36 -10.38,24.06 -10.5,25.02z"/>
  <path class="fil1" d="M94.02 108.35c4.84,0 10.85,0.56 10.85,-7.07 0,-7.24 -6.71,-6.62 -10.83,-6.62l-0.02 13.69zm1.73 -1.56c2.04,0.25 3.96,0.03 5.28,-0.81 3.53,-2.23 2.76,-11.61 -5.22,-9.76l-0.05 10.57z"/>
  <path class="fil1" d="M30.75 108.31c4.48,0 10.84,0.61 10.84,-6.8 0,-2.75 -0.93,-4.16 -2.36,-5.44 -1.94,-1.73 -5.56,-1.46 -8.48,-1.46l0 13.69zm1.74 -1.46c3.81,0.36 7.13,-0.64 7.27,-5.11 0.07,-2.23 -0.7,-3.48 -1.92,-4.51 -1.51,-1.27 -3.19,-1.01 -5.41,-1.01l0.05 10.62z"/>
  <path class="fil1" d="M0.03 108.35l1.74 -0.05 0 -11.12c0.74,0.75 3.18,5.79 3.77,7.2 0.47,1.12 0.5,2.16 1.73,2.16 0.99,0 2.31,-3.68 2.71,-4.58 0.58,-1.32 1.65,-3.53 2.41,-4.66l0.05 11.05 1.73 0 -0 -13.69c-3.12,0 -2.03,-0.72 -4.69,4.51 -0.59,1.17 -1.63,3.85 -2.43,4.53l-4.55 -9 -2.5 -0.03 0.03 13.69z"/>
  <path class="fil1" d="M62.97 108.35l1.7 0 0.59 -1.65c0.76,-2.5 0.3,-1.87 6.14,-1.87l1.16 3.49 1.72 -0.01 -4.01 -12.03c-0.67,-1.88 -0.34,-1.63 -2.49,-1.63l-1.28 3.29 -3.52 10.4zm3.49 -4.8l4.39 0.07 -2.19 -6.75 -0.65 1.71c-0.18,0.57 -0.37,1.13 -0.55,1.7 -0.36,1.1 -0.53,1.7 -1,3.27z"/>
  <path class="fil1" d="M169.29 107.25c-2,0 -3.54,-0.78 -3.58,-2.84l-1.73 0c0.24,5.98 9.68,5.25 10.13,0.95 0.3,-2.83 -1.85,-3.8 -3.96,-4.49 -1.04,-0.34 -5.58,-1.27 -3.71,-3.77 0.66,-0.89 2.18,-1.03 3.3,-0.86 2.19,0.33 2.18,1.69 2.49,1.92l1.36 0c-0.55,-2.61 -2.22,-3.88 -5.36,-3.56 -2.38,0.25 -5,2.21 -3.62,5.01 0.97,1.96 3.82,2.26 6.05,3.25 3.12,1.39 1.54,4.39 -1.37,4.39z"/>
  <polygon class="fil1" points="152.2,108.4 160.77,108.4 160.72,106.9 154.11,106.9 154.07,102.24 160.38,102.22 160.38,100.86 154.03,100.76 153.98,96.23 160.72,96.16 160.72,94.67 152.18,94.67 "/>
  <path class="fil1" d="M61.25 103.91l-1.63 0.04c-0.62,2.03 -1.68,3.71 -4.57,3.03 -3.25,-0.76 -3.63,-6.16 -2.6,-8.55 0.32,-0.74 1.33,-1.87 1.94,-2.15 3.14,-1.43 4.07,1.26 5.23,2.44l1.55 -0.34c-0.29,-5.18 -11.44,-6.67 -11.16,3.37 0.09,3.36 1.47,6.08 4.5,6.65 3.7,0.7 6.6,-1.08 6.73,-4.49z"/>
  <polygon class="fil1" points="108.29,108.4 116.81,108.4 116.77,106.9 110.15,106.9 110.11,102.24 116.42,102.22 116.42,100.86 110.12,100.78 110.08,96.17 116.73,96.16 116.79,94.67 108.29,94.67 "/>
  <path class="fil1" d="M18.45 108.28l8.47 0.07 0 -1.38c-1.56,-0.34 -3.97,-0.07 -5.63,-0.09 -1.4,-0.01 -1.09,-0.12 -1.07,-1.74 0.02,-0.95 -0.03,-1.92 0.06,-2.86l6.29 -0.1 0 -1.45 -6.24 -0.01 -0.11 -4.55 6.68 -0.06 -0.01 -1.49 -8.36 -0.05 -0.1 13.72z"/>
  <path class="fil1" d="M148.98 103.92c-0.84,0 -1.3,0.03 -1.58,0.1 -0.3,0.08 0.23,1.12 -1.39,2.32 -2.15,1.59 -6.28,1.03 -6.45,-4.59 -0.16,-5.34 3.68,-6.6 5.95,-5.24 1.31,0.79 1.41,1.36 1.8,2.18l1.6 -0.3c-0.65,-5.51 -11.53,-6.28 -11.16,3.35 0.27,6.93 5.77,7.89 9.16,5.94 1.31,-0.75 1.85,-1.97 2.07,-3.77z"/>
  <path class="fil1" d="M123.97 108.35c1.83,0 1.47,0.2 2.67,-3.21 0.41,-1.16 0.76,-2.32 1.15,-3.43 0.76,-2.13 1.95,-4.91 2.45,-6.98l-1.74 -0.08 -3.9 11.31 -4.03 -11.28 -1.75 0.02c0.86,2.21 1.64,4.62 2.41,6.82 0.37,1.07 0.85,2.36 1.24,3.51 0.3,0.87 0.76,2.48 1.49,3.32z"/>
  <polygon class="fil1" points="77.07,108.35 84.87,108.35 84.83,106.95 78.81,106.85 78.81,94.74 77.98,94.65 77.07,94.67 "/>
  <path class="fil1" d="M45.19 108.28l0.83 0.15c0.41,0.03 0.51,-0.07 0.84,-0.15l0 -13.5 -1.68 -0.05 0.01 13.55z"/>
  <path class="fil1" d="M132.88 108.28l0.83 0.15c0.41,0.03 0.51,-0.07 0.84,-0.15l0 -13.5 -1.67 -0.05 0 13.55z"/>
 </g>
</svg>
