<?xml version="1.0" encoding="UTF-8"?>
<!DOCTYPE svg PUBLIC "-//W3C//DTD SVG 1.1//EN" "http://www.w3.org/Graphics/SVG/1.1/DTD/svg11.dtd">
<!-- Creator: CorelDRAW Standard 2020 -->
<svg xmlns="http://www.w3.org/2000/svg" xml:space="preserve" width="3.44059in" height="0.85715in" version="1.1" style="shape-rendering:geometricPrecision; text-rendering:geometricPrecision; image-rendering:optimizeQuality; fill-rule:evenodd; clip-rule:evenodd"
viewBox="0 0 32.59 8.12"
 xmlns:xlink="http://www.w3.org/1999/xlink"
 xmlns:xodm="http://www.corel.com/coreldraw/odm/2003">
 <defs>
  <style type="text/css">
   <![CDATA[
    .fil0 {fill:#28356B;fill-rule:nonzero}
   ]]>
  </style>
 </defs>
 <g id="Layer_x0020_1">
  <metadata id="CorelCorpID_0Corel-Layer"/>
  <path class="fil0" d="M6.65 8.01c-0.2,-0.01 -0.92,-0.01 -1.1,0 -0.3,-0.91 -0.68,-1.97 -1.1,-2.98l-2.66 0c-0.37,0.97 -0.74,1.94 -1.04,2.98 -0.15,-0.01 -0.64,-0.01 -0.75,0l3.38 -8.01 3.27 8.01zm-3.53 -6.27l-1.14 2.68 2.19 0 -1.05 -2.68z"/>
  <path class="fil0" d="M7.58 3.93c0.15,0.01 0.76,0.03 1.3,-0.08 0.77,-0.17 1.34,-0.72 1.34,-1.58 0,-0.76 -0.37,-1.26 -1.15,-1.39 -0.39,-0.07 -1.1,-0.03 -1.54,-0.01l0 2.65 0 4.49c-0.17,-0.01 -0.78,-0.01 -0.92,0l0 -7.54 2.22 0c1.61,0 2.33,0.56 2.33,1.68 0,1.28 -1.09,1.9 -2.15,2.1l2.86 3.77c-0.22,-0.01 -1.02,-0.01 -1.21,0 -0.23,-0.34 -3.08,-4.08 -3.08,-4.08z"/>
  <path class="fil0" d="M16.27 4.37c-0.11,-2.41 1.39,-4 3.38,-4.09 1.8,-0.08 3.68,0.97 3.8,3.61 0.11,2.46 -1.34,4.13 -3.48,4.23 -2.12,0.09 -3.6,-1.39 -3.7,-3.75zm5.53 -2.75c-0.51,-0.67 -1.27,-1.02 -2.04,-0.98 -1.69,0.07 -2.64,1.58 -2.54,3.82 0.1,2.24 1.34,3.35 2.77,3.29 2.02,-0.09 2.65,-2.52 2.53,-3.73 -0.04,-0.91 -0.18,-1.68 -0.71,-2.4z"/>
  <path class="fil0" d="M23.02 0.46c0.15,0.01 0.75,0.01 0.91,0 0.11,0.37 0.2,0.77 0.29,1.17l0.58 2.24 0.83 2.91 0.09 0c0.63,-2.02 1.67,-5.38 1.91,-6.32 0.09,0.01 0.46,0.01 0.56,0 0.19,0.78 0.98,3.3 1.86,6.32l0.09 0c0.15,-0.42 0.27,-0.84 0.39,-1.26l1.15 -4.16 0.24 -0.91c0.11,0.01 0.56,0.01 0.69,0 -0.18,0.45 -0.34,0.93 -0.49,1.41l-1.87 6.13c-0.12,-0.01 -0.54,-0.01 -0.65,0 -0.12,-0.43 -1.16,-4.03 -1.78,-6.19l-0.08 0 -1.9 6.19c-0.12,-0.01 -0.55,-0.01 -0.66,0 -0.14,-0.51 -0.25,-0.98 -0.39,-1.46l-1.76 -6.09z"/>
  <path class="fil0" d="M12.69 3.93c0.15,0.01 0.76,0.03 1.3,-0.08 0.77,-0.17 1.34,-0.72 1.34,-1.58 0,-0.76 -0.37,-1.26 -1.15,-1.39 -0.39,-0.07 -1.1,-0.03 -1.54,-0.01l0 2.64 0 4.49c-0.17,-0.01 -0.78,-0.01 -0.92,0l0 -7.55 2.22 0c1.61,0 2.32,0.57 2.32,1.68 0,1.28 -1.09,1.9 -2.15,2.1l2.86 3.77c-0.22,-0.01 -1.02,-0.01 -1.2,0 -0.23,-0.34 -3.08,-4.08 -3.08,-4.08z"/>
 </g>
</svg>
