<?xml version="1.0" encoding="UTF-8"?>
<!DOCTYPE svg PUBLIC "-//W3C//DTD SVG 1.1//EN" "http://www.w3.org/Graphics/SVG/1.1/DTD/svg11.dtd">
<!-- Creator: CorelDRAW Standard 2020 -->
<svg xmlns="http://www.w3.org/2000/svg" xml:space="preserve" width="4.88052in" height="1.71666in" version="1.1" style="shape-rendering:geometricPrecision; text-rendering:geometricPrecision; image-rendering:optimizeQuality; fill-rule:evenodd; clip-rule:evenodd"
viewBox="0 0 342.64 120.52"
 xmlns:xlink="http://www.w3.org/1999/xlink"
 xmlns:xodm="http://www.corel.com/coreldraw/odm/2003">
 <defs>
  <style type="text/css">
   <![CDATA[
    .fil8 {fill:url(#id0)}
    .fil2 {fill:url(#id1)}
    .fil7 {fill:url(#id2)}
    .fil13 {fill:url(#id3)}
    .fil15 {fill:url(#id4)}
    .fil6 {fill:url(#id5)}
    .fil0 {fill:url(#id6)}
    .fil4 {fill:url(#id7)}
    .fil12 {fill:url(#id8)}
    .fil9 {fill:url(#id9)}
    .fil5 {fill:url(#id10)}
    .fil11 {fill:url(#id11)}
    .fil3 {fill:url(#id12)}
    .fil1 {fill:url(#id13)}
    .fil14 {fill:url(#id14)}
    .fil10 {fill:url(#id15)}
   ]]>
  </style>
  <linearGradient id="id0" gradientUnits="userSpaceOnUse" x1="179.46" y1="85.31" x2="261.15" y2="277.16">
   <stop offset="0" style="stop-opacity:1; stop-color:#C6C6C6"/>
   <stop offset="1" style="stop-opacity:1; stop-color:#706F6F"/>
  </linearGradient>
  <linearGradient id="id1" gradientUnits="userSpaceOnUse" x1="37.33" y1="2.8" x2="144.27" y2="213.37">
   <stop offset="0" style="stop-opacity:1; stop-color:#BFD464"/>
   <stop offset="1" style="stop-opacity:1; stop-color:#13A538"/>
  </linearGradient>
  <linearGradient id="id2" gradientUnits="userSpaceOnUse" xlink:href="#id0" x1="158.55" y1="94.21" x2="240.24" y2="286.05">
  </linearGradient>
  <linearGradient id="id3" gradientUnits="userSpaceOnUse" xlink:href="#id0" x1="267.01" y1="48.02" x2="348.71" y2="239.87">
  </linearGradient>
  <linearGradient id="id4" gradientUnits="userSpaceOnUse" xlink:href="#id0" x1="309.22" y1="30.05" x2="390.92" y2="221.9">
  </linearGradient>
  <linearGradient id="id5" gradientUnits="userSpaceOnUse" xlink:href="#id0" x1="136.73" y1="103.5" x2="218.43" y2="295.35">
  </linearGradient>
  <linearGradient id="id6" gradientUnits="userSpaceOnUse" xlink:href="#id1" x1="36.52" y1="3.21" x2="143.46" y2="213.77">
  </linearGradient>
  <linearGradient id="id7" gradientUnits="userSpaceOnUse" xlink:href="#id1" x1="8.15" y1="17.62" x2="115.08" y2="228.18">
  </linearGradient>
  <linearGradient id="id8" gradientUnits="userSpaceOnUse" xlink:href="#id0" x1="246.77" y1="56.64" x2="328.46" y2="248.49">
  </linearGradient>
  <linearGradient id="id9" gradientUnits="userSpaceOnUse" xlink:href="#id0" x1="196.52" y1="78.04" x2="278.22" y2="269.89">
  </linearGradient>
  <linearGradient id="id10" gradientUnits="userSpaceOnUse" xlink:href="#id1" x1="38.79" y1="2.06" x2="145.73" y2="212.62">
  </linearGradient>
  <linearGradient id="id11" gradientUnits="userSpaceOnUse" xlink:href="#id0" x1="222.1" y1="67.15" x2="303.79" y2="259">
  </linearGradient>
  <linearGradient id="id12" gradientUnits="userSpaceOnUse" xlink:href="#id1" x1="7.4" y1="18" x2="114.33" y2="228.57">
  </linearGradient>
  <linearGradient id="id13" gradientUnits="userSpaceOnUse" xlink:href="#id1" x1="14.67" y1="14.3" x2="121.61" y2="224.87">
  </linearGradient>
  <linearGradient id="id14" gradientUnits="userSpaceOnUse" xlink:href="#id0" x1="287" y1="39.51" x2="368.7" y2="231.36">
  </linearGradient>
  <linearGradient id="id15" gradientUnits="userSpaceOnUse" xlink:href="#id0" x1="208.27" y1="73.04" x2="289.96" y2="264.89">
  </linearGradient>
 </defs>
 <g id="Layer_x0020_1">
  <metadata id="CorelCorpID_0Corel-Layer"/>
  <path class="fil0" d="M37.2 52.68c0.25,0.15 23.63,14.18 24.31,14.59l0 0c0.23,-9.79 8.24,-17.68 18.08,-17.68l0 0c1.86,0 3.65,0.28 5.34,0.8l0 0c-5.1,-3.02 -23.27,-13.8 -23.27,-13.8l0 0c-2.18,-0.92 -4.49,-1.39 -6.87,-1.39 -9.66,0 -17.52,7.83 -17.6,17.47z"/>
  <path class="fil1" d="M26.37 71.37c0.85,8.94 8.51,15.92 17.52,15.92 9.66,0 17.52,-7.82 17.6,-17.47 -0.25,-0.15 -23.66,-14.19 -24.33,-14.6l0 0c-0.16,7.03 -4.34,13.31 -10.79,16.15l0 0z"/>
  <path class="fil2" d="M97.21 102.91l0 -33.72c0,-9.71 -7.9,-17.61 -17.61,-17.61l0 0c-2.39,0 -4.67,0.48 -6.75,1.35l0 0 0.06 1.38 0 33.72c0,7.2 -4.24,13.68 -10.83,16.57l0 0c0.86,8.94 8.52,15.91 17.52,15.91 9.71,0 17.61,-7.9 17.61,-17.61z"/>
  <path class="fil3" d="M36.02 88.95c0.27,5.17 2.75,9.88 6.89,12.98l0 0c0.02,0.01 18.59,11.19 21.2,12.76 -2.45,-2.89 -3.96,-6.45 -4.28,-10.2l0 0c0,0 -0.05,-1.07 -0.05,-1.29l0 0c-0.14,-0.08 -22.96,-13.77 -23.76,-14.25z"/>
  <path class="fil4" d="M-0 17.61l0 37.19c0,5.61 2.58,10.76 7.06,14.1l0 0c0,0 18.7,11.25 22.71,13.67l0 0c-3.01,-2.94 -5.03,-6.9 -5.4,-11.33l0 0 -0.07 -1.56 0 -37.2c0,-7.2 4.25,-13.68 10.83,-16.57l0 0c-0.86,-8.93 -8.52,-15.91 -17.52,-15.91 -9.71,0 -17.61,7.9 -17.61,17.61z"/>
  <path class="fil5" d="M33.1 5.83c2.45,2.9 3.96,6.46 4.28,10.21l0 0c0,0 0.04,1.07 0.05,1.29l0 0c0.14,0.08 22.96,13.77 23.75,14.25 -0.27,-5.17 -2.75,-9.89 -6.89,-12.98l0 0c-0.03,-0.02 -18.59,-11.19 -21.2,-12.76z"/>
  <path class="fil6" d="M128.38 105.15l0.14 0c5.13,0 7.88,-0.51 9.96,-1.42l0 0c3.56,-1.52 5.95,-4.52 5.95,-8.69l0 0c0,-4.12 -2.29,-7.83 -6.96,-9.1l0 0c-0.36,-0.1 -0.71,-0.2 -1.07,-0.26l0 0c0.41,-0.15 0.76,-0.3 1.12,-0.51l0 0c2.85,-1.37 5.34,-3.86 5.34,-7.78l0 0c0,-3.51 -1.83,-5.74 -3.96,-7.07l0 0c-2.69,-1.63 -6.46,-1.93 -10.67,-1.93l0 0c-3.91,0 -7.32,0.41 -8.44,0.81 -0.85,0.3 -1.16,0.75 -1.17,1.88l0 0.05 0 31c0.05,1.42 0.1,1.98 1.37,2.34l0 0c1.5,0.4 5.51,0.65 8.4,0.66zm-1.08 -21.24l0 -10.37c0.61,-0.1 1.22,-0.15 1.88,-0.15l0 0c1.22,0 2.69,0.15 3.86,1.32l0 0c0.87,0.92 1.32,2.29 1.32,3.81l0 0c0,4.85 -3.88,5.43 -6.07,5.43l0 0c-0.4,0 -0.74,-0.02 -0.99,-0.04zm0 15.7l0 -11.43c0.46,-0.05 0.81,-0.05 1.37,-0.05l0 0c3.91,0 5.24,1.52 5.85,2.44l0 0c0.76,1.17 1.02,2.54 1.02,3.81l0 0c0,1.32 -0.31,3.31 -2.08,4.47l0 0c-1.32,0.81 -2.9,0.92 -3.86,0.92l0 0c-0.71,0 -1.42,-0.05 -2.29,-0.15l0 0z"/>
  <path class="fil7" d="M159.2 77.7l-0.09 0c-7.72,0 -11.08,3.4 -11.08,6.25 0,1.68 1.22,3.25 3.45,3.25l0 0c2.34,0 2.9,-1.47 3.46,-2.9l0 0c0.31,-0.86 0.91,-2.33 2.79,-2.33l0 0c2.39,0 2.44,2.18 2.44,3.76l0 0 0 2.64c-6.61,1.47 -13.37,3 -13.37,9.66 0,7.37 8.74,7.42 10.88,7.42l0 0c5.49,0 8.39,-1.63 9.25,-2.8l0 0c0.76,-0.97 0.81,-2.23 0.81,-3.35l0 0 0 -14.08c0,-1.72 -0.05,-4.57 -2.8,-6.3l0 0c-1.65,-1 -3.94,-1.21 -5.76,-1.22zm-4.61 19.62c0,-3.71 2.79,-4.57 5.59,-5.44l0 0 0 6.15c0,1.17 -0.05,3.15 -2.39,3.15l0 0c-1.47,0 -3.2,-1.07 -3.2,-3.86l0 0z"/>
  <path class="fil8" d="M171.21 91.73c0,6.35 2.9,13.72 10.57,13.72l0 0c6.86,0 9.61,-5.59 9.61,-9.2 0,-1.78 -0.97,-2.29 -1.68,-2.29l0 0c-0.81,0 -1.22,0.61 -1.78,1.42l0 0c-0.76,1.17 -1.78,2.74 -4.22,2.74l0 0c-3.81,0 -5.74,-5.03 -5.74,-8.84l0 0c0,-3.1 1.32,-6.56 3.81,-6.56l0 0c1.88,0 2.64,1.78 3.2,3.25l0 0c0.71,1.78 2.14,2.13 3,2.13l0 0c1.83,0 3.35,-1.52 3.35,-3.66l0 0c0,-2.8 -2.54,-6.76 -8.49,-6.76 -9.55,0 -11.64,8.94 -11.64,14.03l0 0z"/>
  <path class="fil9" d="M202.61 105.45l0.06 0c2.95,0 6,-1.22 6,-2.85 0,-1.58 -1.32,-1.58 -2.13,-1.58l0 0c-3.35,-0.2 -3.41,-3 -3.41,-4.67l0 0 0 -14.59 3.41 0c0.71,0 1.12,-0.1 1.12,-0.91l0 0 0 -1.88c-0.15,-0.51 -0.46,-0.56 -1.12,-0.56l0 0 -3.41 0 0 -5.84c0,-0.45 -0.05,-1.47 -0.91,-1.47l0 0c-0.3,0 -0.61,0.15 -0.86,0.3l0 0 -5.19 2.64c-0.87,0.51 -0.97,0.76 -0.97,1.73l0 0 0 2.64c-0.91,0 -2.64,0 -2.75,0.05l0 0c-0.55,0.1 -0.56,0.1 -0.56,2.23l0 0 0 0.16c0,0.46 0.05,0.81 0.56,0.86l0 0c0.15,0.05 1.83,0.05 2.75,0.05l0 0 0 15.91c0,1.78 0.05,3.76 1.73,5.59l0 0c1.9,2 4.49,2.18 5.69,2.19z"/>
  <path class="fil10" d="M210.45 79.49l0 0.03 0 24.06c0,0.72 0.08,1.15 1.02,1.15l0 0 6 0c0.86,0 1.27,-0.2 1.27,-1.27l0 0 0 -23.89c0,-0.97 -0.25,-1.17 -1.22,-1.17l0 0 -6 0c-0.95,0 -1.06,0.4 -1.07,1.09zm0 -7.38c0,2.29 1.88,3.51 4.22,3.51l0 0c2.04,0 3.92,-1.12 3.92,-3.56l0 0c-0.05,-1.88 -1.22,-3.56 -3.97,-3.56 -2.79,0 -4.17,1.63 -4.17,3.61z"/>
  <path class="fil11" d="M222.9 86.75c0,1.22 0.15,5.8 4.73,8.03l0 0c-2.24,1.68 -4.73,4.06 -4.73,6.61l0 0c0,2.79 2.13,3.66 3.2,4.12l0 0c-2.69,1.47 -4.27,3.41 -4.27,5.64l0 0c0,6 8.89,6 10.31,6l0 0c12.3,0 15.76,-7.27 15.76,-10.83 0,-6.3 -6.97,-6.76 -9.51,-6.91l0 0 -3.81 -0.2c-3.25,-0.15 -4.73,-0.2 -4.73,-1.63l0 0c0,-0.56 0.35,-1.12 0.86,-1.88l0 0c0.82,0.15 1.78,0.25 2.8,0.25l0 0c4.62,0 10.06,-2.59 10.06,-8.79l0 0c0,-1.94 -0.61,-3.25 -1.01,-4.22l0 0 3.76 -1.17c0.61,-0.2 0.76,-0.3 0.76,-0.66l0 0c0,-0.2 -0.25,-1.32 -0.46,-1.98l0 0c-0.05,-0.16 -0.15,-0.66 -0.61,-0.66l0 0c-0.1,0 -2.59,0.51 -2.85,0.56l0 0c-0.61,0.1 -1.17,0.2 -1.83,0.2l0 0c-1.12,0 -1.78,-0.2 -2.95,-0.66l0 0c-1.07,-0.36 -2.54,-0.87 -5.13,-0.87 -7.47,0 -10.37,4.52 -10.37,9.05zm7.11 -1.22c0,-2.34 1.32,-3.66 2.85,-3.66l0 0c1.98,0 3.05,2.14 3.4,3.92l0 0c0.1,0.61 0.15,1.17 0.15,1.78l0 0c0,1.88 -0.86,3.56 -2.79,3.56l0 0c-2.39,0 -3.61,-3.3 -3.61,-5.59zm-1.68 23.43c0,-1.02 0.66,-1.78 1.32,-2.54l0 0c1.22,0.1 6.61,0.31 7.67,0.41l0 0c1.33,0.15 3.26,0.36 3.26,2.13l0 0c0,2.03 -3.05,3.35 -6.35,3.35l0 0c-4.32,0 -5.9,-1.73 -5.9,-3.35l0 0z"/>
  <path class="fil12" d="M271.69 98.68l0 -0.1 0 -0.1 0 -19.06c0,-0.9 -0.49,-1.01 -1.14,-1.02l-0.03 0 -5.95 0 -0.04 0c-0.83,0.01 -0.97,0.37 -0.97,1.12l0 0 0 17.49c0,1.22 -0.05,3.05 -2.8,3.05l0 0c-3,0 -3.05,-2.13 -3.05,-3.41l0 0 0 -17.18c0,-0.99 -0.58,-1.07 -1.21,-1.07l-0.03 0 -0.03 0 -5.74 0 -0.03 0 -0.03 0c-0.54,0 -1.07,0.08 -1.07,0.97l0 0 0 17.64c0,4.62 1.93,8.44 10.98,8.44l0 0c4.47,0 7.83,-1.12 9.3,-2.19l0 0c1.72,-1.28 1.82,-2.61 1.83,-4.58z"/>
  <path class="fil13" d="M295.88 99.41l0 -0.05 0 -0.05 0 -14.08 0 -0.08 0 -0.08c-0.01,-1.74 -0.14,-4.46 -2.8,-6.13l0 0c-1.65,-1 -3.94,-1.21 -5.76,-1.22l-0.09 0c-7.72,0 -11.08,3.4 -11.08,6.25 0,1.68 1.22,3.25 3.46,3.25l0 0c2.34,0 2.89,-1.47 3.45,-2.9l0 0c0.31,-0.86 0.91,-2.33 2.79,-2.33l0 0c2.39,0 2.44,2.18 2.44,3.76l0 0 0 2.64c-6.61,1.47 -13.37,3 -13.37,9.66l0 0c0,7.37 8.74,7.42 10.88,7.42l0 0c5.49,0 8.39,-1.63 9.25,-2.8l0 0c0.74,-0.93 0.81,-2.16 0.81,-3.25zm-13.16 -2.09c0,-3.71 2.79,-4.57 5.59,-5.44l0 0 0 6.15c0,1.17 -0.05,3.15 -2.39,3.15l0 0c-1.48,0 -3.2,-1.07 -3.2,-3.86l0 0z"/>
  <path class="fil14" d="M312.18 77.7l-0.07 0 -0.07 0 -0.11 0c-2.42,0.01 -7.05,0.38 -9.9,1.88l0 0c-1.17,0.61 -1.47,1.22 -1.47,2.9l0 0 0 21.09c0,0.97 0.25,1.17 1.17,1.17l0 0 5.84 0c0.81,0 1.12,-0.2 1.12,-1.12l0 0 0 -19.36c0,-1.22 0.05,-2.59 2.14,-2.59l0 0c1.22,0 1.67,0.71 2.08,1.58l0 0c0.56,1.27 1.07,2.44 2.85,2.44l0 0c1.88,0 3,-1.47 3,-3.3 0,-4.53 -5.01,-4.67 -6.57,-4.68z"/>
  <path class="fil15" d="M335.93 65.86c-0.71,0 -1.32,0.15 -1.32,1.27l0 0 0 11.54c-0.76,-0.41 -1.88,-1.02 -4.02,-1.02l0 0c-7.06,0 -11.13,6.91 -11.13,14.59 0,7.78 3.76,13.22 12.5,13.22 3.96,0 7.57,-1.12 8.99,-2.08l0 0c1.58,-1.07 1.63,-2.34 1.68,-3.86l0 0 0 -32.53c0,-1.07 -0.46,-1.07 -1.37,-1.12l0 0 -5.34 0zm-8.34 25.31c0,-4.78 1.53,-9.25 4.93,-9.25l0 0c0.92,0 1.58,0.35 2.08,0.66l0 0 0 14.79c0,1.12 -0.05,3 -2.19,3l0 0c-3.31,0 -4.83,-4.42 -4.83,-9.2l0 0z"/>
 </g>
</svg>
