<?xml version="1.0" encoding="UTF-8"?>
<!DOCTYPE svg PUBLIC "-//W3C//DTD SVG 1.1//EN" "http://www.w3.org/Graphics/SVG/1.1/DTD/svg11.dtd">
<!-- Creator: CorelDRAW Standard 2020 -->
<svg xmlns="http://www.w3.org/2000/svg" xml:space="preserve" width="4.69048in" height="1.35115in" version="1.1" style="shape-rendering:geometricPrecision; text-rendering:geometricPrecision; image-rendering:optimizeQuality; fill-rule:evenodd; clip-rule:evenodd"
viewBox="0 0 54.79 15.78"
 xmlns:xlink="http://www.w3.org/1999/xlink"
 xmlns:xodm="http://www.corel.com/coreldraw/odm/2003">
 <defs>
  <style type="text/css">
   <![CDATA[
    .fil0 {fill:#F12727}
    .fil1 {fill:#F12727;fill-rule:nonzero}
   ]]>
  </style>
 </defs>
 <g id="Layer_x0020_1">
  <metadata id="CorelCorpID_0Corel-Layer"/>
  <path class="fil0" d="M4.69 12.7c1.4,-0.26 1.97,-0.49 1.72,-0.7 0,0 -0.81,0.12 -2.43,0.37 -2.17,0.23 -3.18,-0.32 -3.03,-1.66 0.44,0.08 0.89,-0.14 1.1,-0.53 0.22,-0.4 0.16,-0.88 -0.15,-1.22 2.54,-2.87 5.94,-4.75 9.93,-5.34 1.33,-0.15 2.46,0.57 2.08,1.74 -0.03,0.37 -0.25,0.88 -0.66,1.55 -0.12,0.39 0.21,0.61 0.54,0.16 1.39,-1.94 1,-3.38 -0.65,-3.97 -2.23,-0.61 -5.28,0.35 -9.15,2.87 -1.41,1.19 -2.3,2.1 -2.67,2.72 -0.5,-0.13 -1.01,0.12 -1.22,0.59 -0.21,0.47 -0.04,1.02 0.39,1.3 -0.07,1.99 1.34,2.7 4.21,2.11z"/>
  <path class="fil0" d="M12.87 7.82c-0.58,-0.64 -0.55,-0.63 -0.57,-0.3 0,0 0.21,0.26 0.85,1.06 1.3,1.62 0.98,2.88 0.26,3.45 -0.19,-0.41 -0.62,-0.65 -1.07,-0.6 -0.45,0.05 -0.81,0.38 -0.91,0.82l-0.64 -0.08 0.01 -0c0.02,-0.01 -0.05,0.6 -0.03,0.6 0.29,0.03 0.63,0.1 0.78,0.12 0.18,0.48 0.68,0.76 1.19,0.66 0.5,-0.1 0.86,-0.55 0.84,-1.07 1.38,-0.93 1.22,-2.52 -0.7,-4.66z"/>
  <path class="fil0" d="M2.44 3.02c1.45,-0.13 1.7,0.08 1.36,0.26 -2.51,0.1 -3.29,0.98 -2.33,2.72 0.41,0.65 0.61,0.97 0.61,0.97 0.1,0.16 -0.03,0.34 -0.38,0.55 -1.23,-1.42 -1.68,-2.49 -1.13,-3.51 0.33,-0.62 0.9,-0.85 1.86,-0.99z"/>
  <path class="fil0" d="M5.43 2.23c0.38,0.17 0.83,0.07 1.11,-0.25 0.28,-0.31 0.32,-0.77 0.11,-1.13 0.52,-0.46 1.18,-0.38 1.52,-0.04 0.44,0.33 0.82,0.96 1.18,1.9 0.41,0.01 0.67,-0.03 0.78,-0.12 -0.23,-0.64 -0.6,-1.36 -1.24,-1.97 -0.72,-0.68 -1.76,-0.9 -2.5,-0.18 -0.45,-0.27 -1.03,-0.25 -1.35,0.17 -0.32,0.42 -0.28,1.01 0.1,1.38 0,0 -0.02,0.03 -0.05,0.08 -0.51,1.05 -0.78,1.97 -0.81,2.77 0.11,-0.06 0.49,-0.93 1.15,-2.61z"/>
  <path class="fil0" d="M9.23 11.71c-0.04,0.2 -0.08,0.4 -0.13,0.61 -2.19,-0.5 -4.3,-1.71 -6.33,-3.61 0.15,-0.27 0.28,-0.43 0.41,-0.48 2.26,1.97 4.3,3.11 6.05,3.47z"/>
  <path class="fil0" d="M6.24 15.25c-1.32,-1.59 -1.45,-2.38 -0.78,-1.76 0.85,1.14 1.1,1.65 1.85,1.69 0.8,0.04 1.42,-0.6 2.21,-2.46 0.34,-1.03 0.6,-2.55 0.76,-4.56 -0.43,-0.17 -0.72,-0.58 -0.75,-1.04 -0.03,-0.46 0.22,-0.9 0.62,-1.12 0,0 -0.06,-0.58 -0.19,-1.74 0.49,-0.03 0.74,-0.04 0.74,-0.04 0.05,0.55 0.11,1.13 0.17,1.73 0.48,0.17 0.8,0.61 0.81,1.12 0.01,0.51 -0.29,0.97 -0.75,1.16 -0.11,2.91 -0.79,4.72 -1.27,5.79 -0.26,0.58 -0.74,1.14 -1.18,1.42 -0.86,0.55 -1.77,0.41 -2.24,-0.19z"/>
  <path class="fil1" d="M23.02 9.13c0,0.23 -0.03,0.45 -0.1,0.64 -0.07,0.19 -0.16,0.36 -0.27,0.5 -0.12,0.15 -0.26,0.27 -0.42,0.38 -0.16,0.11 -0.34,0.19 -0.54,0.26 -0.19,0.07 -0.4,0.12 -0.63,0.15 -0.22,0.03 -0.47,0.05 -0.74,0.05l-1.8 0c-0.11,0 -0.21,-0.03 -0.29,-0.1 -0.08,-0.07 -0.12,-0.17 -0.12,-0.32l0 -5.75c0,-0.15 0.04,-0.26 0.12,-0.32 0.08,-0.07 0.18,-0.1 0.29,-0.1l1.7 0c0.41,0 0.77,0.03 1.05,0.1 0.29,0.07 0.53,0.17 0.73,0.31 0.2,0.14 0.35,0.31 0.45,0.52 0.11,0.21 0.16,0.46 0.16,0.74 0,0.16 -0.02,0.31 -0.06,0.45 -0.04,0.14 -0.1,0.27 -0.18,0.38 -0.08,0.12 -0.18,0.22 -0.3,0.31 -0.12,0.09 -0.25,0.16 -0.4,0.21 0.19,0.03 0.37,0.09 0.53,0.18 0.16,0.09 0.3,0.19 0.42,0.33 0.12,0.13 0.22,0.29 0.29,0.47 0.07,0.18 0.11,0.38 0.11,0.61zm-1.78 -2.78c0,-0.13 -0.02,-0.25 -0.06,-0.36 -0.04,-0.1 -0.1,-0.19 -0.19,-0.26 -0.08,-0.07 -0.19,-0.12 -0.32,-0.16 -0.13,-0.04 -0.3,-0.06 -0.51,-0.06l-0.69 0 0 1.71 0.77 0c0.2,0 0.36,-0.02 0.48,-0.07 0.12,-0.05 0.22,-0.11 0.3,-0.19 0.08,-0.08 0.14,-0.17 0.18,-0.28 0.04,-0.11 0.06,-0.22 0.06,-0.34zm0.35 2.83c0,-0.15 -0.03,-0.29 -0.08,-0.41 -0.05,-0.12 -0.13,-0.22 -0.23,-0.3 -0.1,-0.08 -0.23,-0.14 -0.39,-0.19 -0.16,-0.04 -0.36,-0.07 -0.61,-0.07l-0.82 0 0 1.88 0.99 0c0.19,0 0.35,-0.02 0.48,-0.06 0.13,-0.04 0.24,-0.1 0.34,-0.17 0.09,-0.08 0.17,-0.17 0.23,-0.29 0.05,-0.11 0.08,-0.24 0.08,-0.39z"/>
  <path id="1" class="fil1" d="M25.51 10.93c0,0.03 -0.01,0.06 -0.03,0.09 -0.02,0.03 -0.06,0.05 -0.11,0.07 -0.05,0.02 -0.12,0.03 -0.21,0.04 -0.09,0.01 -0.2,0.02 -0.34,0.02 -0.13,0 -0.24,-0.01 -0.33,-0.02 -0.09,-0.01 -0.16,-0.02 -0.21,-0.04 -0.05,-0.02 -0.09,-0.04 -0.11,-0.07 -0.02,-0.03 -0.03,-0.06 -0.03,-0.09l0 -6.23c0,-0.03 0.01,-0.06 0.03,-0.09 0.02,-0.03 0.06,-0.05 0.12,-0.07 0.05,-0.02 0.12,-0.03 0.21,-0.04 0.09,-0.01 0.2,-0.02 0.33,-0.02 0.14,0 0.25,0.01 0.34,0.02 0.09,0.01 0.16,0.02 0.21,0.04 0.05,0.02 0.09,0.04 0.11,0.07 0.02,0.03 0.03,0.06 0.03,0.09l0 6.23z"/>
  <path id="2" class="fil1" d="M33.08 7.74c0,0.55 -0.07,1.03 -0.21,1.47 -0.14,0.43 -0.35,0.8 -0.62,1.1 -0.28,0.3 -0.62,0.53 -1.02,0.69 -0.41,0.16 -0.88,0.24 -1.41,0.24 -0.53,0 -0.99,-0.07 -1.38,-0.2 -0.39,-0.13 -0.72,-0.34 -0.98,-0.61 -0.26,-0.27 -0.46,-0.62 -0.59,-1.05 -0.13,-0.42 -0.2,-0.93 -0.2,-1.51 0,-0.53 0.07,-1.01 0.21,-1.44 0.14,-0.43 0.35,-0.79 0.62,-1.09 0.28,-0.3 0.62,-0.53 1.02,-0.69 0.41,-0.16 0.88,-0.24 1.42,-0.24 0.51,0 0.97,0.07 1.36,0.2 0.39,0.13 0.72,0.34 0.98,0.61 0.26,0.27 0.46,0.62 0.6,1.04 0.13,0.42 0.2,0.91 0.2,1.48zm-1.45 0.07c0,-0.35 -0.03,-0.66 -0.08,-0.94 -0.06,-0.28 -0.15,-0.53 -0.28,-0.73 -0.13,-0.2 -0.31,-0.36 -0.54,-0.47 -0.22,-0.11 -0.5,-0.17 -0.84,-0.17 -0.34,0 -0.62,0.06 -0.85,0.19 -0.23,0.12 -0.41,0.29 -0.55,0.5 -0.14,0.21 -0.24,0.45 -0.3,0.72 -0.06,0.28 -0.09,0.57 -0.09,0.88 0,0.36 0.03,0.68 0.08,0.97 0.06,0.29 0.15,0.53 0.28,0.74 0.13,0.2 0.31,0.36 0.53,0.47 0.22,0.11 0.5,0.16 0.84,0.16 0.34,0 0.62,-0.06 0.85,-0.18 0.23,-0.12 0.41,-0.29 0.55,-0.5 0.14,-0.21 0.24,-0.46 0.3,-0.74 0.06,-0.28 0.09,-0.58 0.09,-0.9z"/>
  <path id="3" class="fil1" d="M38.27 9.13c0,0.35 -0.07,0.65 -0.2,0.91 -0.13,0.26 -0.31,0.48 -0.54,0.65 -0.23,0.17 -0.49,0.31 -0.8,0.39 -0.3,0.09 -0.63,0.13 -0.98,0.13 -0.23,0 -0.45,-0.02 -0.65,-0.06 -0.2,-0.04 -0.38,-0.08 -0.53,-0.14 -0.15,-0.05 -0.28,-0.11 -0.39,-0.17 -0.1,-0.06 -0.18,-0.11 -0.22,-0.15 -0.04,-0.05 -0.08,-0.11 -0.1,-0.19 -0.02,-0.08 -0.03,-0.2 -0.03,-0.36 0,-0.11 0,-0.19 0.01,-0.26 0.01,-0.07 0.02,-0.13 0.03,-0.17 0.02,-0.04 0.04,-0.07 0.06,-0.09 0.03,-0.02 0.06,-0.03 0.09,-0.03 0.05,0 0.12,0.03 0.21,0.09 0.09,0.06 0.2,0.12 0.34,0.19 0.14,0.07 0.31,0.13 0.5,0.19 0.19,0.06 0.42,0.09 0.67,0.09 0.17,0 0.32,-0.02 0.45,-0.06 0.13,-0.04 0.25,-0.09 0.34,-0.17 0.09,-0.07 0.16,-0.16 0.21,-0.26 0.05,-0.1 0.07,-0.22 0.07,-0.35 0,-0.15 -0.04,-0.28 -0.13,-0.38 -0.08,-0.11 -0.19,-0.2 -0.33,-0.29 -0.13,-0.08 -0.29,-0.16 -0.46,-0.23 -0.17,-0.07 -0.35,-0.15 -0.53,-0.23 -0.18,-0.08 -0.36,-0.17 -0.53,-0.28 -0.17,-0.1 -0.33,-0.23 -0.46,-0.37 -0.14,-0.14 -0.24,-0.31 -0.33,-0.51 -0.08,-0.2 -0.13,-0.43 -0.13,-0.71 0,-0.31 0.06,-0.59 0.18,-0.83 0.12,-0.24 0.28,-0.44 0.49,-0.59 0.21,-0.16 0.45,-0.28 0.72,-0.35 0.28,-0.08 0.57,-0.12 0.88,-0.12 0.16,0 0.32,0.01 0.48,0.04 0.16,0.02 0.31,0.06 0.45,0.1 0.14,0.04 0.26,0.09 0.37,0.14 0.11,0.05 0.18,0.09 0.21,0.13 0.03,0.03 0.06,0.06 0.07,0.09 0.01,0.02 0.02,0.06 0.03,0.1 0.01,0.04 0.01,0.09 0.02,0.15 0,0.06 0.01,0.13 0.01,0.22 0,0.1 -0,0.18 -0.01,0.25 -0.01,0.07 -0.01,0.12 -0.03,0.17 -0.01,0.04 -0.03,0.08 -0.05,0.1 -0.02,0.02 -0.05,0.03 -0.09,0.03 -0.04,0 -0.1,-0.02 -0.18,-0.07 -0.08,-0.05 -0.19,-0.1 -0.31,-0.16 -0.12,-0.06 -0.26,-0.11 -0.43,-0.15 -0.16,-0.05 -0.34,-0.07 -0.53,-0.07 -0.15,0 -0.28,0.02 -0.39,0.05 -0.11,0.03 -0.2,0.09 -0.28,0.15 -0.08,0.06 -0.13,0.14 -0.17,0.23 -0.04,0.09 -0.06,0.18 -0.06,0.28 0,0.15 0.04,0.27 0.12,0.38 0.08,0.11 0.19,0.2 0.33,0.29 0.14,0.08 0.3,0.16 0.47,0.23 0.17,0.07 0.35,0.15 0.53,0.23 0.18,0.08 0.36,0.17 0.53,0.28 0.18,0.1 0.33,0.23 0.47,0.37 0.14,0.14 0.25,0.31 0.33,0.51 0.08,0.19 0.13,0.42 0.13,0.69z"/>
  <path id="4" class="fil1" d="M43.72 5.07c0,0.1 -0,0.18 -0.01,0.25 -0.01,0.07 -0.02,0.13 -0.04,0.17 -0.02,0.04 -0.04,0.07 -0.07,0.09 -0.03,0.02 -0.06,0.03 -0.09,0.03l-1.69 0 0 5.31c0,0.03 -0.01,0.06 -0.03,0.09 -0.02,0.03 -0.06,0.05 -0.11,0.07 -0.05,0.02 -0.12,0.03 -0.21,0.04 -0.09,0.01 -0.2,0.02 -0.33,0.02 -0.13,0 -0.24,-0.01 -0.33,-0.02 -0.09,-0.01 -0.16,-0.02 -0.21,-0.04 -0.05,-0.02 -0.09,-0.04 -0.11,-0.07 -0.02,-0.03 -0.03,-0.06 -0.03,-0.09l0 -5.31 -1.69 0c-0.03,0 -0.06,-0.01 -0.09,-0.03 -0.02,-0.02 -0.04,-0.05 -0.06,-0.09 -0.02,-0.04 -0.03,-0.1 -0.04,-0.17 -0.01,-0.07 -0.01,-0.15 -0.01,-0.25 0,-0.1 0,-0.19 0.01,-0.26 0.01,-0.07 0.02,-0.13 0.04,-0.17 0.02,-0.04 0.04,-0.07 0.06,-0.09 0.03,-0.02 0.06,-0.03 0.09,-0.03l4.77 0c0.03,0 0.06,0.01 0.09,0.03 0.03,0.02 0.05,0.05 0.07,0.09 0.02,0.04 0.03,0.1 0.04,0.17 0.01,0.07 0.01,0.16 0.01,0.26z"/>
  <path id="5" class="fil1" d="M48.54 10.58c0,0.1 -0,0.18 -0.01,0.25 -0.01,0.07 -0.02,0.12 -0.04,0.16 -0.02,0.04 -0.04,0.07 -0.07,0.09 -0.03,0.02 -0.06,0.03 -0.09,0.03l-3.4 0c-0.11,0 -0.21,-0.03 -0.29,-0.1 -0.08,-0.07 -0.12,-0.17 -0.12,-0.32l0 -5.75c0,-0.15 0.04,-0.26 0.12,-0.32 0.08,-0.07 0.18,-0.1 0.29,-0.1l3.38 0c0.03,0 0.06,0.01 0.08,0.03 0.02,0.02 0.04,0.05 0.06,0.09 0.02,0.04 0.03,0.1 0.04,0.16 0.01,0.07 0.01,0.15 0.01,0.25 0,0.1 -0,0.18 -0.01,0.24 -0.01,0.07 -0.02,0.12 -0.04,0.16 -0.02,0.04 -0.04,0.07 -0.06,0.09 -0.03,0.02 -0.05,0.03 -0.08,0.03l-2.42 0 0 1.61 2.04 0c0.03,0 0.06,0.01 0.09,0.03 0.03,0.02 0.05,0.05 0.07,0.09 0.02,0.04 0.03,0.09 0.04,0.16 0.01,0.07 0.01,0.15 0.01,0.24 0,0.1 -0,0.18 -0.01,0.25 -0.01,0.06 -0.02,0.12 -0.04,0.15 -0.02,0.04 -0.04,0.07 -0.07,0.08 -0.03,0.02 -0.05,0.03 -0.09,0.03l-2.04 0 0 1.86 2.44 0c0.03,0 0.06,0.01 0.09,0.03 0.03,0.02 0.05,0.05 0.07,0.09 0.02,0.04 0.03,0.09 0.04,0.16 0.01,0.07 0.01,0.15 0.01,0.25z"/>
  <path id="6" class="fil1" d="M54.79 10.94c0,0.04 -0.01,0.07 -0.02,0.09 -0.01,0.03 -0.05,0.05 -0.1,0.06 -0.05,0.02 -0.13,0.03 -0.23,0.03 -0.1,0.01 -0.24,0.01 -0.41,0.01 -0.15,0 -0.26,-0 -0.35,-0.01 -0.09,-0.01 -0.16,-0.02 -0.21,-0.04 -0.05,-0.02 -0.09,-0.04 -0.11,-0.07 -0.02,-0.03 -0.04,-0.06 -0.05,-0.1l-0.61 -1.48c-0.07,-0.17 -0.14,-0.32 -0.21,-0.44 -0.07,-0.13 -0.15,-0.24 -0.23,-0.33 -0.09,-0.09 -0.19,-0.15 -0.3,-0.2 -0.11,-0.04 -0.24,-0.07 -0.39,-0.07l-0.43 0 0 2.52c0,0.03 -0.01,0.06 -0.03,0.09 -0.02,0.03 -0.06,0.05 -0.11,0.07 -0.05,0.02 -0.12,0.03 -0.21,0.04 -0.09,0.01 -0.2,0.02 -0.33,0.02 -0.13,0 -0.24,-0.01 -0.33,-0.02 -0.09,-0.01 -0.16,-0.02 -0.21,-0.04 -0.05,-0.02 -0.09,-0.04 -0.11,-0.07 -0.02,-0.03 -0.03,-0.06 -0.03,-0.09l0 -5.99c0,-0.15 0.04,-0.26 0.12,-0.32 0.08,-0.07 0.18,-0.1 0.29,-0.1l1.76 0c0.18,0 0.33,0 0.44,0.01 0.11,0.01 0.22,0.02 0.31,0.02 0.27,0.04 0.52,0.1 0.73,0.19 0.22,0.09 0.4,0.21 0.56,0.36 0.15,0.15 0.27,0.32 0.35,0.52 0.08,0.2 0.12,0.43 0.12,0.7 0,0.22 -0.03,0.42 -0.09,0.6 -0.06,0.18 -0.14,0.34 -0.26,0.49 -0.11,0.14 -0.25,0.27 -0.41,0.37 -0.16,0.11 -0.35,0.19 -0.56,0.26 0.1,0.05 0.2,0.1 0.29,0.17 0.09,0.07 0.17,0.15 0.25,0.25 0.08,0.1 0.15,0.21 0.22,0.33 0.07,0.12 0.14,0.26 0.2,0.42l0.57 1.3c0.05,0.13 0.09,0.22 0.1,0.28 0.02,0.06 0.03,0.11 0.03,0.14zm-1.78 -4.48c0,-0.22 -0.05,-0.4 -0.15,-0.55 -0.1,-0.15 -0.27,-0.26 -0.5,-0.32 -0.07,-0.02 -0.15,-0.03 -0.24,-0.04 -0.09,-0.01 -0.21,-0.02 -0.37,-0.02l-0.62 0 0 1.87 0.7 0c0.2,0 0.37,-0.02 0.51,-0.07 0.15,-0.05 0.27,-0.11 0.37,-0.19 0.1,-0.08 0.17,-0.18 0.22,-0.3 0.05,-0.11 0.07,-0.24 0.07,-0.39z"/>
 </g>
</svg>
