<?xml version="1.0" encoding="UTF-8"?>
<!DOCTYPE svg PUBLIC "-//W3C//DTD SVG 1.1//EN" "http://www.w3.org/Graphics/SVG/1.1/DTD/svg11.dtd">
<!-- Creator: CorelDRAW Standard 2020 -->
<svg xmlns="http://www.w3.org/2000/svg" xml:space="preserve" width="6.25007in" height="0.770657in" version="1.1" style="shape-rendering:geometricPrecision; text-rendering:geometricPrecision; image-rendering:optimizeQuality; fill-rule:evenodd; clip-rule:evenodd"
viewBox="0 0 701.77 86.53"
 xmlns:xlink="http://www.w3.org/1999/xlink"
 xmlns:xodm="http://www.corel.com/coreldraw/odm/2003">
 <defs>
  <style type="text/css">
   <![CDATA[
    .fil0 {fill:#E40040}
    .fil1 {fill:white}
   ]]>
  </style>
 </defs>
 <g id="Layer_x0020_1">
  <metadata id="CorelCorpID_0Corel-Layer"/>
  <path class="fil0" d="M33.68 1.21c-20.54,4.93 -38.56,25.69 -32.49,52.41 12.13,53.4 96.57,38.26 84.67,-19.82 -4.2,-20.5 -26.65,-38.72 -52.19,-32.59z"/>
  <polygon class="fil0" points="634.23,67.72 651.51,67.71 654.35,42.52 662.51,67.81 672.84,67.8 676.12,58.99 682.33,42.6 684.54,67.62 701.77,67.7 693.82,17.59 675.57,17.51 667.87,42.95 660.51,17.69 641.67,17.45 "/>
  <path class="fil0" d="M366.41 17.45c-36.15,7.55 -23.31,60.18 15.29,49.39 32.63,-9.12 21.5,-57.08 -15.29,-49.39zm3.29 16.41c-11.87,5.23 -4.98,22.81 7.6,17.64 10.78,-4.43 3.59,-22.58 -7.6,-17.64z"/>
  <path class="fil0" d="M484.9 17.53c-36.29,9.55 -22.2,59.72 15.3,50.16 34.33,-8.75 20.01,-59.45 -15.3,-50.16zm3.6 16.64c-2.03,0.74 -3.86,1.54 -5.41,5.31 -0.96,3.03 -0.73,5.31 0.44,8.04 1.98,4.63 7.72,6.94 13.3,4.21 8.75,-4.28 5.07,-22.47 -8.33,-17.56z"/>
  <path class="fil0" d="M264.58 67.69l27.04 -0.16c12.64,-0.07 21.37,-8.99 21.34,-24.49 -0.03,-16.16 -10.45,-25.61 -24.61,-25.61l-23.76 0 -0.01 50.26z"/>
  <path class="fil0" d="M407.43 67.81l17.08 -0.08 -0.45 -25.59 16.55 25.82 17.21 -0.19 0.1 -49.66 -17.53 -0.52 0.83 26.94c-3.22,-4.38 -13.89,-21.61 -15.93,-27.12l-17.94 0 0.07 50.41z"/>
  <path class="fil0" d="M213.65 67.68l17.43 -0.05 0.34 -15.05 8.66 15.05 20.13 0.03c-1.55,-4.29 -10.25,-16.67 -12.51,-19.05 4.47,-3.7 8.53,-4.17 9.42,-12.19 1.44,-12.95 -7.13,-19.06 -18.21,-19.05l-25.29 0.02 0.03 50.3zm17.29 -37.86c2.8,-0.57 4.54,-0.21 6.17,1.12 1.83,1.49 1.84,4.7 0.08,6.27 -1.53,1.36 -3.47,1.42 -6.14,1.27 0,0 -0.04,-2.89 -0.11,-8.67z"/>
  <path class="fil0" d="M627.51 17.7l-18.52 -0.32c0.13,9.3 3.21,30.51 -2.52,35.36 -7.62,6.46 -7.72,-10.15 -7.37,-34.85l-18.19 -0.56c-0,24.24 -6.2,51.27 22.77,51.6 30.19,0.34 23.83,-26.38 23.83,-51.23z"/>
  <path class="fil0" d="M153.96 67.61l18.26 -0.04 3.09 -5.8 12.5 -0.17 2.71 6.12 18.57 -0.01 -15.2 -44.69c-1.57,-3.24 -2.12,-5.64 -3.5,-5.64l-19.34 0.07 -17.1 50.17zm23.31 -19.76c3.85,0.17 6.81,0.28 8.24,-0.1 -1.98,-8.25 -3.27,-13.18 -3.96,-15.06 0,0 -1.88,5.51 -4.28,15.17z"/>
  <path class="fil1" d="M25.82 62.94l19.55 16.1 34.23 -37.36c3.61,-6.15 3,-12.89 -1.55,-17.05 -11.9,-10.89 -25.76,8.37 -29.57,12.75l-22.66 25.56z"/>
  <polygon class="fil0" points="541.76,67.86 557.15,67.82 576.84,17.76 557.46,17.49 549.26,46.85 541.47,17.88 522.54,17.33 "/>
  <path class="fil0" d="M151.41 67.05l0.53 -17.87c-26.08,11.43 -22.86,-13.75 -15.06,-15.85 7.91,-2.14 9.35,0.32 15.04,3.44l-0.13 -9.49 -0.09 -8.15c-0.01,-0.59 -1.96,-1.01 -2.48,-1.19 -2.79,-0.97 -10.01,-1.34 -16.05,-0.4 -19.67,3.86 -28.68,29.79 -11.47,45.22 8.68,7.61 17.31,6.03 29.71,4.3z"/>
  <path class="fil1" d="M20.28 57.26c3.91,-2.12 16.2,-14.87 18.35,-18.56 13.36,-22.91 -33.45,-29.32 -33.43,-2.81 0.01,9.24 10.62,17.1 15.08,21.37z"/>
  <polygon class="fil0" points="320,67.73 337.97,67.73 338.12,18.13 319.94,17.29 "/>
  <path class="fil1" d="M282.76 52.58c16.53,0.84 16.71,-19.58 0.11,-19.09l-0.11 19.09z"/>
 </g>
</svg>
