<?xml version="1.0" encoding="UTF-8"?>
<!DOCTYPE svg PUBLIC "-//W3C//DTD SVG 1.1//EN" "http://www.w3.org/Graphics/SVG/1.1/DTD/svg11.dtd">
<!-- Creator: CorelDRAW Standard 2020 -->
<svg xmlns="http://www.w3.org/2000/svg" xml:space="preserve" width="6.91644in" height="0.852823in" version="1.1" style="shape-rendering:geometricPrecision; text-rendering:geometricPrecision; image-rendering:optimizeQuality; fill-rule:evenodd; clip-rule:evenodd"
viewBox="0 0 550.45 67.87"
 xmlns:xlink="http://www.w3.org/1999/xlink"
 xmlns:xodm="http://www.corel.com/coreldraw/odm/2003">
 <defs>
  <style type="text/css">
   <![CDATA[
    .fil0 {fill:#E40040}
    .fil1 {fill:white}
   ]]>
  </style>
 </defs>
 <g id="Layer_x0020_1">
  <metadata id="CorelCorpID_0Corel-Layer"/>
  <path class="fil0" d="M26.42 0.95c-16.11,3.87 -30.24,20.15 -25.48,41.11 9.51,41.88 75.75,30.01 66.41,-15.55 -3.29,-16.08 -20.91,-30.37 -40.93,-25.57z"/>
  <polygon class="fil0" points="497.47,53.11 511.02,53.11 513.25,33.35 519.65,53.19 527.75,53.18 530.33,46.27 535.2,33.42 536.94,53.04 550.45,53.1 544.21,13.8 529.9,13.74 523.86,33.69 518.09,13.88 503.31,13.69 "/>
  <path class="fil0" d="M287.4 13.69c-28.35,5.92 -18.28,47.2 11.99,38.74 25.59,-7.16 16.86,-44.77 -11.99,-38.74zm2.58 12.87c-9.31,4.1 -3.91,17.89 5.96,13.84 8.46,-3.47 2.81,-17.71 -5.96,-13.84z"/>
  <path class="fil0" d="M380.34 13.75c-28.47,7.49 -17.41,46.85 12,39.35 26.93,-6.86 15.69,-46.63 -12,-39.35zm2.82 13.05c-1.59,0.58 -3.03,1.21 -4.24,4.16 -0.75,2.38 -0.57,4.16 0.34,6.31 1.55,3.63 6.06,5.44 10.43,3.3 6.86,-3.36 3.98,-17.62 -6.53,-13.77z"/>
  <path class="fil0" d="M207.53 53.09l21.21 -0.12c9.91,-0.06 16.76,-7.05 16.74,-19.21 -0.03,-12.67 -8.19,-20.09 -19.3,-20.09l-18.64 0 -0.01 39.42zm14.26 -11.85c12.96,0.66 13.11,-15.36 0.09,-14.98l-0.09 14.98z"/>
  <path class="fil0" d="M319.57 53.19l13.4 -0.06 -0.35 -20.08 12.98 20.25 13.5 -0.15 0.08 -38.95 -13.75 -0.41 0.65 21.13c-2.53,-3.44 -10.89,-16.95 -12.49,-21.28l-14.07 0 0.05 39.54z"/>
  <path class="fil0" d="M167.58 53.09l13.67 -0.04 0.26 -11.8 6.79 11.81 15.79 0.02c-1.22,-3.37 -8.04,-13.08 -9.81,-14.95 3.51,-2.9 6.69,-3.27 7.39,-9.56 1.13,-10.16 -5.59,-14.95 -14.29,-14.94l-19.83 0.02 0.02 39.45zm13.56 -29.69c2.2,-0.45 3.56,-0.16 4.84,0.88 1.44,1.17 1.44,3.69 0.06,4.92 -1.2,1.07 -2.73,1.12 -4.82,1 0,0 -0.03,-2.27 -0.08,-6.8z"/>
  <path class="fil0" d="M492.2 13.88l-14.53 -0.25c0.1,7.29 2.52,23.93 -1.98,27.74 -5.98,5.06 -6.05,-7.96 -5.78,-27.34l-14.27 -0.44c-0,19.01 -4.86,40.21 17.86,40.47 23.68,0.27 18.69,-20.69 18.69,-40.18z"/>
  <path class="fil0" d="M120.77 53.03l14.32 -0.03 2.43 -4.55 9.81 -0.14 2.12 4.8 14.57 -0.01 -11.92 -35.06c-1.23,-2.54 -1.66,-4.43 -2.75,-4.42l-15.17 0.05 -13.41 39.35zm18.28 -15.5c3.02,0.13 5.34,0.22 6.47,-0.08 -1.56,-6.47 -2.57,-10.34 -3.11,-11.81 0,0 -1.48,4.32 -3.36,11.9z"/>
  <path class="fil1" d="M20.26 49.37l15.33 12.63 26.85 -29.31c2.83,-4.82 2.35,-10.11 -1.22,-13.37 -9.34,-8.54 -20.2,6.56 -23.19,10l-17.77 20.05z"/>
  <polygon class="fil0" points="424.94,53.22 437.01,53.2 452.46,13.93 437.25,13.72 430.82,36.75 424.72,14.02 409.86,13.59 "/>
  <path class="fil0" d="M118.76 52.59l0.41 -14.02c-20.46,8.96 -17.93,-10.78 -11.81,-12.43 6.21,-1.68 7.33,0.25 11.8,2.69l-0.1 -7.44 -0.07 -6.39c-0.01,-0.47 -1.53,-0.79 -1.95,-0.93 -2.19,-0.76 -7.85,-1.05 -12.59,-0.31 -15.43,3.03 -22.5,23.36 -9,35.47 6.81,5.97 13.58,4.73 23.31,3.37z"/>
  <path class="fil1" d="M15.91 44.91c3.07,-1.66 12.71,-11.66 14.4,-14.56 10.48,-17.97 -26.24,-23 -26.22,-2.2 0.01,7.25 8.33,13.42 11.83,16.76z"/>
  <polygon class="fil0" points="251,53.13 265.1,53.12 265.21,14.22 250.95,13.56 "/>
 </g>
</svg>
