<?xml version="1.0" encoding="UTF-8"?>
<!DOCTYPE svg PUBLIC "-//W3C//DTD SVG 1.1//EN" "http://www.w3.org/Graphics/SVG/1.1/DTD/svg11.dtd">
<!-- Creator: CorelDRAW Standard 2020 -->
<svg xmlns="http://www.w3.org/2000/svg" xml:space="preserve" width="6.37085in" height="0.508559in" version="1.1" style="shape-rendering:geometricPrecision; text-rendering:geometricPrecision; image-rendering:optimizeQuality; fill-rule:evenodd; clip-rule:evenodd"
viewBox="0 0 167.49 13.37"
 xmlns:xlink="http://www.w3.org/1999/xlink"
 xmlns:xodm="http://www.corel.com/coreldraw/odm/2003">
 <defs>
  <style type="text/css">
   <![CDATA[
    .fil1 {fill:black}
    .fil0 {fill:#109EC6}
    .fil2 {fill:#FB0020}
   ]]>
  </style>
 </defs>
 <g id="Layer_x0020_1">
  <metadata id="CorelCorpID_0Corel-Layer"/>
  <path class="fil0" d="M90.14 6.65c0,3.47 2.28,6.69 5.92,6.69 3.07,0 5.29,-1.27 6.26,-4.15 1.17,-3.47 -0.16,-8.14 -4.57,-9.05 -1.32,-0.27 -3.03,-0.04 -4.03,0.45 -2.32,1.12 -3.58,3.47 -3.58,6.07zm6.3 -4.31c1.9,0 3.44,1.94 3.44,4.34 0,2.4 -1.54,4.34 -3.44,4.34 -1.9,0 -3.44,-1.94 -3.44,-4.34 0,-2.4 1.54,-4.34 3.44,-4.34z"/>
  <path class="fil0" d="M116.79 6.1c0,2.13 0.15,3.84 1.73,5.4 1.47,1.46 2.72,1.84 4.85,1.84 5.7,0 7.63,-7.58 4.3,-11.32 -2.52,-2.83 -8.08,-2.99 -10.26,1.52 -0.3,0.62 -0.62,1.7 -0.62,2.56zm6.26 -3.77c1.9,0 3.44,1.94 3.44,4.34 0,2.4 -1.54,4.34 -3.44,4.34 -1.9,0 -3.44,-1.94 -3.44,-4.34 0,-2.4 1.54,-4.34 3.44,-4.34z"/>
  <path class="fil0" d="M104.28 0.62l0 12.39 2.74 0 0 -8.33c0.1,0.12 0.02,0.02 0.14,0.19 1.33,1.98 3.04,4.89 4.38,7.03 0.17,0.28 0.57,0.85 0.64,1.12l2.96 0 0 -12.72 -2.74 0 0 8.33 -4.67 -7.39c-0.72,-1.19 -0.2,-0.94 -3.12,-0.94 -0.25,0 -0.33,0.08 -0.33,0.33z"/>
  <path class="fil0" d="M78.62 3.91c0,3.12 3.45,3.46 5.75,4.12 2.72,0.78 1.87,2.44 0.86,2.83 -1.15,0.44 -4.2,0.6 -4.2,-2.12 -2.87,0 -3,-0.25 -2.78,0.79 0.21,0.99 0.51,1.85 1.34,2.51 3.02,2.43 9.34,1.44 9.34,-2.54 0,-4.14 -3.96,-3.65 -6.69,-4.82 -0.74,-0.32 -0.77,-0.43 -0.77,-1.21 0,-1.53 3.62,-1.73 4.14,0.02 0.28,0.94 -0.27,0.74 2.87,0.74 0,-3.04 -2.16,-4.11 -4.96,-4.21 -2.45,-0.09 -4.9,1.4 -4.9,3.89z"/>
  <path class="fil0" d="M130.93 3.8c0,3.95 4.73,3.48 6.84,4.67 0.61,0.35 0.9,1.1 0.51,1.8 -0.13,0.23 -0.52,0.5 -0.82,0.61 -1.05,0.39 -3.42,0.38 -4.02,-1.16 -0.44,-1.14 0.9,-0.99 -2.96,-0.99 0,6.31 10.75,5.83 10.75,0.66 0,-4.95 -7.46,-3.65 -7.46,-5.37 0,-1.03 0.17,-1.75 1.97,-1.75 0.6,0 1.27,0.19 1.62,0.46 0.44,0.35 0.63,0.81 0.68,1.51 0.51,0 1.02,-0 1.54,0 0.76,0.01 1.21,0.18 1.21,-0.44 0,-5.01 -9.87,-5.07 -9.87,0z"/>
  <path class="fil0" d="M158.24 0.62l0 12.39 9.21 0c0,-1.48 0.22,-2.41 -0.33,-2.41l-5.92 0 0 -2.96 5.7 0 0 -2.3 -5.7 0 0 -2.52 6.03 0 0 -2.52 -8.66 0c-0.25,0 -0.33,0.08 -0.33,0.33z"/>
  <path class="fil0" d="M147.38 2.48c0,0.25 0.08,0.33 0.33,0.33l2.85 0 0 10.2 2.85 0 0 -10.2 2.96 0c0.56,0 0.33,-1.01 0.33,-2.52l-9.32 0 0 2.19z"/>
  <polygon class="fil0" points="142.88,13.01 145.74,13.01 145.74,0.29 142.88,0.29 "/>
  <path class="fil1" d="M56.36 3.01l0 9.65c0,0.44 0.31,0.33 1.1,0.33 0.52,0 0.33,-0.89 0.33,-1.86l0 -6.91c0.3,0.35 1.59,5.83 1.75,6.47 0.15,0.61 0.5,1.7 0.55,2.3 2.93,0 2.1,0.8 3.84,-6.14 0.13,-0.53 0.43,-2.24 0.77,-2.63l0 8.77c1.18,0 2.74,0.26 2.74,-0.55l0 -10.42c-4.82,0 -3.89,-0.6 -4.91,3.53l-1.01 4.47c-0.3,-0.22 -0.23,-0.43 -0.33,-0.88l-1.16 -5.2c-0.52,-2.36 0.07,-1.93 -2.68,-1.93 -0.76,0 -0.99,0.23 -0.99,0.99z"/>
  <path class="fil1" d="M8.99 2.13c-0.26,1.11 -0.11,6.57 -0.11,8.11 0,1.12 0.47,1.75 1.14,2.26 1.61,1.23 8.18,1.53 8.18,-1.93l0 -8.55c-1.57,0 -2.06,-0.2 -2.85,0.33l-0.01 8.54c-0.22,1.63 -3.61,1.79 -3.61,-0.32l0 -8.55c-0.66,0 -2.25,-0.08 -2.74,0.11z"/>
  <path class="fil1" d="M32.24 8.05l1.97 0 0 4.93c1.28,0 2.96,0.27 2.96,-0.55l0 -4.39 3.84 0c0.46,0 0.33,-0.38 0.33,-1.32l-4.17 0c0,-1.03 -0.12,-2.31 0.11,-3.29 1.73,-0.4 4.28,0.31 4.28,-0.44l0 -0.99 -5.81 0c-1.92,0 -1.55,1.02 -1.53,3.18 0.01,1.32 0.11,1.13 -0.67,1.74 -0.31,0.24 -1.13,0.85 -1.3,1.11z"/>
  <path class="fil1" d="M-0 3.34l0 9.65c1.13,0 2.96,0.25 2.96,-0.44l0 -4.5 3.84 0c0.57,0 0.44,-0.69 0.44,-1.32l-4.28 0c0,-3.93 -0.56,-3.43 3.29,-3.4 1.35,0.01 1.21,0.22 1.21,-1.32l-6.03 0c-0.88,0 -1.43,0.42 -1.43,1.32z"/>
  <path class="fil1" d="M48.69 2.13c-0.26,1.12 -0.11,7.96 -0.11,9.65 0,0.72 0.79,1.21 1.54,1.21l4.72 0c0.43,0 0.33,-0.28 0.33,-0.99 0,-0.53 -1.03,-0.33 -1.54,-0.33 -0.62,0 -1.24,0 -1.86,0 -0.5,-0.74 -0.33,-0.99 -0.33,-2.19l0 -6.47c0.02,-1.06 0.28,-1.19 -2.75,-0.87z"/>
  <path class="fil1" d="M20.73 12.11l-1.43 0c0,1.54 -0.45,1.21 2.74,1.21 2.14,0 4.06,-1.28 4.06,-3.4l0 -7.9c-3.54,0 -2.85,-0.83 -2.85,5.92 0,2.79 0.43,4.17 -2.52,4.17z"/>
  <path class="fil1" d="M43.1 3.01l0 9.65c0,0.55 0.93,0.33 2.41,0.33 0.26,0 0.55,-0.29 0.55,-0.55l0 -10.09c0,-0.52 -0.67,-0.33 -1.97,-0.33 -0.76,0 -0.99,0.23 -0.99,0.99z"/>
  <path class="fil1" d="M28.73 7.94l-0.11 0c-0.28,0.59 -0.1,2.84 -0.11,3.73 -0.01,1.57 -0.5,1.32 2.63,1.32 0.44,-0.66 0.33,-0.6 0.33,-1.64 -0.02,-4.11 0.73,-3.4 -2.74,-3.4z"/>
  <path class="fil2" d="M28.62 7.94l0.11 0c0.16,-0.22 0.91,-0.78 1.19,-1l1.24 -0.95c0.45,-0.4 0.31,-1.08 0.31,-1.89 -0,-0.48 0.19,-1.82 -0.16,-2.03 -0.18,-0.11 -1.83,-0.08 -2.12,-0.03 -0.76,0.12 -0.68,0.64 -0.68,1.52 0,0.39 -0.11,4.04 0.11,4.39z"/>
 </g>
</svg>
