<?xml version="1.0" encoding="UTF-8"?>
<!DOCTYPE svg PUBLIC "-//W3C//DTD SVG 1.1//EN" "http://www.w3.org/Graphics/SVG/1.1/DTD/svg11.dtd">
<!-- Creator: CorelDRAW Standard 2020 -->
<svg xmlns="http://www.w3.org/2000/svg" xml:space="preserve" width="4.87481in" height="0.93485in" version="1.1" style="shape-rendering:geometricPrecision; text-rendering:geometricPrecision; image-rendering:optimizeQuality; fill-rule:evenodd; clip-rule:evenodd"
viewBox="0 0 91.82 17.61"
 xmlns:xlink="http://www.w3.org/1999/xlink"
 xmlns:xodm="http://www.corel.com/coreldraw/odm/2003">
 <defs>
  <style type="text/css">
   <![CDATA[
    .fil0 {fill:#2D4392;fill-rule:nonzero}
   ]]>
  </style>
 </defs>
 <g id="Layer_x0020_1">
  <metadata id="CorelCorpID_0Corel-Layer"/>
  <path class="fil0" d="M77.4 8.01c2.2,0 4.03,-1.82 4.03,-3.99 0,-2.2 -1.82,-4.03 -4.03,-4.03 -2.25,0 -4.07,1.82 -4.07,4.03 0,2.16 1.82,3.99 4.07,3.99zm-3.01 -2.21c-0.17,-0.85 1.1,-1.31 1.36,-1.36 0.17,0 0.64,-0.08 0.93,-0.17l0.17 0c0.04,-0.3 0.13,-1.1 0.17,-1.27 0.08,-0.17 0.17,-0.72 0.25,-0.85 0,0 0.25,-0.51 -0.08,-0.34 0,0 -0.3,0.21 -0.85,0.17 -0.55,0 -1.06,-0.04 -1.27,0.08 -0.17,0.13 -0.13,0.38 0.17,0.51 0.38,0.17 0.81,0.3 0.98,0.3 0.17,0.04 -0.13,0.3 -0.3,0.34 -0.42,0 -0.81,-0.13 -1.02,-0.25 -0.34,-0.13 -0.59,-0.34 -0.51,-0.59 0.09,-0.25 0.38,-0.51 0.98,-0.85 0.38,-0.17 1.1,-0.09 1.48,-0.09 0.42,-0.04 0.68,-0.08 0.81,-0.08 0.17,-0.04 0.21,0.08 0.13,0.51 -0.08,0.38 -0.34,1.31 -0.34,2.33l0.3 0c0.13,0 0.47,0.09 0.68,-0.13 0.08,-0.09 0.08,-0.64 0.08,-0.76 0.04,-0.17 0.13,-0.42 0.17,-0.68 0.08,-0.25 0.17,-0.47 0.17,-0.47 0.04,-0.13 0.13,-0.38 0.21,-0.55 0.04,-0.13 0.08,-0.17 0.26,-0.3 0.17,-0.13 0.3,0 0.3,0 0,0.04 0.08,0.17 0.17,0.42 0.13,0.3 0.08,1.06 0.08,1.19 -0.04,0.13 -0.17,0.51 -0.21,0.64 -0.04,0.13 -0.25,0.38 -0.25,0.38 -0.13,0.25 -0.34,0.42 -0.55,0.55 0,0.21 0,0.64 0.04,0.93 0,0.13 0.04,0.25 0.08,0.34 0.38,-0.51 0.68,-0.93 0.81,-1.02 0.04,-0.08 0.13,-0.08 0.13,-0.08 0.04,0.04 0.17,0.08 0.09,0.21 -0.09,0.08 -0.42,0.55 -0.76,1.02 0.09,0.04 0.21,0.04 0.3,0.04 0.47,0 0.72,-0.51 0.76,-0.64 0.09,-0.13 0.25,-0.17 0.17,0.04 -0.04,0.21 -0.34,1.1 -1.1,1.1 -0.17,0 -0.34,-0.04 -0.42,-0.09 -0.3,0.42 -0.55,0.76 -0.64,0.89 -0.09,0.04 -0.13,0.04 -0.17,0 -0.04,0 -0.08,-0.04 -0.04,-0.09 0.04,-0.13 0.3,-0.51 0.59,-0.93 -0.25,-0.17 -0.34,-0.47 -0.34,-0.72l0 -0.81c0,0 -0.55,0.04 -0.76,0.08l-0.25 0c0,0 -0.17,0.21 -0.25,0.34 -0.38,0.55 -0.89,0.72 -1.06,0.81 -0.17,0.08 -1.44,0.55 -1.61,-0.13zm4.92 -2.16c0.34,-0.42 0.17,-1.36 0.17,-1.36 -0.04,-0.38 -0.21,-0.25 -0.3,0.13 -0.04,0.21 -0.3,1.06 -0.3,1.44 0,0.25 0.42,-0.21 0.42,-0.21zm-2.93 1.7c0.21,-0.21 0.25,-0.47 0.21,-0.47 0,-0.04 -0.17,0 -0.38,0 -0.51,0.04 -0.85,0.17 -0.85,0.17 0,0 -0.38,0.04 -0.38,0.3 -0.04,0.3 0.25,0.3 0.38,0.3 0.3,0 0.72,0.04 1.02,-0.3z"/>
  <polygon class="fil0" points="56.88,7.93 59.43,7.93 59.43,0.21 56.88,0.21 "/>
  <polygon class="fil0" points="30.74,17.39 33.29,17.39 33.29,9.67 30.74,9.67 "/>
  <polygon class="fil0" points="64.77,0.21 64.77,1.91 67.99,1.91 67.99,7.93 70.53,7.93 70.53,1.91 73.67,1.91 73.67,0.21 "/>
  <polygon class="fil0" points="29.62,0.21 29.62,3.01 25.29,3.01 25.29,0.21 22.71,0.21 22.71,7.93 25.29,7.93 25.29,4.71 29.62,4.71 29.62,7.93 32.16,7.93 32.16,0.21 "/>
  <polygon class="fil0" points="60.19,0.21 60.19,7.93 67.19,7.93 67.19,5.89 62.73,5.89 62.73,0.21 "/>
  <polygon class="fil0" points="60.72,15.35 56.27,15.35 56.27,9.67 53.73,9.67 53.73,17.39 60.72,17.39 "/>
  <polygon class="fil0" points="89.23,0.21 89.23,5.05 85.12,0.21 81.69,0.21 81.69,7.93 84.27,7.93 84.27,3.05 88.09,7.93 91.82,7.93 91.82,0.21 "/>
  <polygon class="fil0" points="51.88,0.21 50.01,5 48.15,0.21 43.82,0.21 43.82,7.93 46.37,7.93 46.37,2.37 48.44,7.93 51.58,7.93 53.7,2.2 53.7,7.93 56.29,7.93 56.29,0.21 "/>
  <polygon class="fil0" points="8.06,9.67 6.19,14.46 4.33,9.67 -0,9.67 -0,17.39 2.55,17.39 2.55,11.83 4.62,17.39 7.76,17.39 9.88,11.66 9.88,17.39 12.47,17.39 12.47,9.67 "/>
  <path class="fil0" d="M36.49 0.21l-3.9 7.72 2.76 0 0.68 -1.44 3.94 0 0 -0.09 0.72 1.53 2.71 0 -3.9 -7.72 -3.01 0zm1.53 2.2l1.15 2.33 -2.29 0 1.14 -2.33z"/>
  <path class="fil0" d="M50 15.86l0.72 1.53 2.71 0 -3.9 -7.72 -3.01 0 -3.9 7.72 2.76 0 0.68 -1.44 3.94 0 0 -0.08zm-3.09 -1.65l1.14 -2.33 1.14 2.33 -2.29 0z"/>
  <polygon class="fil0" points="13.03,9.71 20.62,9.71 20.62,11.6 15.8,11.6 15.8,12.52 20.57,12.52 20.57,14.41 15.8,14.41 15.8,15.42 20.85,15.42 20.85,17.41 13.03,17.41 "/>
  <path class="fil0" d="M25.95 9.7c3,0 4.56,1.37 4.56,3.86 0,2.49 -1.55,3.85 -4.56,3.85l-4.59 0 0 -7.71 4.59 0zm-1.82 5.66l1.38 0c1.37,0 2.01,-0.49 2.01,-1.88 0,-1.37 -0.63,-1.88 -2.01,-1.88l-1.38 0 0 3.75z"/>
  <path class="fil0" d="M38.58 11.48c-1.19,0 -1.84,0.73 -1.84,2.08 0,1.35 0.64,2.07 1.84,2.07 0.85,0 1.39,-0.41 1.56,-1.25l3.2 0c-0.29,2.11 -1.9,3.23 -4.76,3.23 -3.2,0 -4.82,-1.39 -4.82,-4.05 0,-2.66 1.62,-4.05 4.82,-4.05 3,0 4.64,1.24 4.74,3.44l-3.17 0c-0.09,-0.95 -0.64,-1.46 -1.57,-1.46z"/>
 </g>
</svg>
