<?xml version="1.0" encoding="UTF-8"?>
<!DOCTYPE svg PUBLIC "-//W3C//DTD SVG 1.1//EN" "http://www.w3.org/Graphics/SVG/1.1/DTD/svg11.dtd">
<!-- Creator: CorelDRAW Standard 2020 -->
<svg xmlns="http://www.w3.org/2000/svg" xml:space="preserve" width="4.7518in" height="0.883327in" version="1.1" style="shape-rendering:geometricPrecision; text-rendering:geometricPrecision; image-rendering:optimizeQuality; fill-rule:evenodd; clip-rule:evenodd"
viewBox="0 0 112.86 20.98"
 xmlns:xlink="http://www.w3.org/1999/xlink"
 xmlns:xodm="http://www.corel.com/coreldraw/odm/2003">
 <defs>
  <style type="text/css">
   <![CDATA[
    .fil0 {fill:#0456AC}
   ]]>
  </style>
 </defs>
 <g id="Layer_x0020_1">
  <metadata id="CorelCorpID_0Corel-Layer"/>
  <g id="_820035184">
   <path class="fil0" d="M19.99 16.05c0,3.51 1.61,4.92 4.99,4.92 2.24,0 3.07,-0.7 4.76,-1.28 0.81,1.17 0.3,0.89 3.3,0.9l-0 -13.64 -4.49 0.01 0 9.55c-0.14,0.55 -3.77,2.01 -4.05,-0.46l-0.02 -9.03 -4.49 -0.04 0 9.06z"/>
   <path class="fil0" d="M17.96 20.35l0.03 -3.76c-1.38,0.31 -2.83,0.94 -4.38,0.38 -1.27,-0.46 -1.78,-1.77 -1.75,-3.38 0.03,-1.71 0.53,-2.75 1.81,-3.17 1.61,-0.52 2.92,0.1 4.3,0.39l0.01 -3.73c-5.6,-1.61 -10.49,-0.47 -10.49,6.66 0,4.85 2.22,7.11 6.57,7.18 1.95,0.03 2.3,-0.29 3.89,-0.58z"/>
   <path class="fil0" d="M0.52 17.13c0,2.33 1.75,4.01 4.18,3.84l1.19 -0.07c0.28,-0.83 0.12,-2.37 0.12,-3.31 -0.09,-0.31 -0.5,-0.27 -0.81,-0.5 -0.35,-0.26 -0.3,-0.43 -0.3,-0.89l0 -9.22 -4.37 0 0 10.14z"/>
   <path class="fil0" d="M36.81 8.07c-0.44,-0.73 0,-0.83 -0.8,-0.97l0 13.86 0.88 0 0 -12.07c0.98,-0.83 2.64,-1.17 4.23,-1.18 2.11,-0.02 3.02,0.3 3.17,2.42 0.24,3.27 0.02,7.46 0.02,10.84l0.88 0c-0,-3.73 0.25,-8.41 -0.14,-12.02 1.51,-0.52 2.09,-1.16 4.2,-1.23 2.08,-0.06 3.13,0.17 3.32,2.26 0.3,3.09 0.02,7.73 0.02,10.99l0.88 0c0,-2.49 0.31,-9.99 -0.16,-11.91 -0.42,-1.75 -2.08,-2.16 -3.92,-2.1 -2.3,0.07 -2.97,0.8 -4.6,1.41 -2.6,-2.54 -5.06,-1.25 -7.99,-0.29z"/>
   <path class="fil0" d="M78.68 18.34c-0.18,1.4 -4.11,1.57 -5.3,1.51 -1.79,-0.09 -2.93,-0.83 -3.59,-1.92 -1.42,-2.32 -1.29,-7.19 0.34,-9.11 1.59,-1.88 6.67,-1.79 8.52,-0.2l0.03 9.73zm-0.01 -10.62c-0.96,-0.12 -1.7,-1.04 -5.15,-1.04 -6.86,0 -5.97,8.88 -4.8,11.25 1.93,3.91 6.92,2.8 10.02,1.54 0.21,0.5 0.14,0.82 0.61,1 0.18,-0.26 0.15,-0.04 0.15,-0.58l0 -19.89c-1.23,0.02 -0.84,0.06 -0.84,3.46 0,1.42 0,2.84 0,4.26z"/>
   <path class="fil0" d="M56.86 13.52c0.31,-1.6 0.04,-2.83 1.08,-4.15 0.73,-0.94 1.93,-1.61 3.61,-1.65 3.9,-0.11 4.6,2.26 4.61,5.88l-9.29 -0.08zm9.51 6.07c-2.62,0.24 -9.45,2.94 -9.51,-5.15l10.1 -0.08c0,-3.59 -0.2,-6.62 -3.69,-7.26 -8.55,-1.58 -7.89,8.23 -6.61,11.07 0.98,2.18 3.06,2.85 5.5,2.79 0.87,-0.02 1.66,-0.12 2.51,-0.26 0.28,-0.05 0.89,-0.15 1.13,-0.23 0.67,-0.26 0.38,-0.14 0.56,-0.88z"/>
   <path class="fil0" d="M107.05 19.03c-1.99,0.61 -2.6,1.33 -5.26,1.16 -1.95,-0.12 -3.31,-1.08 -3.45,-3.06 -0.33,-4.71 4.97,-3.67 8.7,-4.12l0 6.02zm-8.3 -10.82c2.7,-0.24 8.33,-2.04 8.33,2.92l-0.01 1.23c-3.15,0.02 -7.8,-0.07 -9.11,2.32 -1.13,2.05 -0.7,6.29 4.43,6.29 2.03,0 3.22,-0.46 4.72,-1.18 0.3,0.6 0.15,0.9 0.84,1.02 0,-3.12 0.02,-6.25 0,-9.37 -0.03,-4.79 -3.8,-4.88 -7.69,-4.28 -1.12,0.17 -1.52,0 -1.53,1.05z"/>
   <path class="fil0" d="M86.47 13.9c0,6.17 2.83,7.72 8.05,6.85 1.17,-0.2 1.31,0.01 1.51,-1.07 -6.06,1.1 -8.72,0.44 -8.72,-5.94 0,-2.33 0.65,-4.5 2.16,-5.4 1.88,-1.13 4.4,-0.47 6.48,-0.09 -0.02,-1.01 -0.24,-0.87 -1.3,-1.04 -4.92,-0.81 -8.18,0.29 -8.18,6.69z"/>
   <path class="fil0" d="M1.66 0.66c-3.26,1.3 -1.2,5.83 1.79,4.61 2.8,-1.13 1.37,-5.88 -1.79,-4.61z"/>
   <path class="fil0" d="M110.63 18.66c0,1.45 0.84,1.87 2.19,1.96l0.05 -0.65c-1.06,-0.16 -1.36,-0.27 -1.36,-1.46l0 -18.51 -0.88 0 0 18.66z"/>
   <path class="fil0" d="M84.47 20.81c-0.06,-0.49 0.03,-0.29 -0.3,-0.52 -0.11,-0.08 -0.57,-0.17 -0.7,-0.21 -0.53,-1.78 -0.23,-10.5 -0.23,-13.1 -1.09,0 -0.76,-0.3 -0.76,3.69l-0 8.3c0.03,1.55 1,2.06 1.76,1.92 0.03,-0.01 0.09,-0.03 0.12,-0.04 0.03,-0.01 0.08,-0.02 0.12,-0.04z"/>
  </g>
 </g>
</svg>
