<?xml version="1.0" encoding="UTF-8"?>
<!DOCTYPE svg PUBLIC "-//W3C//DTD SVG 1.1//EN" "http://www.w3.org/Graphics/SVG/1.1/DTD/svg11.dtd">
<!-- Creator: CorelDRAW Standard 2020 -->
<svg xmlns="http://www.w3.org/2000/svg" xml:space="preserve" width="1.7511in" height="0.463673in" version="1.1" style="shape-rendering:geometricPrecision; text-rendering:geometricPrecision; image-rendering:optimizeQuality; fill-rule:evenodd; clip-rule:evenodd"
viewBox="0 0 36.92 9.78"
 xmlns:xlink="http://www.w3.org/1999/xlink"
 xmlns:xodm="http://www.corel.com/coreldraw/odm/2003">
 <defs>
  <style type="text/css">
   <![CDATA[
    .str0 {stroke:#20315D;stroke-width:0.34;stroke-miterlimit:4}
    .fil20 {fill:none;fill-rule:nonzero}
    .fil22 {fill:#FEFEFE;fill-rule:nonzero}
    .fil0 {fill:#0073BB;fill-rule:nonzero}
    .fil1 {fill:#20315D;fill-rule:nonzero}
    .fil21 {fill:#2E345C;fill-rule:nonzero}
    .fil7 {fill:url(#id0)}
    .fil6 {fill:url(#id1)}
    .fil8 {fill:url(#id2)}
    .fil2 {fill:url(#id3)}
    .fil3 {fill:url(#id4)}
    .fil5 {fill:url(#id5)}
    .fil11 {fill:url(#id6)}
    .fil10 {fill:url(#id7)}
    .fil17 {fill:url(#id8)}
    .fil18 {fill:url(#id9)}
    .fil9 {fill:url(#id10)}
    .fil16 {fill:url(#id11)}
    .fil12 {fill:url(#id12)}
    .fil4 {fill:url(#id13)}
    .fil13 {fill:url(#id14)}
    .fil14 {fill:url(#id15)}
    .fil19 {fill:url(#id16)}
    .fil15 {fill:url(#id17)}
   ]]>
  </style>
  <linearGradient id="id0" gradientUnits="userSpaceOnUse" x1="3.59" y1="13.01" x2="0.67" y2="8.07">
   <stop offset="0" style="stop-opacity:1; stop-color:#0073BB"/>
   <stop offset="1" style="stop-opacity:1; stop-color:#20315D"/>
  </linearGradient>
  <linearGradient id="id1" gradientUnits="userSpaceOnUse" xlink:href="#id0" x1="2.65" y1="13.57" x2="-0.28" y2="8.63">
  </linearGradient>
  <linearGradient id="id2" gradientUnits="userSpaceOnUse" xlink:href="#id0" x1="4.11" y1="12.7" x2="1.19" y2="7.76">
  </linearGradient>
  <linearGradient id="id3" gradientUnits="userSpaceOnUse" xlink:href="#id0" x1="6.7" y1="11.17" x2="3.77" y2="6.23">
  </linearGradient>
  <linearGradient id="id4" gradientUnits="userSpaceOnUse" xlink:href="#id0" x1="5.68" y1="11.97" x2="2.68" y2="6.88">
  </linearGradient>
  <linearGradient id="id5" gradientUnits="userSpaceOnUse" xlink:href="#id0" x1="4.89" y1="12.24" x2="1.97" y2="7.3">
  </linearGradient>
  <linearGradient id="id6" gradientUnits="userSpaceOnUse" x1="319.27" y1="-1535.65" x2="333.88" y2="-1497.64">
   <stop offset="0" style="stop-opacity:1; stop-color:#FEFEFE"/>
   <stop offset="1" style="stop-opacity:1; stop-color:#4B5685"/>
  </linearGradient>
  <linearGradient id="id7" gradientUnits="userSpaceOnUse" x1="337.94" y1="-1606.04" x2="349.71" y2="-1585.69">
   <stop offset="0" style="stop-opacity:1; stop-color:#A5A9C6"/>
   <stop offset="1" style="stop-opacity:1; stop-color:#20315D"/>
  </linearGradient>
  <linearGradient id="id8" gradientUnits="userSpaceOnUse" x1="356.02" y1="-1569.77" x2="378.61" y2="-1530.65">
   <stop offset="0" style="stop-opacity:1; stop-color:#4B5685"/>
   <stop offset="1" style="stop-opacity:1; stop-color:#639FD6"/>
  </linearGradient>
  <linearGradient id="id9" gradientUnits="userSpaceOnUse" xlink:href="#id6" x1="301.8" y1="-1508.08" x2="312.47" y2="-1471.45">
  </linearGradient>
  <linearGradient id="id10" gradientUnits="userSpaceOnUse" x1="333.43" y1="-1613.85" x2="337.94" y2="-1606.04">
   <stop offset="0" style="stop-opacity:1; stop-color:#FEFEFE"/>
   <stop offset="1" style="stop-opacity:1; stop-color:#A5A9C6"/>
  </linearGradient>
  <linearGradient id="id11" gradientUnits="userSpaceOnUse" xlink:href="#id6" x1="334.86" y1="-1606.43" x2="356.02" y2="-1569.77">
  </linearGradient>
  <linearGradient id="id12" gradientUnits="userSpaceOnUse" xlink:href="#id8" x1="333.88" y1="-1497.64" x2="349.48" y2="-1457.07">
  </linearGradient>
  <linearGradient id="id13" gradientUnits="userSpaceOnUse" xlink:href="#id0" x1="6.74" y1="11.39" x2="3.45" y2="5.82">
  </linearGradient>
  <linearGradient id="id14" gradientUnits="userSpaceOnUse" xlink:href="#id0" x1="3.28" y1="13.2" x2="0.35" y2="8.25">
  </linearGradient>
  <linearGradient id="id15" gradientUnits="userSpaceOnUse" xlink:href="#id6" x1="317.46" y1="-1589.81" x2="338.77" y2="-1552.9">
  </linearGradient>
  <linearGradient id="id16" gradientUnits="userSpaceOnUse" xlink:href="#id8" x1="312.47" y1="-1471.45" x2="323.87" y2="-1432.35">
  </linearGradient>
  <linearGradient id="id17" gradientUnits="userSpaceOnUse" xlink:href="#id8" x1="338.77" y1="-1552.9" x2="361.52" y2="-1513.49">
  </linearGradient>
 </defs>
 <g id="Layer_x0020_1">
  <metadata id="CorelCorpID_0Corel-Layer"/>
  <g id="_-1918575544">
   <path class="fil0" d="M18.38 8.63c-0.02,-0.34 -0.04,-0.75 -0.03,-1.11l-0.01 0c-0.09,0.32 -0.19,0.68 -0.31,1.01l-0.38 1.14 -0.37 0 -0.35 -1.12c-0.1,-0.34 -0.2,-0.69 -0.27,-1.03l-0.01 0c-0.01,0.35 -0.03,0.76 -0.05,1.12l-0.06 1.06 -0.45 0 0.18 -2.63 0.63 0 0.34 1.06c0.09,0.31 0.18,0.62 0.24,0.91l0.01 0c0.07,-0.28 0.16,-0.61 0.26,-0.92l0.36 -1.05 0.62 0 0.15 2.63 -0.47 0 -0.05 -1.07z"/>
   <polygon class="fil0" points="20.86,8.54 19.87,8.54 19.87,9.31 20.98,9.31 20.98,9.7 19.39,9.7 19.39,7.07 20.92,7.07 20.92,7.47 19.87,7.47 19.87,8.14 20.86,8.14 "/>
   <path class="fil0" d="M21.4 7.11c0.21,-0.04 0.48,-0.06 0.76,-0.06 0.49,0 0.83,0.1 1.07,0.3 0.25,0.21 0.41,0.52 0.41,0.97 0,0.47 -0.16,0.82 -0.41,1.05 -0.26,0.24 -0.68,0.36 -1.19,0.36 -0.28,0 -0.49,-0.02 -0.65,-0.04l0 -2.59zm0.48 2.23c0.07,0.01 0.17,0.01 0.27,0.01 0.62,0 1,-0.34 1,-1.01 0,-0.58 -0.33,-0.91 -0.93,-0.91 -0.15,0 -0.26,0.01 -0.33,0.03l0 1.88z"/>
   <polygon class="fil0" points="24.54,9.7 24.06,9.7 24.06,7.07 24.54,7.07 "/>
   <path class="fil0" d="M26.98 9.62c-0.11,0.06 -0.36,0.12 -0.68,0.12 -0.84,0 -1.34,-0.53 -1.34,-1.33 0,-0.87 0.6,-1.39 1.4,-1.39 0.32,0 0.54,0.07 0.64,0.12l-0.1 0.38c-0.13,-0.05 -0.3,-0.1 -0.52,-0.1 -0.53,0 -0.92,0.34 -0.92,0.97 0,0.58 0.34,0.95 0.92,0.95 0.2,0 0.4,-0.04 0.52,-0.1l0.08 0.38z"/>
   <path class="fil0" d="M27.94 8.96l-0.23 0.74 -0.5 0 0.84 -2.63 0.61 0 0.85 2.63 -0.52 0 -0.24 -0.74 -0.84 0zm0.75 -0.36l-0.21 -0.65c-0.05,-0.16 -0.09,-0.34 -0.13,-0.49l-0.01 0c-0.04,0.15 -0.08,0.34 -0.12,0.49l-0.2 0.65 0.67 0z"/>
   <polygon class="fil0" points="29.9,7.07 30.38,7.07 30.38,9.3 31.46,9.3 31.46,9.7 29.9,9.7 "/>
   <path class="fil1" d="M11.43 1.85c-0.32,0 -0.53,-0.23 -0.53,-0.51 0,-0.29 0.22,-0.52 0.53,-0.52 0.32,0 0.53,0.22 0.53,0.52 0,0.28 -0.21,0.51 -0.53,0.51l-0.01 0zm-0.47 0.54l0.95 0 0 3.77 -0.95 0 0 -3.77z"/>
   <path class="fil1" d="M12.94 3.51c0,-0.43 -0.02,-0.8 -0.03,-1.12l0.83 0 0.05 0.56 0.02 0c0.17,-0.29 0.58,-0.65 1.21,-0.65 0.66,0 1.34,0.43 1.34,1.62l0 2.23 -0.95 0 0 -2.13c0,-0.54 -0.2,-0.95 -0.72,-0.95 -0.38,0 -0.64,0.27 -0.74,0.56 -0.03,0.08 -0.05,0.19 -0.05,0.3l0 2.22 -0.95 0 0 -2.64z"/>
   <path class="fil1" d="M18.41 1.42l0 0.97 0.9 0 0 0.71 -0.9 0 0 1.66c0,0.46 0.12,0.7 0.49,0.7 0.17,0 0.26,-0.01 0.37,-0.04l0.02 0.72c-0.14,0.05 -0.39,0.1 -0.69,0.1 -0.36,0 -0.64,-0.12 -0.82,-0.31 -0.21,-0.22 -0.3,-0.56 -0.3,-1.06l0 -1.76 -0.53 0 0 -0.71 0.53 0 0 -0.7 0.94 -0.26z"/>
   <path class="fil1" d="M20.66 4.54c0.02,0.68 0.56,0.97 1.16,0.97 0.44,0 0.75,-0.07 1.04,-0.17l0.14 0.65c-0.32,0.14 -0.77,0.24 -1.31,0.24 -1.22,0 -1.94,-0.75 -1.94,-1.9 0,-1.04 0.63,-2.03 1.84,-2.03 1.22,0 1.62,1.01 1.62,1.83 0,0.18 -0.02,0.32 -0.03,0.4l-2.52 0zm1.65 -0.67c0.01,-0.35 -0.15,-0.92 -0.78,-0.92 -0.59,0 -0.83,0.53 -0.87,0.92l1.65 0z"/>
   <path class="fil1" d="M23.98 3.6c0,-0.51 -0.01,-0.88 -0.03,-1.21l0.82 0 0.04 0.71 0.02 0c0.18,-0.53 0.63,-0.8 1.04,-0.8 0.09,0 0.15,0.01 0.22,0.02l0 0.89c-0.09,-0.02 -0.17,-0.02 -0.29,-0.02 -0.45,0 -0.77,0.29 -0.85,0.72 -0.02,0.09 -0.02,0.19 -0.02,0.29l0 1.96 -0.95 0 0 -2.55z"/>
   <path class="fil1" d="M26.81 3.6c0,-0.51 -0.01,-0.88 -0.03,-1.21l0.82 0 0.04 0.71 0.02 0c0.19,-0.53 0.63,-0.8 1.04,-0.8 0.09,0 0.15,0.01 0.22,0.02l0 0.89c-0.09,-0.02 -0.17,-0.02 -0.29,-0.02 -0.45,0 -0.77,0.29 -0.85,0.72 -0.01,0.09 -0.02,0.19 -0.02,0.29l0 1.96 -0.95 0 0 -2.55z"/>
   <path class="fil1" d="M32.42 5.25c0,0.34 0.02,0.67 0.06,0.9l-0.86 0 -0.07 -0.42 -0.02 0c-0.22,0.29 -0.62,0.5 -1.11,0.5 -0.76,0 -1.18,-0.55 -1.18,-1.12 0,-0.94 0.84,-1.43 2.23,-1.42l0 -0.06c0,-0.25 -0.1,-0.66 -0.76,-0.66 -0.37,0 -0.76,0.12 -1.01,0.28l-0.19 -0.62c0.28,-0.17 0.77,-0.33 1.36,-0.33 1.21,0 1.55,0.77 1.55,1.59l0 1.35zm-0.93 -0.94c-0.67,-0.01 -1.31,0.13 -1.31,0.7 0,0.37 0.24,0.54 0.54,0.54 0.39,0 0.66,-0.25 0.75,-0.52 0.02,-0.07 0.02,-0.14 0.02,-0.21l0 -0.52z"/>
   <path class="fil1" d="M36.89 0.66l0 4.44c0,0.39 0.02,0.8 0.03,1.06l-0.84 0 -0.05 -0.59 -0.02 0c-0.22,0.42 -0.68,0.68 -1.22,0.68 -0.91,0 -1.62,-0.77 -1.62,-1.93 -0.01,-1.26 0.78,-2.01 1.69,-2.01 0.52,0 0.89,0.21 1.06,0.49l0.02 0 0 -2.13 0.95 0zm-0.95 3.3c0,-0.08 -0.01,-0.18 -0.02,-0.25 -0.09,-0.36 -0.39,-0.67 -0.82,-0.67 -0.61,0 -0.95,0.54 -0.95,1.24 0,0.7 0.34,1.2 0.94,1.2 0.39,0 0.73,-0.26 0.82,-0.67 0.02,-0.09 0.03,-0.18 0.03,-0.28l0 -0.57z"/>
   <path class="fil2" d="M4.87 1.73l-0 0 -0 0c-0.64,0 -1.21,0.22 -1.62,0.55l0 0c-0.41,0.34 -0.65,0.8 -0.65,1.29l0 0c0,0.5 0.24,0.95 0.65,1.29l0 0c0.41,0.34 0.98,0.55 1.62,0.55l0 0c0.64,0 1.21,-0.21 1.62,-0.55l0 0c0.41,-0.34 0.65,-0.79 0.65,-1.29 0,-0.5 -0.24,-0.95 -0.65,-1.29l0 0c-0.41,-0.34 -0.98,-0.55 -1.62,-0.55z"/>
   <path class="fil3" d="M9.73 2.41l0 0 0 -0.7c0,-0.49 0.02,-1.06 -0.32,-1.36l0 0c-0.29,-0.25 -0.91,-0.28 -1.32,-0.28l0 0 -6.38 0c-0.45,0 -0.98,0.01 -1.28,0.31l0 0c-0.3,0.3 -0.36,0.88 -0.36,1.33l0 0 0 0.63c0.22,-0.27 0.47,-0.53 0.74,-0.76l0 0c1.04,-0.87 2.48,-1.4 4.06,-1.4l0 0c1.58,0 3.02,0.53 4.06,1.4l0 0c0.3,0.25 0.57,0.53 0.8,0.83z"/>
   <path class="fil4" d="M9.73 8.11l0 -0.02 0 -0.52c-0.23,0.3 -0.5,0.58 -0.8,0.83l0 0c-0.83,0.69 -1.9,1.16 -3.1,1.33l0 0 2.25 0c0.47,0 1.01,-0.03 1.31,-0.34l0 0c0.28,-0.29 0.33,-0.84 0.33,-1.28z"/>
   <path class="fil5" d="M4.87 1.14l-0 0c-1.11,0 -2.11,0.37 -2.82,0.97l0 0c-0.72,0.6 -1.15,1.4 -1.15,2.29 0,0.89 0.43,1.7 1.15,2.29l0 0c0.72,0.59 1.72,0.97 2.83,0.97l0 0c1.11,0 2.11,-0.37 2.83,-0.97l0 0c0.72,-0.6 1.15,-1.4 1.15,-2.29l0 0c0,-0.89 -0.43,-1.7 -1.15,-2.29l0 0c-0.72,-0.59 -1.71,-0.97 -2.82,-0.97l0 0c-0,0 -0,0 -0,0l0 0z"/>
   <path class="fil6" d="M1.68 9.73l0.02 0 2.2 0c-1.2,-0.17 -2.27,-0.64 -3.1,-1.33l0 0c-0.28,-0.23 -0.53,-0.48 -0.74,-0.76l0 0.45 0 0.02c0,0.44 0.03,1.01 0.31,1.3l0 0c0.29,0.3 0.85,0.32 1.31,0.32z"/>
   <path class="fil7" d="M0.06 3.06l0 3.87c0.26,0.43 0.6,0.82 1.01,1.16l0 0c0.97,0.8 2.31,1.3 3.8,1.3l0 0c1.49,0 2.83,-0.5 3.8,-1.3l0 0c0.44,-0.36 0.8,-0.79 1.06,-1.26l0 0 0 -3.68c-0.26,-0.47 -0.62,-0.89 -1.06,-1.26l0 0c-0.97,-0.8 -2.31,-1.3 -3.8,-1.3l0 0 -0 0c-1.49,0 -2.83,0.5 -3.8,1.3l0 0c-0.41,0.34 -0.75,0.73 -1.01,1.16zm0.42 1.34c0.01,-2.06 1.99,-3.67 4.39,-3.67l0 0c2.4,0 4.38,1.61 4.39,3.67l0 0c-0.01,2.06 -1.99,3.67 -4.39,3.67l0 0c-2.39,-0 -4.38,-1.61 -4.39,-3.67l0 0z"/>
   <path class="fil8" d="M0.48 4.4c0.01,2.06 1.99,3.67 4.39,3.67l0 0c2.4,-0 4.38,-1.61 4.39,-3.67l0 0c-0.01,-2.06 -1.99,-3.67 -4.39,-3.67 -2.39,0 -4.38,1.61 -4.39,3.67zm1.56 2.29c-0.72,-0.6 -1.15,-1.4 -1.15,-2.29l0 0c0,-0.89 0.43,-1.7 1.15,-2.29l0 0c0.72,-0.59 1.72,-0.97 2.82,-0.97l0 0 0 0c1.11,-0 2.11,0.37 2.83,0.97l0 0c0.72,0.6 1.15,1.4 1.15,2.29l0 0c0,0.89 -0.43,1.7 -1.15,2.29l0 0c-0.72,0.59 -1.72,0.97 -2.83,0.97l0 0c-0,0 -0,0 -0,0l0 0c-1.11,0 -2.11,-0.37 -2.82,-0.97l0 0z"/>
   <path class="fil9" d="M0.34 1.01l0 4.07c1.63,-1.17 4.04,-1.91 6.72,-1.91l0 0c0.83,0 1.63,0.07 2.39,0.2l0 0 0 -1.48c0,-0.86 -0.69,-1.55 -1.55,-1.55l0 0 -6.57 0c-0.2,0 -0.36,-0.01 -0.49,-0.01l0 0c-0.42,0 -0.51,0.07 -0.52,0.67z"/>
   <path class="fil10" d="M0.34 1.01l0 4.07c1.63,-1.17 4.04,-1.91 6.72,-1.91l0 0c0.83,0 1.63,0.07 2.39,0.2l0 0 0 -1.48c0,-0.86 -0.69,-1.55 -1.55,-1.55l0 0 -6.57 0c-0.2,0 -0.36,-0.01 -0.49,-0.01l0 0c-0.42,0 -0.51,0.07 -0.52,0.67z"/>
   <path class="fil11" d="M0.72 3.77c-0.29,1.95 1.36,3.75 3.63,4.1l0 0c2.27,0.34 4.37,-0.9 4.68,-2.85l0 0c0.29,-1.95 -1.36,-3.76 -3.63,-4.1l0 0c-0.25,-0.04 -0.5,-0.06 -0.75,-0.06l0 0c-1.97,0 -3.66,1.17 -3.93,2.9zm3.66 3.85c-1.1,-0.16 -2.03,-0.68 -2.65,-1.38l0 0c-0.62,-0.7 -0.93,-1.56 -0.8,-2.44l0 0c0.13,-0.88 0.68,-1.61 1.48,-2.09l0 0c0.8,-0.48 1.84,-0.7 2.94,-0.54l0 0 0 0c1.1,0.16 2.03,0.68 2.65,1.38l0 0c0.62,0.7 0.93,1.56 0.8,2.44l0 0c-0.13,0.88 -0.68,1.61 -1.48,2.09l0 0c-0.62,0.37 -1.39,0.59 -2.21,0.59l0 0c-0.24,0 -0.48,-0.02 -0.72,-0.06l0 0z"/>
   <path class="fil12" d="M0.72 3.77c-0.29,1.95 1.36,3.75 3.63,4.1l0 0c2.27,0.34 4.37,-0.9 4.68,-2.85l0 0c0.29,-1.95 -1.36,-3.76 -3.63,-4.1l0 0c-0.25,-0.04 -0.5,-0.06 -0.75,-0.06l0 0c-1.97,0 -3.66,1.17 -3.93,2.9zm3.66 3.85c-1.1,-0.16 -2.03,-0.68 -2.65,-1.38l0 0c-0.62,-0.7 -0.93,-1.56 -0.8,-2.44l0 0c0.13,-0.88 0.68,-1.61 1.48,-2.09l0 0c0.8,-0.48 1.84,-0.7 2.94,-0.54l0 0 0 0c1.1,0.16 2.03,0.68 2.65,1.38l0 0c0.62,0.7 0.93,1.56 0.8,2.44l0 0c-0.13,0.88 -0.68,1.61 -1.48,2.09l0 0c-0.62,0.37 -1.39,0.59 -2.21,0.59l0 0c-0.24,0 -0.48,-0.02 -0.72,-0.06l0 0z"/>
   <path class="fil13" d="M0.06 6.93l0 0.72c0.22,0.27 0.47,0.53 0.74,0.76l0 0c0.83,0.69 1.9,1.16 3.1,1.33l0 0 1.93 0c1.2,-0.17 2.27,-0.64 3.1,-1.33l0 0c0.3,-0.25 0.57,-0.53 0.8,-0.83l0 0 0 -0.74c-0.26,0.47 -0.62,0.89 -1.06,1.26l0 0c-0.97,0.8 -2.31,1.3 -3.8,1.3l0 0c-1.49,0 -2.83,-0.5 -3.8,-1.3l0 0c-0.41,-0.34 -0.75,-0.73 -1.01,-1.16z"/>
   <path class="fil14" d="M3.91 9.73l1.93 0c1.2,-0.15 2.27,-0.55 3.1,-1.15l0 0c0.3,-0.22 0.57,-0.46 0.8,-0.72l0 0 0 -0.64c-0.26,0.4 -0.62,0.77 -1.06,1.09l0 0c-0.97,0.69 -2.31,1.13 -3.8,1.12l0 0c-1.49,0 -2.83,-0.43 -3.8,-1.12l0 0c-0.41,-0.29 -0.75,-0.63 -1.01,-1l0 0.62c0.22,0.24 0.47,0.46 0.74,0.66l0 0c0.83,0.59 1.9,1 3.1,1.15z"/>
   <path class="fil15" d="M3.91 9.73l1.93 0c1.2,-0.15 2.27,-0.55 3.1,-1.15l0 0c0.3,-0.22 0.57,-0.46 0.8,-0.72l0 0 0 -0.64c-0.26,0.4 -0.62,0.77 -1.06,1.09l0 0c-0.97,0.69 -2.31,1.13 -3.8,1.12l0 0c-1.49,0 -2.83,-0.43 -3.8,-1.12l0 0c-0.41,-0.29 -0.75,-0.63 -1.01,-1l0 0.62c0.22,0.24 0.47,0.46 0.74,0.66l0 0c0.83,0.59 1.9,1 3.1,1.15z"/>
   <path class="fil16" d="M0.06 2l0 0.61c0.26,-0.36 0.6,-0.69 1.01,-0.98l0 0c0.97,-0.68 2.31,-1.1 3.8,-1.1l0 0 0 0c1.49,0 2.83,0.42 3.8,1.1l0 0c0.44,0.31 0.8,0.67 1.06,1.06l0 0 0 -0.63c-0.23,-0.25 -0.5,-0.49 -0.8,-0.7l0 0c-1.04,-0.73 -2.48,-1.18 -4.06,-1.18 -1.58,0 -3.02,0.45 -4.06,1.18l0 0c-0.28,0.19 -0.53,0.41 -0.74,0.64z"/>
   <path class="fil17" d="M0.06 2l0 0.61c0.26,-0.36 0.6,-0.69 1.01,-0.98l0 0c0.97,-0.68 2.31,-1.1 3.8,-1.1l0 0 0 0c1.49,0 2.83,0.42 3.8,1.1l0 0c0.44,0.31 0.8,0.67 1.06,1.06l0 0 0 -0.63c-0.23,-0.25 -0.5,-0.49 -0.8,-0.7l0 0c-1.04,-0.73 -2.48,-1.18 -4.06,-1.18 -1.58,0 -3.02,0.45 -4.06,1.18l0 0c-0.28,0.19 -0.53,0.41 -0.74,0.64z"/>
   <path class="fil18" d="M4.69 1.52l-0.01 0c-1.04,0 -1.96,0.58 -2.19,1.51 -0.26,1.13 0.62,2.25 1.9,2.55l0 0c1.29,0.3 2.57,-0.31 2.84,-1.44l0 0c0.26,-1.13 -0.62,-2.25 -1.9,-2.56l0 0c-0.22,-0.05 -0.43,-0.08 -0.65,-0.08zm-0.25 3.86c-0.62,-0.15 -1.13,-0.49 -1.45,-0.91l0 0c-0.32,-0.43 -0.45,-0.92 -0.34,-1.41l0 0c0.11,-0.48 0.45,-0.87 0.93,-1.11l0 0c0.48,-0.24 1.08,-0.31 1.7,-0.17l0 0 0 0c0.62,0.15 1.13,0.49 1.45,0.91l0 0c0.32,0.42 0.45,0.92 0.34,1.41l0 0c-0.11,0.48 -0.45,0.87 -0.93,1.11l0 0c-0.31,0.16 -0.68,0.24 -1.07,0.24l0 0c-0.21,0 -0.42,-0.02 -0.63,-0.07l0 0z"/>
   <path class="fil19" d="M4.69 1.52l-0.01 0c-1.04,0 -1.96,0.58 -2.19,1.51 -0.26,1.13 0.62,2.25 1.9,2.55l0 0c1.29,0.3 2.57,-0.31 2.84,-1.44l0 0c0.26,-1.13 -0.62,-2.25 -1.9,-2.56l0 0c-0.22,-0.05 -0.43,-0.08 -0.65,-0.08zm-0.25 3.86c-0.62,-0.15 -1.13,-0.49 -1.45,-0.91l0 0c-0.32,-0.43 -0.45,-0.92 -0.34,-1.41l0 0c0.11,-0.48 0.45,-0.87 0.93,-1.11l0 0c0.48,-0.24 1.08,-0.31 1.7,-0.17l0 0 0 0c0.62,0.15 1.13,0.49 1.45,0.91l0 0c0.32,0.42 0.45,0.92 0.34,1.41l0 0c-0.11,0.48 -0.45,0.87 -0.93,1.11l0 0c-0.31,0.16 -0.68,0.24 -1.07,0.24l0 0c-0.21,0 -0.42,-0.02 -0.63,-0.07l0 0z"/>
   <path class="fil1" d="M5.01 5.31c0.97,0 1.76,-0.65 1.76,-1.46 0,-0.8 -0.79,-1.46 -1.76,-1.46 -0.97,0 -1.76,0.65 -1.76,1.46 0,0.8 0.79,1.46 1.76,1.46z"/>
   <path class="fil20 str0" d="M0.2 9.15c0,0.23 0.18,0.41 0.41,0.41l8.56 0c0.23,0 0.41,-0.18 0.41,-0.41l0 -8.57c0,-0.23 -0.18,-0.41 -0.41,-0.41l-8.56 0c-0.23,0 -0.41,0.18 -0.41,0.41l0 8.57z"/>
   <polygon class="fil1" points="2.62,9.66 5.28,6.83 1.9,5.09 0.78,8.37 "/>
   <path class="fil21" d="M4.21 5.13c0.97,0.43 2.05,0.11 2.41,-0.7 0.35,-0.81 -0.15,-1.82 -1.12,-2.24 -0.97,-0.43 -2.05,-0.11 -2.41,0.7 -0.36,0.81 0.15,1.82 1.12,2.24z"/>
   <path class="fil22" d="M4.26 4.87c0.89,0.39 1.87,0.1 2.2,-0.64 0.32,-0.74 -0.13,-1.66 -1.02,-2.05 -0.89,-0.39 -1.87,-0.1 -2.2,0.64 -0.32,0.74 0.13,1.66 1.02,2.05z"/>
   <polygon class="fil22" points="-0,9.15 0.04,9.78 1.91,9.78 5.17,6.28 1.8,4.54 "/>
  </g>
 </g>
</svg>
