<?xml version="1.0" encoding="UTF-8"?>
<!DOCTYPE svg PUBLIC "-//W3C//DTD SVG 1.1//EN" "http://www.w3.org/Graphics/SVG/1.1/DTD/svg11.dtd">
<!-- Creator: CorelDRAW Standard 2020 -->
<svg xmlns="http://www.w3.org/2000/svg" xml:space="preserve" width="3.71632in" height="1.61667in" version="1.1" style="shape-rendering:geometricPrecision; text-rendering:geometricPrecision; image-rendering:optimizeQuality; fill-rule:evenodd; clip-rule:evenodd"
viewBox="0 0 120.21 52.29"
 xmlns:xlink="http://www.w3.org/1999/xlink"
 xmlns:xodm="http://www.corel.com/coreldraw/odm/2003">
 <defs>
  <style type="text/css">
   <![CDATA[
    .fil1 {fill:none}
    .fil0 {fill:#095DA7;fill-rule:nonzero}
   ]]>
  </style>
 </defs>
 <g id="Layer_x0020_1">
  <metadata id="CorelCorpID_0Corel-Layer"/>
  <g id="_-255188816">
   <g>
    <path class="fil0" d="M18.38 12.97c0.09,-1.53 0.5,-2.27 1.74,-2.49 0.56,-0.08 1.66,-0.13 2.16,-0.13l0.72 -0.78 -15.27 0 0.81 0.78c0.6,0 1.63,0.05 1.98,0.13 1.53,0.31 1.94,1 2.03,2.49l0 17.51c0.06,4 0.05,7.45 -0.19,9.27 -0.18,1.26 -0.4,2.31 -1.33,2.49l-4.09 0 0.57 0.68 25.94 0 0.96 -6.93 -0.89 0.69c-0.09,0.83 -0.63,2.34 -1.19,2.91 -1.15,1.17 -2.94,1.22 -5.37,1.22 -3.58,0 -6.89,-0.31 -7.68,-0.97 -0.97,-0.78 -0.92,-3.79 -0.92,-9.36l0 -17.51z"/>
    <path class="fil0" d="M112.4 42.25c-0.58,0 -1.19,-0.03 -1.93,-0.17 -0.96,-0.21 -2.29,-0.83 -4.03,-4.75 -2.93,-6.62 -10.28,-24.4 -11.37,-26.8 -0.45,-0.99 -0.73,-1.39 -1.14,-1.39 -0.46,0 -0.74,0.48 -1.29,1.74l-11.5 27.37c-0.92,2.18 -1.62,3.96 -3.74,4.05l-1.22 0c-0.09,-0.02 -0.16,-0.03 -0.26,-0.06 -1.38,-0.39 -1.93,-1.9 -2.34,-4.66l-4.18 -26.92c-0.14,-0.92 -0.42,-1.34 -0.82,-1.34 -0.42,0 -0.69,0.34 -1.01,1.03l-12.47 24.88 -12.52 -24.57c-0.59,-1.14 -0.88,-1.34 -1.24,-1.34 -0.37,0 -0.64,0.39 -0.77,1.13l-4.99 32.52 9.53 -0.03 -0.9 -0.77c0,0 -2.81,0.06 -3.63,-0.1 -0.77,-0.18 -1.25,-0.45 -1.25,-1.26 0,-0.7 0.05,-1.28 0.15,-2.05l2.39 -17.34 0.18 0c1.61,3.26 4.36,8.75 4.77,9.67 0.55,1.21 4.17,7.88 5.27,9.89 0.74,1.3 1.2,2.19 1.61,2.19 0.41,0 0.64,-0.4 1.7,-2.46l9.99 -19.77 0.18 0 3.11 22.07 2.91 0 0 0.02 18.18 0 -0.99 -0.76 -3.02 0c-1.36,-0.02 -1.77,-0.58 -1.77,-1.37 0,-0.53 0.23,-1.56 0.69,-2.66l7.83 -19.77 0.27 -0.4 0.24 0.4 9.6 24.52 10.66 0 -0.86 -0.73z"/>
    <path class="fil0" d="M95.63 33.16c0,1.64 -1.33,2.98 -2.97,2.98 -1.63,0 -2.95,-1.34 -2.95,-2.98 0,-1.63 1.32,-2.95 2.95,-2.95 1.64,0 2.97,1.33 2.97,2.95z"/>
   </g>
   <rect class="fil1" x="-0" y="-0" width="120.21" height="52.29"/>
  </g>
 </g>
</svg>
