<?xml version="1.0" encoding="UTF-8"?>
<!DOCTYPE svg PUBLIC "-//W3C//DTD SVG 1.1//EN" "http://www.w3.org/Graphics/SVG/1.1/DTD/svg11.dtd">
<!-- Creator: CorelDRAW Standard 2020 -->
<svg xmlns="http://www.w3.org/2000/svg" xml:space="preserve" width="3.28646in" height="1.0522in" version="1.1" style="shape-rendering:geometricPrecision; text-rendering:geometricPrecision; image-rendering:optimizeQuality; fill-rule:evenodd; clip-rule:evenodd"
viewBox="0 0 93.65 29.98"
 xmlns:xlink="http://www.w3.org/1999/xlink"
 xmlns:xodm="http://www.corel.com/coreldraw/odm/2003">
 <defs>
  <style type="text/css">
   <![CDATA[
    .fil0 {fill:#095DA7;fill-rule:nonzero}
   ]]>
  </style>
 </defs>
 <g id="Layer_x0020_1">
  <metadata id="CorelCorpID_0Corel-Layer"/>
  <g id="_-435992120">
   <path class="fil0" d="M10.07 3.38c0.08,-1.35 0.44,-2 1.53,-2.2 0.49,-0.07 1.46,-0.11 1.91,-0.11l0.63 -0.69 -13.45 0 0.72 0.69c0.53,0 1.44,0.04 1.75,0.11 1.34,0.27 1.71,0.88 1.79,2.2l0 15.43c0.05,3.53 0.04,6.56 -0.17,8.17 -0.16,1.11 -0.36,2.03 -1.17,2.19l-3.6 0 0.5 0.6 22.85 0 0.85 -6.1 -0.78 0.61c-0.08,0.73 -0.56,2.06 -1.05,2.56 -1.01,1.03 -2.59,1.08 -4.73,1.08 -3.15,0 -6.07,-0.27 -6.77,-0.85 -0.85,-0.69 -0.81,-3.34 -0.81,-8.24l0 -15.43z"/>
   <path class="fil0" d="M92.9 29.18c-0.51,0 -1.04,-0.03 -1.7,-0.15 -0.84,-0.18 -2.02,-0.73 -3.55,-4.18 -2.58,-5.83 -9.05,-21.5 -10.02,-23.61 -0.4,-0.87 -0.64,-1.23 -1,-1.23 -0.41,0 -0.65,0.42 -1.14,1.53l-10.13 24.11c-0.81,1.92 -1.43,3.49 -3.29,3.57l-1.07 0c-0.08,-0.02 -0.14,-0.03 -0.23,-0.05 -1.22,-0.34 -1.7,-1.68 -2.06,-4.1l-3.68 -23.72c-0.12,-0.81 -0.37,-1.18 -0.72,-1.18 -0.37,0 -0.61,0.3 -0.89,0.91l-10.99 21.92 -11.03 -21.65c-0.52,-1 -0.77,-1.18 -1.09,-1.18 -0.32,0 -0.57,0.34 -0.68,1l-4.4 28.65 8.39 -0.02 -0.79 -0.68c0,0 -2.47,0.06 -3.2,-0.09 -0.68,-0.16 -1.11,-0.39 -1.11,-1.11 0,-0.62 0.05,-1.13 0.13,-1.8l2.1 -15.28 0.15 0c1.42,2.88 3.84,7.71 4.2,8.52 0.48,1.07 3.68,6.95 4.64,8.71 0.65,1.15 1.06,1.93 1.42,1.93 0.36,0 0.57,-0.36 1.5,-2.16l8.8 -17.42 0.16 0 2.74 19.44 2.57 0 0 0.02 16.01 0 -0.87 -0.67 -2.66 0c-1.19,-0.02 -1.56,-0.52 -1.56,-1.21 0,-0.46 0.2,-1.38 0.61,-2.34l6.9 -17.42 0.24 -0.35 0.21 0.35 8.46 21.6 9.39 0 -0.75 -0.65z"/>
   <path class="fil0" d="M78.12 21.17c0,1.44 -1.18,2.62 -2.62,2.62 -1.44,0 -2.6,-1.18 -2.6,-2.62 0,-1.43 1.17,-2.6 2.6,-2.6 1.44,0 2.62,1.17 2.62,2.6z"/>
  </g>
 </g>
</svg>
