<?xml version="1.0" encoding="UTF-8"?>
<!DOCTYPE svg PUBLIC "-//W3C//DTD SVG 1.1//EN" "http://www.w3.org/Graphics/SVG/1.1/DTD/svg11.dtd">
<!-- Creator: CorelDRAW Standard 2020 -->
<svg xmlns="http://www.w3.org/2000/svg" xml:space="preserve" width="3.37414in" height="1.01311in" version="1.1" style="shape-rendering:geometricPrecision; text-rendering:geometricPrecision; image-rendering:optimizeQuality; fill-rule:evenodd; clip-rule:evenodd"
viewBox="0 0 49.31 14.81"
 xmlns:xlink="http://www.w3.org/1999/xlink"
 xmlns:xodm="http://www.corel.com/coreldraw/odm/2003">
 <defs>
  <style type="text/css">
   <![CDATA[
    .fil1 {fill:#F18C2D}
    .fil0 {fill:#E73A36}
   ]]>
  </style>
 </defs>
 <g id="Layer_x0020_1">
  <metadata id="CorelCorpID_0Corel-Layer"/>
  <path class="fil0" d="M30.54 0.27l-0.1 4.44c-2.01,-0.43 -4.01,-0.41 -5.11,0.89 -2.75,3.24 -1.54,11.62 7.85,8.53l0.07 -14.13 -2.71 0.27zm-0.22 11.91c0.31,-0.99 0.22,-3.03 0.15,-4.29 -0.15,-2.62 -5.03,-0.9 -3.25,3.09 0.54,1.22 1.64,1.57 3.1,1.2z"/>
  <path class="fil0" d="M0.04 4.88l-0.04 9.57 2.74 -0.01 0.03 -7.64 1.91 -0.02c1.4,2.06 0.42,5.2 0.8,7.68l2.64 -0.01c0.27,-1.73 0.12,-5.67 -0.1,-7.47 4.19,-0.8 2.31,1.86 2.83,7.41l2.7 0.06c0.18,-1.53 0.14,-4.77 0.03,-6.33 -0.28,-3.9 -3.41,-4.34 -5.65,-3.46 -1.6,0.63 -0.5,0.62 -2.04,-0.02 -1.68,-0.7 -4.16,-0.18 -5.86,0.23z"/>
  <path class="fil0" d="M22.74 14.19l-0.19 -2.28c-0.54,0.05 -5.47,1.35 -5.36,-1.47l6.25 -0c-0.01,-3.08 -0.4,-5.05 -2.77,-5.87 -7.96,-2.74 -10.07,13.23 2.07,9.63zm-5.6 -5.68l3.58 -0.02c-0.02,-2.39 -3.37,-2.65 -3.58,0.02z"/>
  <path class="fil1" d="M40.67 4.93c-0.16,1.49 -0.15,7.64 0.09,9.56l2.68 -0.01 0.06 -7.59c4.17,-0.81 2.57,2.19 2.97,7.61l2.71 -0.02c0.12,-2.44 0.43,-6.9 -0.74,-8.73 -1.21,-1.9 -5.32,-1.63 -7.77,-0.82z"/>
  <path class="fil1" d="M33.99 5.6l0.03 8.83 2.7 0.03c0.6,-1.13 3.43,-7.97 3.66,-9.16 -3.91,3.25 -5.24,1.12 -6.39,0.3z"/>
  <path class="fil1" d="M36.67 0.37c-3.82,0.89 -2.52,6.65 1.17,5.48 2.98,-0.94 2.39,-6.31 -1.17,-5.48z"/>
 </g>
</svg>
