<?xml version="1.0" encoding="UTF-8"?>
<!DOCTYPE svg PUBLIC "-//W3C//DTD SVG 1.1//EN" "http://www.w3.org/Graphics/SVG/1.1/DTD/svg11.dtd">
<!-- Creator: CorelDRAW Standard 2020 -->
<svg xmlns="http://www.w3.org/2000/svg" xml:space="preserve" width="4.80341in" height="0.833795in" version="1.1" style="shape-rendering:geometricPrecision; text-rendering:geometricPrecision; image-rendering:optimizeQuality; fill-rule:evenodd; clip-rule:evenodd"
viewBox="0 0 76.23 13.23"
 xmlns:xlink="http://www.w3.org/1999/xlink"
 xmlns:xodm="http://www.corel.com/coreldraw/odm/2003">
 <defs>
  <style type="text/css">
   <![CDATA[
    .fil0 {fill:#073A4E}
    .fil1 {fill:#EC2428}
   ]]>
  </style>
 </defs>
 <g id="Layer_x0020_1">
  <metadata id="CorelCorpID_0Corel-Layer"/>
  <path class="fil0" d="M40.74 7.55l-1.86 0c-0.8,3.97 -1.09,3.16 -9.52,3.16l1.77 -6.6c1.44,-0.07 3,-0.02 4.47,-0.02 4.72,0 4.07,0.15 3.45,2.96 0.38,0.05 0.81,-0.05 1.2,-0.06 0.38,-0.01 0.49,0.07 0.57,-0.02 0.05,-0.05 0.08,-0.15 0.14,-0.28 0.53,-2.06 1.63,-4.03 -3.26,-4.02 -2.68,0.01 -5.36,0 -8.04,0l-2.59 9.49c2.92,0 6.32,0.17 9.17,-0.03 3.35,-0.23 3.81,-1.6 4.48,-4.58z"/>
  <path class="fil1" d="M38.76 6.96l-2.72 0.03 0 0.54 2.83 0.02 1.86 -0 6.12 0.03c-0.41,0.55 -5.26,3.62 -6.35,4.57 2.77,0.19 2.58,-0.17 4.28,-1.37 0.63,-0.45 2.8,-2.11 3.39,-2.3l3.16 3.69 2.41 0.01c-0.11,-0.22 -0.76,-0.97 -0.94,-1.18 -0.81,-0.95 -2.42,-2.54 -2.9,-3.41l5.16 -0.02c0.83,0.06 0.42,-0.06 0.65,0.25l1.89 -0.07c0.3,-0.25 0.22,-0.17 0.75,-0.17 0.94,0 2.27,0.16 3.16,-0.05 1.56,-0.37 2.63,-2.62 3.82,-4.38 0.58,-0.87 1.08,-1.68 1.72,-2.42 0.15,0.99 -0.33,7.52 -0.43,9.48 -0.06,1.15 -0.33,2.14 0.3,3.04l0.67 0c1.26,-1.03 2.21,-2.68 3.19,-4.25 1.69,-2.74 1.59,-2.18 5.45,-2.16l0 -0.6c-5.4,0 -3.94,-0.57 -7.2,4.31 -0.38,0.57 -1.22,2.09 -1.85,1.96 -0.32,-2.25 1.04,-11.37 0.27,-12.44 -1.18,-0.73 -4.07,5.8 -5.63,6.7 -0.69,0.4 -2.99,0.22 -3.97,0.22l1.09 -4.29 -1.83 -0 -1.17 4.26 -5.66 0.04c0.48,-0.62 4.82,-3.27 5.96,-4.3 -3.18,-0.07 -2.6,0.23 -5.86,2.55 -0.49,0.35 -1.18,0.99 -1.85,1.16 -0.26,-0.52 -0.61,-0.77 -0.98,-1.25 -0.23,-0.3 -0.26,-0.31 -0.56,-0.64 -0.23,-0.26 -0.3,-0.4 -0.53,-0.66 -0.92,-1.03 -0.66,-1.43 -3.37,-1.13l3.66 4.27 -5.2 -0.02 -2.77 0z"/>
  <path class="fil0" d="M0.06 11.77l-0.06 0.4 1.72 -0.01 1.33 -4.75c0.07,-0.25 0.15,-0.54 0.23,-0.84l0.2 -0.59c0.01,-0.02 0.04,-0.07 0.05,-0.08 0.01,-0.02 0.03,-0.06 0.05,-0.08 0.74,1.05 2.66,6.22 3.18,6.35l1.39 0c0.33,-0.53 5.93,-6.14 6.43,-6.4l-1.69 6.36 1.79 0.04 2.56 -9.48c-1.85,-0.02 -1.48,-0.2 -2.94,1.26 -0.74,0.74 -1.38,1.38 -2.12,2.12 -1.4,1.4 -2.79,2.89 -4.19,4.24 -0.67,-0.52 -2.96,-6.6 -3.71,-7.58l-1.7 -0.05c-0.49,1.47 -0.84,3.1 -1.26,4.58 -0.28,1.01 -0.28,1.19 -1.25,4.51z"/>
  <path class="fil0" d="M26.85 6.73c-0.06,-0.32 0.11,-0.06 -0.12,-0.25l-7.41 0 0.13 -0.43 0.5 -1.95 8.09 -0.01 0.34 -1.41 -9.85 -0.01 -2.61 9.45 9.93 0.04 0.36 -1.45 -8.04 -0.01 0.74 -2.84 7.62 -0.01 0.32 -1.14z"/>
  <polygon class="fil1" points="57.6,7.74 55.71,7.81 54.52,12.16 64.15,12.17 64.54,10.76 56.78,10.72 "/>
 </g>
</svg>
