<?xml version="1.0" encoding="UTF-8"?>
<!DOCTYPE svg PUBLIC "-//W3C//DTD SVG 1.1//EN" "http://www.w3.org/Graphics/SVG/1.1/DTD/svg11.dtd">
<!-- Creator: CorelDRAW Standard 2020 -->
<svg xmlns="http://www.w3.org/2000/svg" xml:space="preserve" width="6.18334in" height="1.01737in" version="1.1" style="shape-rendering:geometricPrecision; text-rendering:geometricPrecision; image-rendering:optimizeQuality; fill-rule:evenodd; clip-rule:evenodd"
viewBox="0 0 225.03 37.03"
 xmlns:xlink="http://www.w3.org/1999/xlink"
 xmlns:xodm="http://www.corel.com/coreldraw/odm/2003">
 <defs>
  <style type="text/css">
   <![CDATA[
    .fil1 {fill:#C3E4E5;fill-rule:nonzero}
    .fil0 {fill:#9FD6F5;fill-rule:nonzero}
    .fil2 {fill:#868686;fill-rule:nonzero}
    .fil3 {fill:#9FD6F5;fill-rule:nonzero}
    .fil4 {fill:#C3E4E5;fill-rule:nonzero}
   ]]>
  </style>
 </defs>
 <g id="Layer_x0020_1">
  <metadata id="CorelCorpID_0Corel-Layer"/>
  <path class="fil0" d="M3.93 15.22l-0.04 0.25c-0.03,0.05 -0.05,0.09 -0.07,0.14 -0.02,0.05 -0.04,0.1 -0.06,0.15 -0.04,0.13 -0.08,0.25 -0.12,0.38 -0.63,2.09 -0.96,4.35 -0.67,6.52 0,0.09 0.01,0.2 0.01,0.26 0.01,0.06 0.01,0.05 0.01,0.07 0.1,0.96 0.25,1.91 0.42,2.86l0.03 0.16c0.07,0.33 0.15,0.66 0.23,0.99 0.04,0.1 0.09,0.24 0.12,0.3 0.03,0.07 0.02,0.06 0.03,0.09l0 0.05c-0.02,-0.04 -0.06,-0.09 -0.08,-0.11 -0.02,-0.02 -0.01,-0.02 -0.03,-0.03 -0.11,-0.24 -0.21,-0.49 -0.29,-0.74 -0.01,-0.06 -0.03,-0.14 -0.04,-0.19 -0.02,-0.06 -0.02,-0.1 -0.03,-0.14l-0.07 -0.33c-0.17,-0.81 -0.33,-1.62 -0.43,-2.44l-0.03 -0.33c-0.27,-1.28 -0.37,-2.62 -0.22,-3.92 -0.06,-0.58 0.16,-1.16 0.3,-1.73l0.02 -0.08c0.24,-0.76 0.47,-1.52 0.79,-2.25 0.07,-0.13 0.13,-0.28 0.23,-0.39l0.03 0.26 -0.04 0.2zm30.25 7.81c-0.34,0.6 -0.69,1.19 -1.11,1.74 -0.01,0.01 -0.02,0.02 -0.03,0.03 -0.01,0.01 -0.02,0.02 -0.04,0.02 -0.04,0.06 -0.07,0.14 -0.13,0.21 -0.66,0.9 -1.46,1.71 -2.25,2.51 -0.41,0.45 -0.84,0.88 -1.29,1.29 -0.08,0.08 -0.13,0.13 -0.24,0.25 -0.12,0.11 -0.29,0.28 -0.44,0.41 -0,0.01 0,0 -0.02,0.02 -0.02,0.01 -0.08,0.04 -0.11,0.07 -0.52,0.37 -0.93,0.88 -1.45,1.25 -1.6,1.15 -3.45,2.1 -5.4,2.4 -1.22,0.15 -2.46,0.12 -3.7,0.12 -0.06,-0 -0.11,-0.01 -0.16,-0.01 -0.05,-0.01 -0.11,-0.01 -0.16,-0.01 -0.39,-0 -0.79,-0 -1.18,0.02 -0.69,0.11 -1.41,0.08 -2.09,-0.07l-0.04 -0.02 -0.04 -0.02c-0.2,-0.06 -0.41,-0.07 -0.61,-0.09l-0.07 -0.01c-1.55,-0.33 -3.17,-0.67 -4.5,-1.54 -0.22,-0.15 -0.42,-0.34 -0.61,-0.53 -0.08,-0.07 -0.15,-0.16 -0.22,-0.24 -0.05,-0.08 -0.1,-0.15 -0.15,-0.23 -0.13,-0.17 -0.25,-0.33 -0.35,-0.52 -0.95,-1.49 -1.7,-3.2 -1.91,-4.96 -0.06,-0.53 -0.1,-1.06 -0.07,-1.59l0.01 -0.04c-0.01,-0.07 -0.05,-0.14 -0.05,-0.21 0,-0.01 0,-0.03 0.01,-0.05 0,-0.01 0.01,-0.02 0.01,-0.03 -0.07,-0.64 -0.16,-1.29 -0.09,-1.93 0.07,-0.53 0.32,-1.02 0.47,-1.54 0.32,-1.16 0.53,-2.35 0.73,-3.54 0.05,-0.27 0.11,-0.55 0.18,-0.82 0.16,-0.42 0.33,-0.84 0.52,-1.25 0.26,-0.78 0.57,-1.56 0.97,-2.29 0.18,-0.31 0.38,-0.62 0.58,-0.92l0.02 -0.08c0.05,-0.07 0.11,-0.16 0.15,-0.2 0.04,-0.05 0.04,-0.05 0.05,-0.07 0.03,-0.08 0.07,-0.19 0.09,-0.25 0.02,-0.06 0.03,-0.07 0.04,-0.11 0.37,-0.54 0.85,-0.99 1.34,-1.42 0.11,-0.1 0.24,-0.21 0.34,-0.28 0.09,-0.08 0.16,-0.12 0.24,-0.19 0.61,-0.38 1.23,-0.74 1.85,-1.1 0.9,-0.49 1.7,-1.19 2.67,-1.52l0.29 -0.13 0.23 -0.03 0.01 0.03 -0.03 0.03 -0.26 0.28c-0.05,0.04 -0.04,0.04 -0.14,0.1 -0.09,0.07 -0.27,0.21 -0.41,0.32 -0.01,0.01 -0.02,0.01 -0.03,0.02 -0.07,0.05 -0.27,0.17 -0.41,0.26l-0.02 0.03c-0.25,0.14 -0.5,0.29 -0.75,0.45 -0.04,0.04 -0.09,0.09 -0.12,0.12 -0.03,0.03 -0.06,0.06 -0.09,0.09l-0.18 0.12c-0.04,0.06 -0.08,0.11 -0.12,0.16 -0.06,0.09 -0.14,0.29 -0.03,0.33 0.18,0.04 0.34,-0.15 0.5,-0.25 0.33,-0.19 0.67,-0.38 1,-0.57 0.93,-0.51 1.92,-0.89 2.87,-1.37 0.29,-0.11 0.59,-0.19 0.89,-0.26 0.04,0 0.08,-0 0.12,-0l0.12 0 0.1 0.07c0.09,-0.03 0.18,-0.04 0.27,-0.08l0 -0.02 0 -0.01c0.2,0.02 0.39,0.13 0.56,0.24l0.22 0.03c1.41,0.21 2.88,0.3 4.22,0.81 0.22,0.08 0.45,0.16 0.67,0.26l0.26 0.14c0.14,0.07 0.27,0.15 0.39,0.24l0.06 0.02c1.82,0.94 3.33,2.67 4.09,4.57 0.52,1.14 0.93,2.38 0.91,3.62 0.01,0.4 0,0.81 -0.06,1.2l-0.01 0.08c-0.06,0.43 -0.27,0.89 -0.09,1.31 0.37,-0.38 0.5,-0.93 0.62,-1.44 0.19,-0.83 0.28,-1.7 0.19,-2.55 -0.1,-1.02 -0.33,-2.03 -0.68,-2.99 -0.15,-0.4 -0.32,-0.8 -0.52,-1.18 -0.04,-0.1 -0.08,-0.19 -0.14,-0.3 -0.06,-0.12 -0.15,-0.28 -0.22,-0.42 -0.19,-0.29 -0.34,-0.61 -0.55,-0.89 -0.05,-0.06 -0.1,-0.13 -0.15,-0.19 -0.73,-1.03 -1.56,-2.02 -2.55,-2.81 -1.93,-1.43 -4.26,-2.25 -6.46,-3.21 -1.06,-0.4 -2.31,-0.55 -3.41,-0.25 -0.42,0.07 -0.84,0.17 -1.25,0.27l-0.01 -0.03c0.51,-0.21 1.03,-0.39 1.56,-0.52 0.18,-0.04 0.36,-0.06 0.55,-0.09 0.38,-0.07 0.75,-0.16 1.13,-0.21 0.53,0.03 1.06,0.1 1.57,0.23 0.09,0.03 0.17,0.06 0.24,0.08 0.57,0.16 1.13,0.31 1.68,0.51l0.09 -0c0.99,0.19 1.87,0.77 2.83,1.1 0.76,0.29 1.49,0.66 2.18,1.1l0.05 0.02c0.28,0.14 0.55,0.28 0.82,0.44 0.03,0.01 0.04,0.02 0.09,0.04 0.05,0.02 0.12,0.06 0.17,0.09l0.03 -0.04c0.02,0.01 0.02,0.02 0.04,0.03 0.01,0 0.02,0.02 0.04,0.03 0.12,0.02 -0.07,-0.25 -0.15,-0.34 -0.22,-0.25 -0.45,-0.5 -0.68,-0.75 -1.06,-1.09 -2.65,-1.51 -4.02,-2.16 -0.06,-0.03 -0.11,-0.06 -0.16,-0.09 -0.66,-0.32 -1.38,-0.48 -2.07,-0.71 -0.03,-0.01 -0.03,-0.01 -0.08,-0.03 -0.06,-0.02 -0.19,-0.06 -0.28,-0.09l-0.61 -0.22c-0.38,-0.11 -0.75,-0.18 -1.15,-0.23 -0.2,-0.01 -0.4,-0.01 -0.6,-0l-0.06 -0.02c-0.29,-0.02 -0.59,0 -0.89,0.05 -2.7,0.31 -5.3,1.68 -7.43,3.37 -1.5,1.26 -2.9,2.64 -4.18,4.12 -0.01,0.02 -0.01,0.03 -0.02,0.04 -0.01,0.02 -0.01,0.03 -0.02,0.04 -0.82,1.13 -1.72,2.21 -2.43,3.42 -0.4,0.58 -0.6,1.29 -0.99,1.88l-0.01 0.01c-0.01,0.01 -0.04,0.04 -0.05,0.06 -0.24,0.56 -0.44,1.14 -0.63,1.72 -0.23,0.74 -0.43,1.48 -0.57,2.24 0,0.02 -0.01,0.04 -0.01,0.05 -0,0.02 -0.01,0.02 -0.01,0.04 0,0.02 0.01,0.03 0.01,0.05 0,0.01 0,0.03 0.01,0.04 -0.02,0.2 -0.13,0.4 -0.14,0.6 0,0.02 0.01,0.03 0.01,0.05 0,0.02 0.01,0.03 0.01,0.05 -0.06,0.98 -0.15,1.96 -0.09,2.94 0.05,0.73 0.28,1.44 0.41,2.16 0.19,1.05 0.31,2.12 0.57,3.15 0.29,1 0.81,1.92 1.31,2.82 0.57,1.03 1.23,2.03 2.04,2.88 0.08,0.08 0.2,0.2 0.25,0.24 0.05,0.04 0.03,0.02 0.04,0.03l0.12 0.02 0 -0.12c0.26,0.07 0.41,0.34 0.6,0.53 0.31,0.3 0.63,0.6 0.98,0.87 0.88,0.62 1.98,0.86 2.97,1.31l0.03 0.03 -0 0.04c-0.14,0.04 -0.3,0 -0.44,-0.03 -0.07,-0.02 -0.14,-0.05 -0.2,-0.08 -0.72,-0.17 -1.42,-0.41 -2.07,-0.73 -0.18,-0.06 -0.34,-0.13 -0.51,-0.2l-0.08 -0.04 -0.1 0.05 0.07 0.1c-0.04,0.12 -0.28,-0.05 -0.41,-0.11 -0.24,-0.11 -0.47,-0.24 -0.69,-0.4 -0.67,-0.49 -1.27,-1.1 -1.97,-1.56 -0.04,-0 -0.08,-0.02 -0.11,-0.03 -0.17,-0.12 -0.31,-0.27 -0.44,-0.43l-0.04 -0.07c-0.51,-0.62 -0.97,-1.25 -1.41,-1.92 -0.02,-0.03 -0,-0 -0.06,-0.12 -0.06,-0.11 -0.18,-0.37 -0.27,-0.57 -0.37,-0.68 -0.84,-1.31 -1.13,-2.03 -0.3,-0.8 -0.38,-1.8 -1.04,-2.36l-0.03 0.01c-0.13,0.63 0.25,1.28 0.41,1.9l0.03 0.08c0,0.06 -0.01,0.12 0.01,0.18 0.01,0.02 0.05,0.05 0.06,0.07 0.03,0.09 0.05,0.17 0.08,0.26 0.23,0.74 0.34,1.54 0.75,2.21 0.62,1.14 1.34,2.21 2.06,3.29l0.06 0.08c0.01,0.01 0.03,0.02 0.04,0.03 0.02,0.01 0.03,0.02 0.04,0.03 0.35,0.42 0.68,0.85 1.03,1.27 0.11,0.11 0.21,0.21 0.32,0.31 0.01,0.02 0.02,0.03 0.03,0.04 0.01,0.01 0.03,0.03 0.05,0.05 0.54,0.46 1.09,0.93 1.69,1.29 1.05,0.59 2.2,1.09 3.4,1.21 0.02,-0 0.03,-0 0.06,-0 0.01,0 0.03,-0.01 0.05,-0.01 1.11,0.08 2.19,0.36 3.3,0.45 2.04,0.16 4.11,0.07 6.14,-0.22l0.09 -0.05c0.75,-0.22 1.55,-0.18 2.32,-0.34 2.43,-0.46 4.61,-2.02 6.45,-3.68 0.93,-0.84 1.75,-1.8 2.52,-2.78 0.28,-0.36 0.69,-0.63 0.92,-1.03 0.58,-0.75 1.09,-1.58 1.49,-2.45 0.26,-0.62 0.51,-1.24 0.74,-1.87 0.03,-0.05 0.05,-0.1 0.06,-0.16 0,-0.01 0,-0.03 0,-0.04 0,-0.02 0,-0.03 0.01,-0.05 0.05,-0.19 0.16,-0.36 0.21,-0.55l0 -0.04c0,-0.01 0,-0.03 0,-0.04 0.01,-0.05 0.02,-0.08 0.04,-0.13 0.01,-0.04 0.03,-0.07 0.05,-0.11l0.02 -0.04 0.02 0.01c0,0.02 0.01,0.03 0,0.06 -0,0.02 -0.01,0.06 -0.01,0.08 -0.6,1.94 -1,4.07 -2.27,5.66 -1.5,2.07 -3.19,4.05 -5.18,5.66 0.59,-0.2 1.14,-0.58 1.57,-1.03 0.01,-0.01 0.01,-0.03 0.02,-0.04 0.01,-0.02 0.01,-0.03 0.02,-0.05 0.31,-0.23 0.62,-0.47 0.92,-0.72 0.06,-0.07 0.14,-0.14 0.19,-0.2 0.05,-0.05 0.08,-0.08 0.12,-0.13l0.04 -0.09c0.95,-1.09 1.98,-2.15 2.75,-3.38 0.6,-0.96 0.96,-2.05 1.34,-3.12l0.03 -0.08 0 -0.05c0,-0.02 0,-0.03 0,-0.05 0.23,-0.8 0.44,-1.56 0.64,-2.36 0.13,-0.53 0.3,-2.02 0.1,-1.89 -0.12,0.08 -0.2,0.44 -0.37,0.82 -0.12,0.27 -0.27,0.51 -0.3,0.56z"/>
  <path class="fil1" d="M25.35 22.29l0.02 -0.13c0.02,-0.02 0.02,-0.05 0.04,-0.07 0.01,-0.03 0.02,-0.05 0.03,-0.08 0.02,-0.07 0.05,-0.14 0.07,-0.2 0.33,-1.1 0.5,-2.29 0.35,-3.43 0,-0.04 -0,-0.11 -0.01,-0.14 -0,-0.03 -0,-0.02 -0,-0.04 -0.06,-0.5 -0.14,-1.01 -0.22,-1.5l-0.02 -0.08c-0.03,-0.18 -0.07,-0.35 -0.12,-0.53 -0.02,-0.05 -0.05,-0.12 -0.07,-0.16 -0.01,-0.03 -0.01,-0.03 -0.01,-0.04l0 -0.03c0.01,0.02 0.03,0.04 0.03,0.06 0.02,0.01 0.01,0.01 0.02,0.02 0.06,0.13 0.11,0.26 0.16,0.39 0.01,0.04 0.01,0.07 0.02,0.11 0.01,0.03 0.01,0.05 0.01,0.07l0.04 0.17c0.09,0.43 0.18,0.86 0.22,1.29l0.02 0.17c0.14,0.67 0.19,1.38 0.11,2.07 0.03,0.3 -0.08,0.61 -0.16,0.9l-0.01 0.05c-0.13,0.39 -0.25,0.8 -0.42,1.18 -0.04,0.07 -0.07,0.14 -0.12,0.2l-0.02 -0.13 0.02 -0.11zm1.83 -5.73l-0.01 -0.04c-0.01,-0.03 0,-0.07 -0.01,-0.1 -0.01,-0.01 -0.02,-0.02 -0.03,-0.04 -0.02,-0.05 -0.03,-0.09 -0.04,-0.14 -0.12,-0.39 -0.18,-0.81 -0.39,-1.16 -0.33,-0.6 -0.71,-1.17 -1.09,-1.73l-0.02 -0.04c-0.01,-0.01 -0.02,-0.01 -0.02,-0.02 -0.01,-0.01 -0.02,-0.01 -0.02,-0.02 -0.18,-0.22 -0.36,-0.45 -0.54,-0.67 -0.05,-0.06 -0.11,-0.11 -0.17,-0.16 -0.01,-0.01 -0.01,-0.02 -0.01,-0.02 -0.01,-0.01 -0.02,-0.02 -0.02,-0.03 -0.29,-0.24 -0.57,-0.49 -0.9,-0.68 -0.55,-0.31 -1.16,-0.57 -1.78,-0.63l-0.03 0 -0.03 0c-0.58,-0.03 -1.15,-0.18 -1.73,-0.23 -1.07,-0.08 -2.16,-0.04 -3.22,0.12l-0.04 0.03c-0.4,0.11 -0.82,0.09 -1.22,0.17 -1.28,0.25 -2.42,1.07 -3.39,1.94 -0.49,0.44 -0.91,0.94 -1.32,1.46 -0.15,0.19 -0.36,0.33 -0.48,0.54 -0.31,0.39 -0.57,0.83 -0.78,1.29 -0.14,0.32 -0.27,0.66 -0.4,0.98 -0.01,0.03 -0.02,0.05 -0.04,0.08l0 0.02 0 0.02c-0.03,0.1 -0.09,0.19 -0.11,0.29l0 0.03 0 0.02c-0.01,0.02 -0.01,0.05 -0.02,0.07 -0.01,0.02 -0.02,0.04 -0.03,0.06l-0.01 0.02 -0.01 -0.01c0,-0.01 -0,-0.01 0,-0.03 0,-0.01 0,-0.03 0,-0.04 0.32,-1.02 0.53,-2.13 1.19,-2.97 0.79,-1.09 1.68,-2.13 2.73,-2.98 -0.31,0.11 -0.6,0.3 -0.83,0.54 -0,0.01 -0.01,0.02 -0.01,0.02 -0,0.01 -0.01,0.02 -0.01,0.02 -0.17,0.12 -0.32,0.25 -0.48,0.38 -0.03,0.04 -0.07,0.07 -0.1,0.1 -0.03,0.03 -0.04,0.04 -0.07,0.06l-0.02 0.05c-0.5,0.58 -1.04,1.13 -1.45,1.78 -0.31,0.51 -0.5,1.08 -0.7,1.64l-0.02 0.04 0 0.03c-0,0.01 -0,0.01 -0,0.03 -0.11,0.42 -0.24,0.84 -0.32,1.27 -0.03,0.15 -0.05,0.31 -0.06,0.47 0.01,0.3 0.29,-0.12 0.35,-0.23 0.18,-0.31 0.37,-0.62 0.58,-0.91 0.01,-0 0.01,-0 0.02,-0.01 0,-0 0.01,-0.01 0.02,-0.02 0.02,-0.03 0.04,-0.07 0.07,-0.1 0.35,-0.48 0.77,-0.9 1.18,-1.32 0.22,-0.23 0.45,-0.46 0.68,-0.68 0.05,-0.04 0.07,-0.07 0.13,-0.13 0.06,-0.06 0.15,-0.15 0.23,-0.22 0,0 0,0 0.01,-0.01 0.02,-0.01 0.04,-0.02 0.06,-0.03 0.28,-0.2 0.49,-0.47 0.77,-0.66 0.84,-0.61 1.82,-1.1 2.84,-1.26 0.64,-0.08 1.3,-0.06 1.94,-0.07 0.03,0 0.05,0.01 0.08,0.01 0.03,0 0.06,0 0.08,0.01 0.2,0 0.41,0 0.61,-0.01 0.37,-0.06 0.75,-0.04 1.11,0.04l0.02 0.01 0.02 0.01c0.1,0.03 0.22,0.04 0.32,0.05l0.04 0.01c0.81,0.18 1.67,0.35 2.36,0.8 0.12,0.09 0.22,0.18 0.32,0.28 0.04,0.04 0.08,0.09 0.12,0.13 0.02,0.04 0.05,0.09 0.08,0.12 0.07,0.09 0.14,0.18 0.19,0.28 0.5,0.78 0.89,1.68 1.01,2.61 0.03,0.27 0.05,0.56 0.03,0.84l-0 0.02c0,0.04 0.02,0.07 0.02,0.11 -0,0.01 -0,0.01 -0.01,0.02l0 0.02c0.04,0.34 0.08,0.68 0.05,1.02 -0.04,0.28 -0.17,0.53 -0.24,0.81 -0.17,0.61 -0.28,1.24 -0.39,1.86 -0.02,0.14 -0.05,0.29 -0.09,0.43 -0.08,0.23 -0.17,0.45 -0.27,0.66 -0.14,0.41 -0.3,0.82 -0.51,1.2 -0.1,0.17 -0.2,0.33 -0.31,0.48l-0.01 0.04c-0.03,0.04 -0.06,0.08 -0.08,0.11 -0.02,0.03 -0.02,0.03 -0.03,0.04 -0.02,0.04 -0.04,0.09 -0.05,0.13 -0.01,0.03 -0.02,0.04 -0.02,0.06 -0.19,0.29 -0.44,0.52 -0.7,0.75 -0.06,0.05 -0.13,0.1 -0.18,0.14 -0.05,0.05 -0.08,0.07 -0.12,0.1 -0.32,0.2 -0.65,0.4 -0.97,0.58 -0.47,0.25 -0.9,0.62 -1.4,0.79l-0.16 0.07 -0.12 0.01 -0.01 -0.01 0.02 -0.02 0.14 -0.15c0.02,-0.02 0.02,-0.01 0.08,-0.05 0.04,-0.04 0.14,-0.11 0.21,-0.17 0.01,-0 -0.02,0.02 0.02,-0.01 0.04,-0.02 0.14,-0.08 0.21,-0.14l0.01 -0.01c0.14,-0.08 0.26,-0.16 0.39,-0.23 0.02,-0.02 0.05,-0.05 0.06,-0.07 0.02,-0.02 0.03,-0.03 0.05,-0.05l0.1 -0.07c0.02,-0.03 0.04,-0.06 0.06,-0.08 0.04,-0.04 0.07,-0.15 0.02,-0.17 -0.09,-0.02 -0.18,0.08 -0.26,0.13 -0.18,0.1 -0.35,0.2 -0.53,0.3 -0.49,0.27 -1.02,0.48 -1.51,0.72 -0.15,0.06 -0.31,0.1 -0.47,0.14 -0.02,0.01 -0.04,0.01 -0.06,0.01 -0.02,0 -0.04,0 -0.07,0l-0.05 -0.04c-0.05,0.02 -0.1,0.02 -0.14,0.05l0 0.01 -0.01 0c-0.1,-0.01 -0.2,-0.06 -0.29,-0.12l-0.12 -0.02c-0.74,-0.11 -1.52,-0.16 -2.22,-0.42 -0.12,-0.04 -0.24,-0.08 -0.35,-0.13l-0.14 -0.08c-0.07,-0.04 -0.14,-0.08 -0.2,-0.12l-0.03 -0.01c-0.96,-0.5 -1.75,-1.41 -2.15,-2.4 -0.27,-0.6 -0.49,-1.25 -0.48,-1.91 0,-0.21 0,-0.42 0.03,-0.63l0.01 -0.03c0.03,-0.22 0.18,-0.84 0.14,-0.85 -0.12,-0.03 -0.35,0.65 -0.41,0.92 -0.11,0.44 -0.15,0.9 -0.1,1.35 0.06,0.53 0.18,1.06 0.36,1.56 0.08,0.22 0.17,0.42 0.27,0.62 0.03,0.05 0.04,0.1 0.07,0.16 0.03,0.06 0.08,0.14 0.11,0.22 0.11,0.15 0.19,0.32 0.29,0.47 0.03,0.04 0.05,0.07 0.08,0.1 0.39,0.54 0.82,1.06 1.34,1.47 1.02,0.75 2.23,1.19 3.39,1.7 0.56,0.21 1.22,0.29 1.79,0.13 0.23,-0.04 0.44,-0.08 0.66,-0.13l0.01 0.01c-0.27,0.11 -0.54,0.2 -0.83,0.27 -0.09,0.02 -0.19,0.03 -0.28,0.05 -0.2,0.04 -0.4,0.09 -0.6,0.11 -0.28,-0.01 -0.55,-0.05 -0.83,-0.12 -0.04,-0.01 -0.09,-0.03 -0.12,-0.04 -0.3,-0.09 -0.59,-0.17 -0.89,-0.27l-0.05 0c-0.52,-0.1 -0.99,-0.4 -1.49,-0.58 -0.4,-0.15 -0.78,-0.35 -1.14,-0.58l-0.03 -0.01c-0.15,-0.07 -0.29,-0.14 -0.43,-0.23 -0.02,-0.01 -0.03,-0.01 -0.05,-0.02 -0.03,-0.01 -0.06,-0.03 -0.09,-0.04l-0.02 0.02c-0.01,-0 -0.01,-0.01 -0.02,-0.01 -0.01,-0 -0.01,-0.01 -0.02,-0.01 -0.06,-0.02 0.04,0.12 0.08,0.17 0.12,0.14 0.23,0.27 0.36,0.4 0.56,0.58 1.39,0.79 2.12,1.14 0.03,0.01 0.06,0.03 0.08,0.05 0.35,0.17 0.73,0.26 1.09,0.38 0.02,0 0.01,0 0.04,0.01 0.03,0.02 0.1,0.04 0.15,0.05l0.32 0.12c0.2,0.06 0.4,0.1 0.61,0.12 0.1,0 0.21,0.01 0.32,0l0.03 0c0.16,0.02 0.32,0 0.47,-0.02 1.42,-0.16 2.79,-0.88 3.91,-1.78 0.78,-0.66 1.52,-1.39 2.19,-2.16 0,-0.01 0.01,-0.02 0.01,-0.02 0,-0 0,-0.02 0.01,-0.02 0.44,-0.59 0.91,-1.16 1.28,-1.8 0.21,-0.31 0.32,-0.67 0.52,-0.99 0.01,-0.01 0.01,0 0.01,-0.01 0,-0 0.02,-0.03 0.03,-0.03 0.12,-0.29 0.23,-0.6 0.33,-0.9 0.12,-0.39 0.22,-0.78 0.3,-1.18 0,-0.01 0,-0.02 0.01,-0.03 0,-0.01 0,-0.01 0.01,-0.02 -0.01,-0.01 -0.01,-0.02 -0.01,-0.02 -0,-0.01 -0.01,-0.02 -0.01,-0.02 0.01,-0.11 0.07,-0.21 0.07,-0.31 0,-0.01 -0.01,-0.02 -0.01,-0.03 -0,-0.01 -0,-0.02 -0.01,-0.02 0.03,-0.51 0.08,-1.03 0.05,-1.55 -0.03,-0.39 -0.15,-0.76 -0.22,-1.13 -0.1,-0.55 -0.16,-1.11 -0.3,-1.66 -0.15,-0.52 -0.43,-1 -0.69,-1.48 -0.3,-0.55 -0.65,-1.06 -1.07,-1.52 -0.04,-0.04 -0.1,-0.1 -0.13,-0.13 -0.03,-0.02 -0.01,-0.01 -0.02,-0.01l-0.06 -0.01 -0 0.06c-0.14,-0.04 -0.22,-0.18 -0.32,-0.28 -0.17,-0.16 -0.33,-0.32 -0.52,-0.45 -0.46,-0.32 -1.04,-0.45 -1.56,-0.69l-0.02 -0.02 0 -0.02c0.08,-0.02 0.15,-0 0.23,0.02 0.04,0.01 0.07,0.03 0.11,0.04 0.37,0.09 0.75,0.21 1.09,0.39 0.09,0.03 0.18,0.06 0.26,0.1l0.04 0.02 0.05 -0.02 -0.04 -0.05c0.03,-0.08 0.15,0.02 0.22,0.05 0.13,0.06 0.25,0.13 0.36,0.21 0.35,0.26 0.66,0.58 1.03,0.82 0.03,0 0.04,0.01 0.06,0.01 0.09,0.07 0.16,0.15 0.23,0.23l0.02 0.04c0.27,0.33 0.51,0.66 0.74,1.01 0.01,0.02 0,0 0.04,0.06 0.03,0.06 0.09,0.2 0.14,0.3 0.2,0.36 0.44,0.69 0.59,1.06 0.16,0.43 0.2,0.95 0.55,1.25l0.02 -0c0.07,-0.33 -0.13,-0.67 -0.22,-1.01z"/>
  <path class="fil2" d="M58.17 19.16c0,-4.45 -2.72,-7.51 -7.47,-7.51 -4.76,0 -7.48,3.06 -7.48,7.51 0,4.44 2.73,7.51 7.48,7.51 4.76,0 7.47,-3.06 7.47,-7.51zm-19.37 0c0,-5.69 3.34,-10.67 11.89,-10.67 8.55,0 11.9,4.99 11.9,10.67 0,5.69 -3.34,10.68 -11.9,10.68 -8.55,0 -11.89,-4.98 -11.89,-10.68z"/>
  <path class="fil2" d="M65.11 14.27l3.9 0 0 2.91 0.06 0c1.05,-1.7 2.66,-3.31 5.66,-3.31 0.6,0 1.05,0.06 1.56,0.14l0 3.86c-1.08,-0.34 -1.81,-0.37 -2.5,-0.37 -1.98,0 -4.79,1.05 -4.79,4.53l0 7.25 -3.9 0 0 -15.01z"/>
  <path class="fil2" d="M81.96 21.83c0,2.55 1.39,5.01 5.04,5.01 3.68,0 5.07,-2.46 5.07,-5.01 0,-2.5 -1.39,-4.95 -5.07,-4.95 -3.65,0 -5.04,2.46 -5.04,4.95zm-3.74 -13.11l3.91 0 0 7.7 0.06 0c1.16,-1.82 3.4,-2.56 5.75,-2.56 5.72,0 8.21,4.17 8.21,7.97 0,3.85 -2.49,8.01 -8.21,8.01 -3.12,0 -5.47,-1.73 -5.75,-2.63l-0.06 0 0 2.07 -3.91 0 0 -20.55z"/>
  <path class="fil2" d="M98.67 14.27l3.91 0 0 8.55c0,2.29 0.54,4.02 3.88,4.02 1.73,0 4.57,-1.14 4.57,-4.33l0 -8.24 3.9 0 0 15.01 -3.9 0 0 -2.09 -0.06 0c-1.28,1.61 -3.26,2.66 -5.92,2.66 -3.23,0 -6.37,-1.16 -6.37,-5.55l0 -10.02z"/>
  <path class="fil2" d="M121.58 24.56c0.11,2.27 2.72,2.61 4.14,2.61 1.95,0 4.08,-0.51 4.08,-1.92 0,-1.17 -0.66,-1.56 -4.88,-2.13 -4.64,-0.62 -7.08,-1.16 -7.08,-4.59 0,-4.28 4.99,-4.84 7.51,-4.84 2.32,0 7.9,0.34 8.13,5.15l-4.08 0c-0.31,-2.24 -2.92,-2.49 -4.25,-2.49 -2.21,0 -3.4,0.93 -3.4,1.73 0,1.22 0.37,1.42 4.13,1.95 4.93,0.71 8.15,1.19 8.15,4.68 0,3.82 -3.64,5.12 -8.29,5.12 -3.2,0 -8.27,-0.67 -8.41,-5.27l4.25 0z"/>
  <polygon class="fil2" points="136.93,9.05 141.8,9.05 153.83,24.23 153.89,24.23 153.89,9.05 157.96,9.05 157.96,29.27 153.18,29.27 141.06,14.09 141,14.09 141,29.27 136.93,29.27 "/>
  <path class="fil2" d="M175.3 20.27c-0.49,-3.01 -3.15,-3.91 -5.08,-3.91 -1.81,0 -4.36,0.85 -5.01,3.91l10.09 0zm-10.09 2.49c0.09,1.67 1.22,4.24 5.1,4.24 2.57,0 3.71,-0.9 4.47,-2.15l4.25 0c-0.85,1.68 -2.89,4.98 -8.61,4.98 -6.77,0 -9.29,-3.93 -9.29,-7.92 0,-5.02 3.71,-8.21 9.03,-8.21 6.66,0 9.21,4.11 9.21,8.5l0 0.57 -14.17 0z"/>
  <path class="fil2" d="M182.18 14.27l3.91 0 0 15 -3.91 0 0 -15zm0 -5.55l3.91 0 0 3.16 -3.91 0 0 -3.16z"/>
  <path class="fil2" d="M202.17 19.53c-0.28,-1.55 -1.92,-2.83 -4.16,-2.83 -3.63,0 -5.21,2.47 -5.21,5.07 0,2.61 1.41,5.07 4.79,5.07 3.03,0 3.84,-1.19 4.66,-3.31l4.08 0c-0.91,6.22 -7.28,6.31 -8.33,6.31 -6.72,0 -9.29,-3.93 -9.29,-8.07 0,-4.85 3.48,-8.07 9.29,-8.07 2.27,0 7.42,0.77 8.24,5.83l-4.08 0z"/>
  <path class="fil2" d="M208.78 8.71l3.91 0 0 7.81 0.06 0c1.28,-1.61 3.26,-2.66 5.92,-2.66 3.23,0 6.38,1.17 6.38,5.22l0 10.19 -3.91 0 0 -8.95c0,-1.62 -0.54,-3.45 -3.76,-3.45 -2.04,0 -4.67,1.13 -4.67,4.33l0 8.07 -3.91 0 0 -20.56z"/>
  <path class="fil3" d="M3.93 15.22l-0.04 0.25c-0.03,0.05 -0.05,0.09 -0.07,0.14 -0.02,0.05 -0.04,0.1 -0.06,0.15 -0.04,0.13 -0.08,0.25 -0.12,0.38 -0.63,2.09 -0.96,4.35 -0.67,6.52 0,0.09 0.01,0.2 0.01,0.26 0.01,0.06 0.01,0.05 0.01,0.07 0.1,0.96 0.25,1.91 0.42,2.86l0.03 0.16c0.07,0.33 0.15,0.66 0.23,0.99 0.04,0.1 0.09,0.24 0.12,0.3 0.03,0.07 0.02,0.06 0.03,0.09l0 0.05c-0.02,-0.04 -0.06,-0.09 -0.08,-0.11 -0.02,-0.02 -0.01,-0.02 -0.03,-0.03 -0.11,-0.24 -0.21,-0.49 -0.29,-0.74 -0.01,-0.06 -0.03,-0.14 -0.04,-0.19 -0.02,-0.06 -0.02,-0.1 -0.03,-0.14l-0.07 -0.33c-0.17,-0.81 -0.33,-1.62 -0.43,-2.44l-0.03 -0.33c-0.27,-1.28 -0.37,-2.62 -0.22,-3.92 -0.06,-0.58 0.16,-1.16 0.3,-1.73l0.02 -0.08c0.24,-0.76 0.47,-1.52 0.79,-2.25 0.07,-0.13 0.13,-0.28 0.23,-0.39l0.03 0.26 -0.04 0.2zm30.25 7.81c-0.34,0.6 -0.69,1.19 -1.11,1.74 -0.01,0.01 -0.02,0.02 -0.03,0.03 -0.01,0.01 -0.02,0.02 -0.04,0.02 -0.04,0.06 -0.07,0.14 -0.13,0.21 -0.66,0.9 -1.46,1.71 -2.25,2.51 -0.41,0.45 -0.84,0.88 -1.29,1.29 -0.08,0.08 -0.13,0.13 -0.24,0.25 -0.12,0.11 -0.29,0.28 -0.44,0.41 -0,0.01 0,0 -0.02,0.02 -0.02,0.01 -0.08,0.04 -0.11,0.07 -0.52,0.37 -0.93,0.88 -1.45,1.25 -1.6,1.15 -3.45,2.1 -5.4,2.4 -1.22,0.15 -2.46,0.12 -3.7,0.12 -0.06,-0 -0.11,-0.01 -0.16,-0.01 -0.05,-0.01 -0.11,-0.01 -0.16,-0.01 -0.39,-0 -0.79,-0 -1.18,0.02 -0.69,0.11 -1.41,0.08 -2.09,-0.07l-0.04 -0.02 -0.04 -0.02c-0.2,-0.06 -0.41,-0.07 -0.61,-0.09l-0.07 -0.01c-1.55,-0.33 -3.17,-0.67 -4.5,-1.54 -0.22,-0.15 -0.42,-0.34 -0.61,-0.53 -0.08,-0.07 -0.15,-0.16 -0.22,-0.24 -0.05,-0.08 -0.1,-0.15 -0.15,-0.23 -0.13,-0.17 -0.25,-0.33 -0.35,-0.52 -0.95,-1.49 -1.7,-3.2 -1.91,-4.96 -0.06,-0.53 -0.1,-1.06 -0.07,-1.59l0.01 -0.04c-0.01,-0.07 -0.05,-0.14 -0.05,-0.21 0,-0.01 0,-0.03 0.01,-0.05 0,-0.01 0.01,-0.02 0.01,-0.03 -0.07,-0.64 -0.16,-1.29 -0.09,-1.93 0.07,-0.53 0.32,-1.02 0.47,-1.54 0.32,-1.16 0.53,-2.35 0.73,-3.54 0.05,-0.27 0.11,-0.55 0.18,-0.82 0.16,-0.42 0.33,-0.84 0.52,-1.25 0.26,-0.78 0.57,-1.56 0.97,-2.29 0.18,-0.31 0.38,-0.62 0.58,-0.92l0.02 -0.08c0.05,-0.07 0.11,-0.16 0.15,-0.2 0.04,-0.05 0.04,-0.05 0.05,-0.07 0.03,-0.08 0.07,-0.19 0.09,-0.25 0.02,-0.06 0.03,-0.07 0.04,-0.11 0.37,-0.54 0.85,-0.99 1.34,-1.42 0.11,-0.1 0.24,-0.21 0.34,-0.28 0.09,-0.08 0.16,-0.12 0.24,-0.19 0.61,-0.38 1.23,-0.74 1.85,-1.1 0.9,-0.49 1.7,-1.19 2.67,-1.52l0.29 -0.13 0.23 -0.03 0.01 0.03 -0.03 0.03 -0.26 0.28c-0.05,0.04 -0.04,0.04 -0.14,0.1 -0.09,0.07 -0.27,0.21 -0.41,0.32 -0.01,0.01 -0.02,0.01 -0.03,0.02 -0.07,0.05 -0.27,0.17 -0.41,0.26l-0.02 0.03c-0.25,0.14 -0.5,0.29 -0.75,0.45 -0.04,0.04 -0.09,0.09 -0.12,0.12 -0.03,0.03 -0.06,0.06 -0.09,0.09l-0.18 0.12c-0.04,0.06 -0.08,0.11 -0.12,0.16 -0.06,0.09 -0.14,0.29 -0.03,0.33 0.18,0.04 0.34,-0.15 0.5,-0.25 0.33,-0.19 0.67,-0.38 1,-0.57 0.93,-0.51 1.92,-0.89 2.87,-1.37 0.29,-0.11 0.59,-0.19 0.89,-0.26 0.04,0 0.08,-0 0.12,-0l0.12 0 0.1 0.07c0.09,-0.03 0.18,-0.04 0.27,-0.08l0 -0.02 0 -0.01c0.2,0.02 0.39,0.13 0.56,0.24l0.22 0.03c1.41,0.21 2.88,0.3 4.22,0.81 0.22,0.08 0.45,0.16 0.67,0.26l0.26 0.14c0.14,0.07 0.27,0.15 0.39,0.24l0.06 0.02c1.82,0.94 3.33,2.67 4.09,4.57 0.52,1.14 0.93,2.38 0.91,3.62 0.01,0.4 0,0.81 -0.06,1.2l-0.01 0.08c-0.06,0.43 -0.27,0.89 -0.09,1.31 0.37,-0.38 0.5,-0.93 0.62,-1.44 0.19,-0.83 0.28,-1.7 0.19,-2.55 -0.1,-1.02 -0.33,-2.03 -0.68,-2.99 -0.15,-0.4 -0.32,-0.8 -0.52,-1.18 -0.04,-0.1 -0.08,-0.19 -0.14,-0.3 -0.06,-0.12 -0.15,-0.28 -0.22,-0.42 -0.19,-0.29 -0.34,-0.61 -0.55,-0.89 -0.05,-0.06 -0.1,-0.13 -0.15,-0.19 -0.73,-1.03 -1.56,-2.02 -2.55,-2.81 -1.93,-1.43 -4.26,-2.25 -6.46,-3.21 -1.06,-0.4 -2.31,-0.55 -3.41,-0.25 -0.42,0.07 -0.84,0.17 -1.25,0.27l-0.01 -0.03c0.51,-0.21 1.03,-0.39 1.56,-0.52 0.18,-0.04 0.36,-0.06 0.55,-0.09 0.38,-0.07 0.75,-0.16 1.13,-0.21 0.53,0.03 1.06,0.1 1.57,0.23 0.09,0.03 0.17,0.06 0.24,0.08 0.57,0.16 1.13,0.31 1.68,0.51l0.09 -0c0.99,0.19 1.87,0.77 2.83,1.1 0.76,0.29 1.49,0.66 2.18,1.1l0.05 0.02c0.28,0.14 0.55,0.28 0.82,0.44 0.03,0.01 0.04,0.02 0.09,0.04 0.05,0.02 0.12,0.06 0.17,0.09l0.03 -0.04c0.02,0.01 0.02,0.02 0.04,0.03 0.01,0 0.02,0.02 0.04,0.03 0.12,0.02 -0.07,-0.25 -0.15,-0.34 -0.22,-0.25 -0.45,-0.5 -0.68,-0.75 -1.06,-1.09 -2.65,-1.51 -4.02,-2.16 -0.06,-0.03 -0.11,-0.06 -0.16,-0.09 -0.66,-0.32 -1.38,-0.48 -2.07,-0.71 -0.03,-0.01 -0.03,-0.01 -0.08,-0.03 -0.06,-0.02 -0.19,-0.06 -0.28,-0.09l-0.61 -0.22c-0.38,-0.11 -0.75,-0.18 -1.15,-0.23 -0.2,-0.01 -0.4,-0.01 -0.6,-0l-0.06 -0.02c-0.29,-0.02 -0.59,0 -0.89,0.05 -2.7,0.31 -5.3,1.68 -7.43,3.37 -1.5,1.26 -2.9,2.64 -4.18,4.12 -0.01,0.02 -0.01,0.03 -0.02,0.04 -0.01,0.02 -0.01,0.03 -0.02,0.04 -0.82,1.13 -1.72,2.21 -2.43,3.42 -0.4,0.58 -0.6,1.29 -0.99,1.88l-0.01 0.01c-0.01,0.01 -0.04,0.04 -0.05,0.06 -0.24,0.56 -0.44,1.14 -0.63,1.72 -0.23,0.74 -0.43,1.48 -0.57,2.24 0,0.02 -0.01,0.04 -0.01,0.05 -0,0.02 -0.01,0.02 -0.01,0.04 0,0.02 0.01,0.03 0.01,0.05 0,0.01 0,0.03 0.01,0.04 -0.02,0.2 -0.13,0.4 -0.14,0.6 0,0.02 0.01,0.03 0.01,0.05 0,0.02 0.01,0.03 0.01,0.05 -0.06,0.98 -0.15,1.96 -0.09,2.94 0.05,0.73 0.28,1.44 0.41,2.16 0.19,1.05 0.31,2.12 0.57,3.15 0.29,1 0.81,1.92 1.31,2.82 0.57,1.03 1.23,2.03 2.04,2.88 0.08,0.08 0.2,0.2 0.25,0.24 0.05,0.04 0.03,0.02 0.04,0.03l0.12 0.02 0 -0.12c0.26,0.07 0.41,0.34 0.6,0.53 0.31,0.3 0.63,0.6 0.98,0.87 0.88,0.62 1.98,0.86 2.97,1.31l0.03 0.03 -0 0.04c-0.14,0.04 -0.3,0 -0.44,-0.03 -0.07,-0.02 -0.14,-0.05 -0.2,-0.08 -0.72,-0.17 -1.42,-0.41 -2.07,-0.73 -0.18,-0.06 -0.34,-0.13 -0.51,-0.2l-0.08 -0.04 -0.1 0.05 0.07 0.1c-0.04,0.12 -0.28,-0.05 -0.41,-0.11 -0.24,-0.11 -0.47,-0.24 -0.69,-0.4 -0.67,-0.49 -1.27,-1.1 -1.97,-1.56 -0.04,-0 -0.08,-0.02 -0.11,-0.03 -0.17,-0.12 -0.31,-0.27 -0.44,-0.43l-0.04 -0.07c-0.51,-0.62 -0.97,-1.25 -1.41,-1.92 -0.02,-0.03 -0,-0 -0.06,-0.12 -0.06,-0.11 -0.18,-0.37 -0.27,-0.57 -0.37,-0.68 -0.84,-1.31 -1.13,-2.03 -0.3,-0.8 -0.38,-1.8 -1.04,-2.36l-0.03 0.01c-0.13,0.63 0.25,1.28 0.41,1.9l0.03 0.08c0,0.06 -0.01,0.12 0.01,0.18 0.01,0.02 0.05,0.05 0.06,0.07 0.03,0.09 0.05,0.17 0.08,0.26 0.23,0.74 0.34,1.54 0.75,2.21 0.62,1.14 1.34,2.21 2.06,3.29l0.06 0.08c0.01,0.01 0.03,0.02 0.04,0.03 0.02,0.01 0.03,0.02 0.04,0.03 0.35,0.42 0.68,0.85 1.03,1.27 0.11,0.11 0.21,0.21 0.32,0.31 0.01,0.02 0.02,0.03 0.03,0.04 0.01,0.01 0.03,0.03 0.05,0.05 0.54,0.46 1.09,0.93 1.69,1.29 1.05,0.59 2.2,1.09 3.4,1.21 0.02,-0 0.03,-0 0.06,-0 0.01,0 0.03,-0.01 0.05,-0.01 1.11,0.08 2.19,0.36 3.3,0.45 2.04,0.16 4.11,0.07 6.14,-0.22l0.09 -0.05c0.75,-0.22 1.55,-0.18 2.32,-0.34 2.43,-0.46 4.61,-2.02 6.45,-3.68 0.93,-0.84 1.75,-1.8 2.52,-2.78 0.28,-0.36 0.69,-0.63 0.92,-1.03 0.58,-0.75 1.09,-1.58 1.49,-2.45 0.26,-0.62 0.51,-1.24 0.74,-1.87 0.03,-0.05 0.05,-0.1 0.06,-0.16 0,-0.01 0,-0.03 0,-0.04 0,-0.02 0,-0.03 0.01,-0.05 0.05,-0.19 0.16,-0.36 0.21,-0.55l0 -0.04c0,-0.01 0,-0.03 0,-0.04 0.01,-0.05 0.02,-0.08 0.04,-0.13 0.01,-0.04 0.03,-0.07 0.05,-0.11l0.02 -0.04 0.02 0.01c0,0.02 0.01,0.03 0,0.06 -0,0.02 -0.01,0.06 -0.01,0.08 -0.6,1.94 -1,4.07 -2.27,5.66 -1.5,2.07 -3.19,4.05 -5.18,5.66 0.59,-0.2 1.14,-0.58 1.57,-1.03 0.01,-0.01 0.01,-0.03 0.02,-0.04 0.01,-0.02 0.01,-0.03 0.02,-0.05 0.31,-0.23 0.62,-0.47 0.92,-0.72 0.06,-0.07 0.14,-0.14 0.19,-0.2 0.05,-0.05 0.08,-0.08 0.12,-0.13l0.04 -0.09c0.95,-1.09 1.98,-2.15 2.75,-3.38 0.6,-0.96 0.96,-2.05 1.34,-3.12l0.03 -0.08 0 -0.05c0,-0.02 0,-0.03 0,-0.05 0.23,-0.8 0.44,-1.56 0.64,-2.36 0.13,-0.53 0.3,-2.02 0.1,-1.89 -0.12,0.08 -0.2,0.44 -0.37,0.82 -0.12,0.27 -0.27,0.51 -0.3,0.56z"/>
  <path class="fil4" d="M25.35 22.29l0.02 -0.13c0.02,-0.02 0.02,-0.05 0.04,-0.07 0.01,-0.03 0.02,-0.05 0.03,-0.08 0.02,-0.07 0.05,-0.14 0.07,-0.2 0.33,-1.1 0.5,-2.29 0.35,-3.43 0,-0.04 -0,-0.11 -0.01,-0.14 -0,-0.03 -0,-0.02 -0,-0.04 -0.06,-0.5 -0.14,-1.01 -0.22,-1.5l-0.02 -0.08c-0.03,-0.18 -0.07,-0.35 -0.12,-0.53 -0.02,-0.05 -0.05,-0.12 -0.07,-0.16 -0.01,-0.03 -0.01,-0.03 -0.01,-0.04l0 -0.03c0.01,0.02 0.03,0.04 0.03,0.06 0.02,0.01 0.01,0.01 0.02,0.02 0.06,0.13 0.11,0.26 0.16,0.39 0.01,0.04 0.01,0.07 0.02,0.11 0.01,0.03 0.01,0.05 0.01,0.07l0.04 0.17c0.09,0.43 0.18,0.86 0.22,1.29l0.02 0.17c0.14,0.67 0.19,1.38 0.11,2.07 0.03,0.3 -0.08,0.61 -0.16,0.9l-0.01 0.05c-0.13,0.39 -0.25,0.8 -0.42,1.18 -0.04,0.07 -0.07,0.14 -0.12,0.2l-0.02 -0.13 0.02 -0.11zm1.83 -5.73l-0.01 -0.04c-0.01,-0.03 0,-0.07 -0.01,-0.1 -0.01,-0.01 -0.02,-0.02 -0.03,-0.04 -0.02,-0.05 -0.03,-0.09 -0.04,-0.14 -0.12,-0.39 -0.18,-0.81 -0.39,-1.16 -0.33,-0.6 -0.71,-1.17 -1.09,-1.73l-0.02 -0.04c-0.01,-0.01 -0.02,-0.01 -0.02,-0.02 -0.01,-0.01 -0.02,-0.01 -0.02,-0.02 -0.18,-0.22 -0.36,-0.45 -0.54,-0.67 -0.05,-0.06 -0.11,-0.11 -0.17,-0.16 -0.01,-0.01 -0.01,-0.02 -0.01,-0.02 -0.01,-0.01 -0.02,-0.02 -0.02,-0.03 -0.29,-0.24 -0.57,-0.49 -0.9,-0.68 -0.55,-0.31 -1.16,-0.57 -1.78,-0.63l-0.03 0 -0.03 0c-0.58,-0.03 -1.15,-0.18 -1.73,-0.23 -1.07,-0.08 -2.16,-0.04 -3.22,0.12l-0.04 0.03c-0.4,0.11 -0.82,0.09 -1.22,0.17 -1.28,0.25 -2.42,1.07 -3.39,1.94 -0.49,0.44 -0.91,0.94 -1.32,1.46 -0.15,0.19 -0.36,0.33 -0.48,0.54 -0.31,0.39 -0.57,0.83 -0.78,1.29 -0.14,0.32 -0.27,0.66 -0.4,0.98 -0.01,0.03 -0.02,0.05 -0.04,0.08l0 0.02 0 0.02c-0.03,0.1 -0.09,0.19 -0.11,0.29l0 0.03 0 0.02c-0.01,0.02 -0.01,0.05 -0.02,0.07 -0.01,0.02 -0.02,0.04 -0.03,0.06l-0.01 0.02 -0.01 -0.01c0,-0.01 -0,-0.01 0,-0.03 0,-0.01 0,-0.03 0,-0.04 0.32,-1.02 0.53,-2.13 1.19,-2.97 0.79,-1.09 1.68,-2.13 2.73,-2.98 -0.31,0.11 -0.6,0.3 -0.83,0.54 -0,0.01 -0.01,0.02 -0.01,0.02 -0,0.01 -0.01,0.02 -0.01,0.02 -0.17,0.12 -0.32,0.25 -0.48,0.38 -0.03,0.04 -0.07,0.07 -0.1,0.1 -0.03,0.03 -0.04,0.04 -0.07,0.06l-0.02 0.05c-0.5,0.58 -1.04,1.13 -1.45,1.78 -0.31,0.51 -0.5,1.08 -0.7,1.64l-0.02 0.04 0 0.03c-0,0.01 -0,0.01 -0,0.03 -0.11,0.42 -0.24,0.84 -0.32,1.27 -0.03,0.15 -0.05,0.31 -0.06,0.47 0.01,0.3 0.29,-0.12 0.35,-0.23 0.18,-0.31 0.37,-0.62 0.58,-0.91 0.01,-0 0.01,-0 0.02,-0.01 0,-0 0.01,-0.01 0.02,-0.02 0.02,-0.03 0.04,-0.07 0.07,-0.1 0.35,-0.48 0.77,-0.9 1.18,-1.32 0.22,-0.23 0.45,-0.46 0.68,-0.68 0.05,-0.04 0.07,-0.07 0.13,-0.13 0.06,-0.06 0.15,-0.15 0.23,-0.22 0,0 0,0 0.01,-0.01 0.02,-0.01 0.04,-0.02 0.06,-0.03 0.28,-0.2 0.49,-0.47 0.77,-0.66 0.84,-0.61 1.82,-1.1 2.84,-1.26 0.64,-0.08 1.3,-0.06 1.94,-0.07 0.03,0 0.05,0.01 0.08,0.01 0.03,0 0.06,0 0.08,0.01 0.2,0 0.41,0 0.61,-0.01 0.37,-0.06 0.75,-0.04 1.11,0.04l0.02 0.01 0.02 0.01c0.1,0.03 0.22,0.04 0.32,0.05l0.04 0.01c0.81,0.18 1.67,0.35 2.36,0.8 0.12,0.09 0.22,0.18 0.32,0.28 0.04,0.04 0.08,0.09 0.12,0.13 0.02,0.04 0.05,0.09 0.08,0.12 0.07,0.09 0.14,0.18 0.19,0.28 0.5,0.78 0.89,1.68 1.01,2.61 0.03,0.27 0.05,0.56 0.03,0.84l-0 0.02c0,0.04 0.02,0.07 0.02,0.11 -0,0.01 -0,0.01 -0.01,0.02l0 0.02c0.04,0.34 0.08,0.68 0.05,1.02 -0.04,0.28 -0.17,0.53 -0.24,0.81 -0.17,0.61 -0.28,1.24 -0.39,1.86 -0.02,0.14 -0.05,0.29 -0.09,0.43 -0.08,0.23 -0.17,0.45 -0.27,0.66 -0.14,0.41 -0.3,0.82 -0.51,1.2 -0.1,0.17 -0.2,0.33 -0.31,0.48l-0.01 0.04c-0.03,0.04 -0.06,0.08 -0.08,0.11 -0.02,0.03 -0.02,0.03 -0.03,0.04 -0.02,0.04 -0.04,0.09 -0.05,0.13 -0.01,0.03 -0.02,0.04 -0.02,0.06 -0.19,0.29 -0.44,0.52 -0.7,0.75 -0.06,0.05 -0.13,0.1 -0.18,0.14 -0.05,0.05 -0.08,0.07 -0.12,0.1 -0.32,0.2 -0.65,0.4 -0.97,0.58 -0.47,0.25 -0.9,0.62 -1.4,0.79l-0.16 0.07 -0.12 0.01 -0.01 -0.01 0.02 -0.02 0.14 -0.15c0.02,-0.02 0.02,-0.01 0.08,-0.05 0.04,-0.04 0.14,-0.11 0.21,-0.17 0.01,-0 -0.02,0.02 0.02,-0.01 0.04,-0.02 0.14,-0.08 0.21,-0.14l0.01 -0.01c0.14,-0.08 0.26,-0.16 0.39,-0.23 0.02,-0.02 0.05,-0.05 0.06,-0.07 0.02,-0.02 0.03,-0.03 0.05,-0.05l0.1 -0.07c0.02,-0.03 0.04,-0.06 0.06,-0.08 0.04,-0.04 0.07,-0.15 0.02,-0.17 -0.09,-0.02 -0.18,0.08 -0.26,0.13 -0.18,0.1 -0.35,0.2 -0.53,0.3 -0.49,0.27 -1.02,0.48 -1.51,0.72 -0.15,0.06 -0.31,0.1 -0.47,0.14 -0.02,0.01 -0.04,0.01 -0.06,0.01 -0.02,0 -0.04,0 -0.07,0l-0.05 -0.04c-0.05,0.02 -0.1,0.02 -0.14,0.05l0 0.01 -0.01 0c-0.1,-0.01 -0.2,-0.06 -0.29,-0.12l-0.12 -0.02c-0.74,-0.11 -1.52,-0.16 -2.22,-0.42 -0.12,-0.04 -0.24,-0.08 -0.35,-0.13l-0.14 -0.08c-0.07,-0.04 -0.14,-0.08 -0.2,-0.12l-0.03 -0.01c-0.96,-0.5 -1.75,-1.41 -2.15,-2.4 -0.27,-0.6 -0.49,-1.25 -0.48,-1.91 0,-0.21 0,-0.42 0.03,-0.63l0.01 -0.03c0.03,-0.22 0.18,-0.84 0.14,-0.85 -0.12,-0.03 -0.35,0.65 -0.41,0.92 -0.11,0.44 -0.15,0.9 -0.1,1.35 0.06,0.53 0.18,1.06 0.36,1.56 0.08,0.22 0.17,0.42 0.27,0.62 0.03,0.05 0.04,0.1 0.07,0.16 0.03,0.06 0.08,0.14 0.11,0.22 0.11,0.15 0.19,0.32 0.29,0.47 0.03,0.04 0.05,0.07 0.08,0.1 0.39,0.54 0.82,1.06 1.34,1.47 1.02,0.75 2.23,1.19 3.39,1.7 0.56,0.21 1.22,0.29 1.79,0.13 0.23,-0.04 0.44,-0.08 0.66,-0.13l0.01 0.01c-0.27,0.11 -0.54,0.2 -0.83,0.27 -0.09,0.02 -0.19,0.03 -0.28,0.05 -0.2,0.04 -0.4,0.09 -0.6,0.11 -0.28,-0.01 -0.55,-0.05 -0.83,-0.12 -0.04,-0.01 -0.09,-0.03 -0.12,-0.04 -0.3,-0.09 -0.59,-0.17 -0.89,-0.27l-0.05 0c-0.52,-0.1 -0.99,-0.4 -1.49,-0.58 -0.4,-0.15 -0.78,-0.35 -1.14,-0.58l-0.03 -0.01c-0.15,-0.07 -0.29,-0.14 -0.43,-0.23 -0.02,-0.01 -0.03,-0.01 -0.05,-0.02 -0.03,-0.01 -0.06,-0.03 -0.09,-0.04l-0.02 0.02c-0.01,-0 -0.01,-0.01 -0.02,-0.01 -0.01,-0 -0.01,-0.01 -0.02,-0.01 -0.06,-0.02 0.04,0.12 0.08,0.17 0.12,0.14 0.23,0.27 0.36,0.4 0.56,0.58 1.39,0.79 2.12,1.14 0.03,0.01 0.06,0.03 0.08,0.05 0.35,0.17 0.73,0.26 1.09,0.38 0.02,0 0.01,0 0.04,0.01 0.03,0.02 0.1,0.04 0.15,0.05l0.32 0.12c0.2,0.06 0.4,0.1 0.61,0.12 0.1,0 0.21,0.01 0.32,0l0.03 0c0.16,0.02 0.32,0 0.47,-0.02 1.42,-0.16 2.79,-0.88 3.91,-1.78 0.78,-0.66 1.52,-1.39 2.19,-2.16 0,-0.01 0.01,-0.02 0.01,-0.02 0,-0 0,-0.02 0.01,-0.02 0.44,-0.59 0.91,-1.16 1.28,-1.8 0.21,-0.31 0.32,-0.67 0.52,-0.99 0.01,-0.01 0.01,0 0.01,-0.01 0,-0 0.02,-0.03 0.03,-0.03 0.12,-0.29 0.23,-0.6 0.33,-0.9 0.12,-0.39 0.22,-0.78 0.3,-1.18 0,-0.01 0,-0.02 0.01,-0.03 0,-0.01 0,-0.01 0.01,-0.02 -0.01,-0.01 -0.01,-0.02 -0.01,-0.02 -0,-0.01 -0.01,-0.02 -0.01,-0.02 0.01,-0.11 0.07,-0.21 0.07,-0.31 0,-0.01 -0.01,-0.02 -0.01,-0.03 -0,-0.01 -0,-0.02 -0.01,-0.02 0.03,-0.51 0.08,-1.03 0.05,-1.55 -0.03,-0.39 -0.15,-0.76 -0.22,-1.13 -0.1,-0.55 -0.16,-1.11 -0.3,-1.66 -0.15,-0.52 -0.43,-1 -0.69,-1.48 -0.3,-0.55 -0.65,-1.06 -1.07,-1.52 -0.04,-0.04 -0.1,-0.1 -0.13,-0.13 -0.03,-0.02 -0.01,-0.01 -0.02,-0.01l-0.06 -0.01 -0 0.06c-0.14,-0.04 -0.22,-0.18 -0.32,-0.28 -0.17,-0.16 -0.33,-0.32 -0.52,-0.45 -0.46,-0.32 -1.04,-0.45 -1.56,-0.69l-0.02 -0.02 0 -0.02c0.08,-0.02 0.15,-0 0.23,0.02 0.04,0.01 0.07,0.03 0.11,0.04 0.37,0.09 0.75,0.21 1.09,0.39 0.09,0.03 0.18,0.06 0.26,0.1l0.04 0.02 0.05 -0.02 -0.04 -0.05c0.03,-0.08 0.15,0.02 0.22,0.05 0.13,0.06 0.25,0.13 0.36,0.21 0.35,0.26 0.66,0.58 1.03,0.82 0.03,0 0.04,0.01 0.06,0.01 0.09,0.07 0.16,0.15 0.23,0.23l0.02 0.04c0.27,0.33 0.51,0.66 0.74,1.01 0.01,0.02 0,0 0.04,0.06 0.03,0.06 0.09,0.2 0.14,0.3 0.2,0.36 0.44,0.69 0.59,1.06 0.16,0.43 0.2,0.95 0.55,1.25l0.02 -0c0.07,-0.33 -0.13,-0.67 -0.22,-1.01z"/>
  <path class="fil2" d="M58.17 19.16c0,-4.45 -2.72,-7.51 -7.47,-7.51 -4.76,0 -7.48,3.06 -7.48,7.51 0,4.44 2.73,7.51 7.48,7.51 4.76,0 7.47,-3.06 7.47,-7.51zm-19.37 0c0,-5.69 3.34,-10.67 11.89,-10.67 8.55,0 11.9,4.99 11.9,10.67 0,5.69 -3.34,10.68 -11.9,10.68 -8.55,0 -11.89,-4.98 -11.89,-10.68z"/>
  <path class="fil2" d="M65.11 14.27l3.9 0 0 2.91 0.06 0c1.05,-1.7 2.66,-3.31 5.66,-3.31 0.6,0 1.05,0.06 1.56,0.14l0 3.86c-1.08,-0.34 -1.81,-0.37 -2.5,-0.37 -1.98,0 -4.79,1.05 -4.79,4.53l0 7.25 -3.9 0 0 -15.01z"/>
  <path class="fil2" d="M81.96 21.83c0,2.55 1.39,5.01 5.04,5.01 3.68,0 5.07,-2.46 5.07,-5.01 0,-2.5 -1.39,-4.95 -5.07,-4.95 -3.65,0 -5.04,2.46 -5.04,4.95zm-3.74 -13.11l3.91 0 0 7.7 0.06 0c1.16,-1.82 3.4,-2.56 5.75,-2.56 5.72,0 8.21,4.17 8.21,7.97 0,3.85 -2.49,8.01 -8.21,8.01 -3.12,0 -5.47,-1.73 -5.75,-2.63l-0.06 0 0 2.07 -3.91 0 0 -20.55z"/>
  <path class="fil2" d="M98.67 14.27l3.91 0 0 8.55c0,2.29 0.54,4.02 3.88,4.02 1.73,0 4.57,-1.14 4.57,-4.33l0 -8.24 3.9 0 0 15.01 -3.9 0 0 -2.09 -0.06 0c-1.28,1.61 -3.26,2.66 -5.92,2.66 -3.23,0 -6.37,-1.16 -6.37,-5.55l0 -10.02z"/>
  <path class="fil2" d="M121.58 24.56c0.11,2.27 2.72,2.61 4.14,2.61 1.95,0 4.08,-0.51 4.08,-1.92 0,-1.17 -0.66,-1.56 -4.88,-2.13 -4.64,-0.62 -7.08,-1.16 -7.08,-4.59 0,-4.28 4.99,-4.84 7.51,-4.84 2.32,0 7.9,0.34 8.13,5.15l-4.08 0c-0.31,-2.24 -2.92,-2.49 -4.25,-2.49 -2.21,0 -3.4,0.93 -3.4,1.73 0,1.22 0.37,1.42 4.13,1.95 4.93,0.71 8.15,1.19 8.15,4.68 0,3.82 -3.64,5.12 -8.29,5.12 -3.2,0 -8.27,-0.67 -8.41,-5.27l4.25 0z"/>
  <polygon class="fil2" points="136.93,9.05 141.8,9.05 153.83,24.23 153.89,24.23 153.89,9.05 157.96,9.05 157.96,29.27 153.18,29.27 141.06,14.09 141,14.09 141,29.27 136.93,29.27 "/>
  <path class="fil2" d="M175.3 20.27c-0.49,-3.01 -3.15,-3.91 -5.08,-3.91 -1.81,0 -4.36,0.85 -5.01,3.91l10.09 0zm-10.09 2.49c0.09,1.67 1.22,4.24 5.1,4.24 2.57,0 3.71,-0.9 4.47,-2.15l4.25 0c-0.85,1.68 -2.89,4.98 -8.61,4.98 -6.77,0 -9.29,-3.93 -9.29,-7.92 0,-5.02 3.71,-8.21 9.03,-8.21 6.66,0 9.21,4.11 9.21,8.5l0 0.57 -14.17 0z"/>
  <path class="fil2" d="M182.18 14.27l3.91 0 0 15 -3.91 0 0 -15zm0 -5.55l3.91 0 0 3.16 -3.91 0 0 -3.16z"/>
  <path class="fil2" d="M202.17 19.53c-0.28,-1.55 -1.92,-2.83 -4.16,-2.83 -3.63,0 -5.21,2.47 -5.21,5.07 0,2.61 1.41,5.07 4.79,5.07 3.03,0 3.84,-1.19 4.66,-3.31l4.08 0c-0.91,6.22 -7.28,6.31 -8.33,6.31 -6.72,0 -9.29,-3.93 -9.29,-8.07 0,-4.85 3.48,-8.07 9.29,-8.07 2.27,0 7.42,0.77 8.24,5.83l-4.08 0z"/>
  <path class="fil2" d="M208.78 8.71l3.91 0 0 7.81 0.06 0c1.28,-1.61 3.26,-2.66 5.92,-2.66 3.23,0 6.38,1.17 6.38,5.22l0 10.19 -3.91 0 0 -8.95c0,-1.62 -0.54,-3.45 -3.76,-3.45 -2.04,0 -4.67,1.13 -4.67,4.33l0 8.07 -3.91 0 0 -20.56z"/>
 </g>
</svg>
