<?xml version="1.0" encoding="UTF-8"?>
<!DOCTYPE svg PUBLIC "-//W3C//DTD SVG 1.1//EN" "http://www.w3.org/Graphics/SVG/1.1/DTD/svg11.dtd">
<!-- Creator: CorelDRAW Standard 2020 -->
<svg xmlns="http://www.w3.org/2000/svg" xml:space="preserve" width="3.69144in" height="1.61667in" version="1.1" style="shape-rendering:geometricPrecision; text-rendering:geometricPrecision; image-rendering:optimizeQuality; fill-rule:evenodd; clip-rule:evenodd"
viewBox="0 0 135.55 59.36"
 xmlns:xlink="http://www.w3.org/1999/xlink"
 xmlns:xodm="http://www.corel.com/coreldraw/odm/2003">
 <defs>
  <style type="text/css">
   <![CDATA[
    .fil2 {fill:none}
    .fil0 {fill:#1F3165}
    .fil1 {fill:#203266}
   ]]>
  </style>
 </defs>
 <g id="Layer_x0020_1">
  <metadata id="CorelCorpID_0Corel-Layer"/>
  <g id="_-783725136">
   <g>
    <path class="fil0" d="M21.2 25.25l0 -12.65c7.15,0 5.78,-2.04 5.78,13.74 -3.93,0 -5.78,0.55 -5.78,-1.08zm-10.12 -13.74c0,1.46 1.81,1.43 1.81,2.89l0 28.56c0,1.93 -1.81,-0.03 -1.81,3.25l13.74 0c-0.1,-4.32 -3.61,-0.47 -3.61,-3.25l0 -14.1 10.84 0c0.87,0 2.17,-1.3 2.17,-2.17l0 -13.74c0,-1.54 -2.24,-2.53 -3.98,-2.53l-18.07 0c-0.83,0 -1.08,0.25 -1.08,1.08z"/>
    <path class="fil0" d="M116.26 43.32c-1.11,0.26 -3.61,1.08 -3.61,-0.72l0 -19.16c1.29,0 3.98,0.15 3.98,1.81 0,2.69 0.35,16.49 -0.36,18.07zm-10.84 -20.24l0 20.6c0,3.63 3.56,2.53 10.84,2.53l0 5.78 -5.06 0 0 2.17 11.93 0c0.86,-3.68 0.36,-25.26 0.36,-30.72 1.92,0 2.17,0.15 2.17,-1.45 0,-0.83 -0.25,-1.08 -1.08,-1.08l-16.99 0c-0.87,0 -2.17,1.3 -2.17,2.17z"/>
    <path class="fil0" d="M80.84 21.99c0,2.55 2.17,0.65 2.17,2.89l0 17.71c0,1.65 -1.31,0.44 -1.77,2.21 -0.08,0.31 -0.04,1.06 -0.04,1.41l10.84 0c0,-4.15 -2.17,-1.3 -2.17,-3.61l0 -15.9c0,-1.98 1.31,-2.52 2.89,-2.89 0.41,0.2 0.91,0.54 1.16,1.01 0.46,0.59 0.65,0.93 0.65,1.88l0 16.99c-1.98,0.04 -1.81,-0.02 -1.81,2.53l11.21 0c0,-3.76 -0.4,-1.87 -2.53,-2.89l0 -20.6c-1.46,-0.77 -2.45,-1.81 -4.7,-1.81l-14.82 0c-0.83,0 -1.08,0.25 -1.08,1.08z"/>
    <path class="fil0" d="M45.78 44.41l0.36 1.81 11.21 0c0,-5.14 -2.58,1.89 -2.53,-6.87l0 -28.92 -9.4 0 0 2.17 2.53 0 0 31.45c-1.96,-0.16 -1.22,-0.94 -2.17,0.36z"/>
    <path class="fil0" d="M57.34 12.6l2.53 0 0 31.09 -2.16 0.42 -0.01 2.11 11.21 0 0 -2.17c-1.46,0 -2.17,0.2 -2.17,-1.08l0 -32.53 -9.4 0 0 2.17z"/>
    <path class="fil0" d="M45.78 44.41c-3.24,-2.11 -2.53,-3.45 -2.53,-10.12 0,-4.34 0,-8.68 0,-13.01 -2.16,0 -4.83,-0.15 -6.92,-0.04 -1.15,0.06 -2.03,0.04 -1.76,1.42 0.29,1.5 -0.38,0.25 0.88,0.97 0.43,0.24 0.84,0.31 1.29,0.54 -0.24,10.81 0.1,11.52 0,19.52 -2.12,0.49 -2.17,0.11 -2.17,2.53l9.8 0.04c1.53,-0.16 1.37,-0.29 1.41,-1.84z"/>
    <path class="fil0" d="M69.63 23.44c0.98,0.08 0.98,0.17 1.81,0.36l0 19.88c-1.2,0.57 -2.17,-0 -2.17,1.45 0,0.83 0.25,1.08 1.08,1.08l10.12 0c0,-3.86 -2.17,-1.37 -2.17,-3.61l0 -21.33 -8.68 0 0 2.17z"/>
    <path class="fil1" d="M36.38 12.23l0 6.14 6.87 0c0,-8.71 1.37,-7.23 -5.78,-7.23 -0.83,0 -1.08,0.25 -1.08,1.08z"/>
    <path class="fil1" d="M71.44 18.38l5.42 0c0.83,0 1.08,-0.25 1.08,-1.08l0 -6.15 -6.51 0 0 7.23z"/>
   </g>
   <rect class="fil2" x="-0" y="-0" width="135.55" height="59.36"/>
  </g>
 </g>
</svg>
