<?xml version="1.0" encoding="UTF-8"?>
<!DOCTYPE svg PUBLIC "-//W3C//DTD SVG 1.1//EN" "http://www.w3.org/Graphics/SVG/1.1/DTD/svg11.dtd">
<!-- Creator: CorelDRAW Standard 2020 -->
<svg xmlns="http://www.w3.org/2000/svg" xml:space="preserve" width="3.12052in" height="1.19111in" version="1.1" style="shape-rendering:geometricPrecision; text-rendering:geometricPrecision; image-rendering:optimizeQuality; fill-rule:evenodd; clip-rule:evenodd"
viewBox="0 0 96.29 36.75"
 xmlns:xlink="http://www.w3.org/1999/xlink"
 xmlns:xodm="http://www.corel.com/coreldraw/odm/2003">
 <defs>
  <style type="text/css">
   <![CDATA[
    .fil0 {fill:#1F3165}
    .fil1 {fill:#203266}
   ]]>
  </style>
 </defs>
 <g id="Layer_x0020_1">
  <metadata id="CorelCorpID_0Corel-Layer"/>
  <g id="_810175168">
   <path class="fil0" d="M8.5 12.45l0 -10.63c6.01,0 4.86,-1.71 4.86,11.54 -3.3,0 -4.86,0.46 -4.86,-0.91zm-8.5 -11.54c0,1.23 1.52,1.2 1.52,2.43l0 24c0,1.62 -1.52,-0.03 -1.52,2.73l11.54 0c-0.08,-3.63 -3.04,-0.39 -3.04,-2.73l0 -11.85 9.11 0c0.73,0 1.82,-1.09 1.82,-1.82l0 -11.54c0,-1.29 -1.88,-2.13 -3.34,-2.13l-15.19 0c-0.7,0 -0.91,0.21 -0.91,0.91z"/>
   <path class="fil0" d="M88.39 27.64c-0.93,0.22 -3.04,0.91 -3.04,-0.61l0 -16.1c1.08,0 3.34,0.12 3.34,1.52 0,2.26 0.29,13.85 -0.3,15.19zm-9.11 -17.01l0 17.31c0,3.05 2.99,2.13 9.11,2.13l0 4.86 -4.25 0 0 1.82 10.02 0c0.72,-3.09 0.3,-21.23 0.3,-25.82 1.61,0 1.82,0.13 1.82,-1.21 0,-0.7 -0.21,-0.91 -0.91,-0.91l-14.28 0c-0.73,0 -1.82,1.09 -1.82,1.82z"/>
   <path class="fil0" d="M58.62 9.72c0,2.14 1.82,0.55 1.82,2.43l0 14.88c0,1.39 -1.1,0.37 -1.48,1.86 -0.07,0.26 -0.03,0.89 -0.03,1.18l9.11 0c0,-3.49 -1.82,-1.1 -1.82,-3.04l0 -13.36c0,-1.66 1.1,-2.12 2.43,-2.43 0.34,0.16 0.76,0.45 0.98,0.85 0.39,0.5 0.54,0.78 0.54,1.58l0 14.28c-1.66,0.04 -1.52,-0.02 -1.52,2.13l9.42 0c0,-3.16 -0.34,-1.57 -2.13,-2.43l0 -17.31c-1.23,-0.65 -2.06,-1.52 -3.95,-1.52l-12.45 0c-0.7,0 -0.91,0.21 -0.91,0.91z"/>
   <path class="fil0" d="M29.16 28.55l0.3 1.52 9.42 0c0,-4.32 -2.17,1.58 -2.13,-5.77l0 -24.3 -7.9 0 0 1.82 2.13 0 0 26.43c-1.64,-0.14 -1.02,-0.79 -1.82,0.3z"/>
   <path class="fil0" d="M38.88 1.82l2.13 0 0 26.12 -1.81 0.35 -0.01 1.78 9.42 0 0 -1.82c-1.23,0 -1.82,0.17 -1.82,-0.91l0 -27.34 -7.9 0 0 1.82z"/>
   <path class="fil0" d="M29.16 28.55c-2.73,-1.78 -2.13,-2.9 -2.13,-8.5 0,-3.64 0,-7.29 0,-10.93 -1.82,0 -4.06,-0.13 -5.81,-0.04 -0.96,0.05 -1.7,0.04 -1.48,1.19 0.24,1.26 -0.32,0.21 0.74,0.82 0.36,0.21 0.71,0.26 1.08,0.46 -0.2,9.08 0.08,9.68 0,16.4 -1.78,0.41 -1.82,0.09 -1.82,2.13l8.23 0.03c1.28,-0.14 1.16,-0.24 1.18,-1.55z"/>
   <path class="fil0" d="M49.21 10.93c0.82,0.07 0.83,0.14 1.52,0.3l0 16.71c-1,0.48 -1.82,-0 -1.82,1.21 0,0.7 0.21,0.91 0.91,0.91l8.5 0c0,-3.24 -1.82,-1.15 -1.82,-3.04l0 -17.92 -7.29 0 0 1.82z"/>
   <path class="fil1" d="M21.26 1.52l0 5.16 5.77 0c0,-7.32 1.15,-6.07 -4.86,-6.07 -0.7,0 -0.91,0.21 -0.91,0.91z"/>
   <path class="fil1" d="M50.73 6.68l4.56 0c0.7,0 0.91,-0.21 0.91,-0.91l0 -5.16 -5.47 0 0 6.07z"/>
  </g>
 </g>
</svg>
