<?xml version="1.0" encoding="UTF-8"?>
<!DOCTYPE svg PUBLIC "-//W3C//DTD SVG 1.1//EN" "http://www.w3.org/Graphics/SVG/1.1/DTD/svg11.dtd">
<!-- Creator: CorelDRAW Standard 2020 -->
<svg xmlns="http://www.w3.org/2000/svg" xml:space="preserve" width="4.41496in" height="0.943697in" version="1.1" style="shape-rendering:geometricPrecision; text-rendering:geometricPrecision; image-rendering:optimizeQuality; fill-rule:evenodd; clip-rule:evenodd"
viewBox="0 0 123.91 26.49"
 xmlns:xlink="http://www.w3.org/1999/xlink"
 xmlns:xodm="http://www.corel.com/coreldraw/odm/2003">
 <defs>
  <style type="text/css">
   <![CDATA[
    .fil0 {fill:#5C97D2}
   ]]>
  </style>
 </defs>
 <g id="Layer_x0020_1">
  <metadata id="CorelCorpID_0Corel-Layer"/>
  <path class="fil0" d="M15.02 11.62l-6.66 0c0,-0.99 1.21,-5.4 1.24,-6.51l6.51 0c4.46,0 2.82,4.39 1.83,5.39 -0.62,0.62 -1.71,1.12 -2.91,1.12zm-15.02 14.4l5.27 0c0.05,-0.61 0.32,-1.88 0.46,-2.48 0.19,-0.8 0.37,-1.55 0.56,-2.39l0.99 -5.05 5.89 0c5.54,0 1.07,5.85 2.01,9.91l4.81 0.01c2.46,0.04 0.61,-1.09 0.61,-1.87 0,-2.51 2.77,-9.36 -0.93,-10.22 0.3,-0.41 0.88,-0.43 1.88,-1.21l0.58 -0.5c1,-0.97 1.56,-1.86 2.08,-3.19 0.97,-2.48 0.6,-5.56 -1.19,-6.96 -2.27,-1.78 -4.57,-1.55 -6.85,-1.55 -3.31,-0 -6.45,0.03 -9.76,-0 -1.78,-0.02 -1.21,0.24 -2.24,5.19l-1.47 6.74c-0.31,1.41 -2.7,12.55 -2.7,13.57z"/>
  <path class="fil0" d="M103.62 26.02c0.25,-1.06 2.32,-10.38 2.32,-11.31l9.6 0 -2.08 10.17c-0.41,1.5 -0.77,1.14 4.87,1.14 0.6,0 0.79,-1.78 0.95,-2.77 0.17,-1.06 0.44,-2.07 0.69,-3.19l3.36 -15.85c0.19,-0.92 0.58,-2.15 0.58,-3.29 0,-0.45 -0.15,-0.39 -0.48,-0.43l-4.94 0.12c0,1.62 -1.72,7.8 -1.86,9.45l-9.6 0c0.06,-0.75 0.32,-1.56 0.5,-2.29l1.52 -7.16c-0.37,-0.17 -3.41,-0.09 -4.21,-0.09 -1.61,-0 -1.13,-0.32 -1.64,1.83 -0.36,1.53 -0.65,3.05 -0.97,4.6l-3.97 18.75c0.15,0.55 1.18,0.32 2.43,0.32 0.98,-0 1.96,0 2.94,0z"/>
  <path class="fil0" d="M52.51 8.98c0,1.98 0.06,3.2 1.83,4.52 2.94,2.2 11.18,2.17 11.18,4.62 0,4 -4.09,3.87 -6.82,3.87 -1.75,0 -3.41,-1.25 -3.41,-2.63l0 -1.39c-5.78,0 -5.42,-0.59 -5.42,2.17 0,1.11 0.25,1.9 0.62,2.64 0.53,1.06 0.6,1.22 1.47,1.94 1.61,1.34 3.4,1.69 5.3,1.77l3.46 0c5.34,0 10.38,-4.24 10.38,-9.91 0,-7.1 -13.32,-4.84 -13.32,-8.52 0,-2.09 2.21,-3.56 4.34,-3.56 2.98,0 4.96,0.16 4.96,3.72l5.27 0c0,-1.63 0.42,-0.98 -0.15,-3.41 -0.75,-3.19 -3.77,-4.8 -6.82,-4.8l-0.04 0 -2.9 0c-1.23,0.05 -2.38,0.24 -3.81,0.84 -1.25,0.53 -1.96,0.89 -2.97,1.83 -1.66,1.54 -3.13,4.01 -3.13,6.31z"/>
  <path class="fil0" d="M74.19 17.5c0,3.36 1.18,6.48 4.23,8 1.3,0.65 2.14,0.89 3.06,0.98l3.7 0c4.13,0 8.88,-3.93 10.47,-7.5 0.32,-0.71 0.51,-1.17 0.84,-1.79l-5.58 0c-0.14,0.59 -0.58,1.22 -0.9,1.74 -1.8,2.9 -6.39,3.89 -8.62,1.89 -2.96,-2.66 -0.99,-9.95 0.77,-12.52 3.51,-5.13 9.48,-4.32 10.3,-1.03 0.52,2.1 -1.33,1.71 5.72,1.71 0,-2.89 -0.01,-4.58 -2.28,-6.86 -1.85,-1.85 -4.1,-2.1 -6.49,-2.13l-1.72 0 -0.05 0c-2.1,0 -4.39,1.14 -5.78,1.96 -1.59,0.94 -2.94,2.3 -4,3.74 -1.15,1.56 -1.97,3.3 -2.59,5.15 -0.65,1.95 -1.1,4.06 -1.1,6.64z"/>
  <path class="fil0" d="M25.87 20.14c0,3.96 3.52,6.35 6.66,6.35l2.91 0c2.37,-0.05 4.53,-0.38 6.71,-1.99 2.86,-2.12 3.77,-4.35 4.59,-7.64 0.28,-1.12 0.4,-2.23 0.68,-3.35 0.26,-1.01 0.52,-2.21 0.73,-3.29 0.78,-3.91 1.75,-3.08 -4.63,-3.08 -0.52,0 -0.46,0.38 -0.54,0.85 -0.07,0.43 -0.14,0.92 -0.19,1.2 -0.18,0.91 -0.34,1.55 -0.54,2.41 -1.27,5.38 -0.87,10.41 -7.25,10.41 -2.13,0 -3.41,-1.38 -3.41,-3.56 0,-1.03 1.4,-6.93 1.69,-8.38 0.19,-0.9 0.48,-1.93 0.48,-2.93 -6.56,0 -5.35,-0.36 -5.7,1.27 -0.13,0.62 -0.24,0.97 -0.38,1.63 -0.57,2.68 -1.82,7.72 -1.82,10.11z"/>
  <path class="fil0" d="M43.68 5.11l5.58 0 0.93 -4.49c-0.44,-0.18 -3.61,-0.09 -4.34,-0.09 -1.24,-0.01 -1.21,-0.26 -1.56,1.47 -0.17,0.86 -0.53,2.21 -0.61,3.11z"/>
  <path class="fil0" d="M29.58 0.62c-0.03,1.32 -0.77,3.42 -0.77,4.49 6.44,0 5.43,0.52 5.92,-1.97 0.13,-0.66 0.43,-1.72 0.43,-2.52 -0.57,-0.13 -5.15,-0.17 -5.58,0z"/>
 </g>
</svg>
