<?xml version="1.0" encoding="UTF-8"?>
<!DOCTYPE svg PUBLIC "-//W3C//DTD SVG 1.1//EN" "http://www.w3.org/Graphics/SVG/1.1/DTD/svg11.dtd">
<!-- Creator: CorelDRAW Standard 2020 -->
<svg xmlns="http://www.w3.org/2000/svg" xml:space="preserve" width="4.49618in" height="0.951374in" version="1.1" style="shape-rendering:geometricPrecision; text-rendering:geometricPrecision; image-rendering:optimizeQuality; fill-rule:evenodd; clip-rule:evenodd"
viewBox="0 0 58.13 12.3"
 xmlns:xlink="http://www.w3.org/1999/xlink"
 xmlns:xodm="http://www.corel.com/coreldraw/odm/2003">
 <defs>
  <style type="text/css">
   <![CDATA[
    .fil0 {fill:#007A5E;fill-rule:nonzero}
   ]]>
  </style>
 </defs>
 <g id="Layer_x0020_1">
  <metadata id="CorelCorpID_0Corel-Layer"/>
  <path class="fil0" d="M1.3 4.99c0,1.29 1.04,2.33 2.33,2.33l7.06 0c0,-1.28 -1.04,-2.33 -2.33,-2.33l-7.06 0zm9.39 -3.69l-7.06 0c-1.29,0 -2.33,1.05 -2.33,2.33l9.39 0 0 -2.33zm-9.39 7.38l0 2.33 7.06 0c1.29,0 2.33,-1.04 2.33,-2.33l-9.39 0zm2.33 -8.67l8.36 0 0 8.67c0,2.01 -1.63,3.63 -3.63,3.63l-8.36 0 0 -8.67c0,-2 1.63,-3.63 3.63,-3.63z"/>
  <path class="fil0" d="M15.31 1.93l1.72 0c0.67,0 1.21,0.54 1.21,1.22l0 1.42 -1.78 0 0 -0.56c0,-0.16 -0.13,-0.29 -0.29,-0.29 -0.16,0 -0.29,0.13 -0.29,0.29l0 0.89c0,0.16 0.13,0.29 0.29,0.29l0.29 0 0.57 0c0.67,0 1.21,0.54 1.21,1.22l0 2.61c0,0.67 -0.54,1.21 -1.21,1.21l-1.72 0c-0.67,0 -1.22,-0.54 -1.22,-1.21l0 -1.43 1.78 0 0 0.56c0,0.16 0.13,0.29 0.29,0.29 0.16,0 0.29,-0.13 0.29,-0.29l0 -0.89c0,-0.16 -0.13,-0.29 -0.29,-0.29l-0.29 0 -0.56 0c-0.67,0 -1.22,-0.54 -1.22,-1.21l0 -2.61c0,-0.67 0.54,-1.22 1.22,-1.22zm42.83 4.47l0 2.61c0,0.67 -0.54,1.21 -1.21,1.21l-1.72 0c-0.67,0 -1.22,-0.54 -1.22,-1.21l0 -1.43 1.78 0 0 0.56c0,0.16 0.13,0.29 0.29,0.29 0.16,0 0.29,-0.13 0.29,-0.29l0 -0.89c0,-0.16 -0.13,-0.29 -0.29,-0.29l-0.85 0c-0.67,0 -1.22,-0.54 -1.22,-1.21l0 -2.61c0,-0.67 0.54,-1.22 1.22,-1.22l1.72 0c0.67,0 1.21,0.54 1.21,1.22l0 1.42 -1.78 0 0 -0.56c0,-0.16 -0.13,-0.29 -0.29,-0.29 -0.16,0 -0.29,0.13 -0.29,0.29l0 0.89c0,0.16 0.13,0.29 0.29,0.29l0.86 0c0.67,0 1.21,0.54 1.21,1.22zm-6.44 0.86c0,-0.16 -0.13,-0.29 -0.29,-0.29l-0.29 0 0 1.47 0.29 0c0.16,0 0.29,-0.13 0.29,-0.29l0 -0.89zm0 -3.26c0,-0.16 -0.13,-0.29 -0.29,-0.29l-0.29 0 0 1.47 0.29 0c0.16,0 0.29,-0.13 0.29,-0.29l0 -0.89zm0.57 2.07c0.67,0 1.21,0.54 1.21,1.22l0 1.72c0,0.67 -0.54,1.21 -1.21,1.21l-2.93 0 0 -8.29 2.93 0c0.67,0 1.21,0.54 1.21,1.22l0 1.72c0,0.67 -0.54,1.21 -1.21,1.21zm-5.82 -2.07l0 2.07 0.58 0 0 -2.07c0,-0.16 -0.13,-0.29 -0.29,-0.29 -0.16,0 -0.29,0.13 -0.29,0.29zm2.36 -0.86l0 7.07 -1.78 0 0 -2.36 -0.58 0 0 2.36 -1.78 0 0 -7.07c0,-0.67 0.54,-1.22 1.22,-1.22l1.72 0c0.67,0 1.21,0.54 1.21,1.22zm-5.99 5.29l1.33 0 0 1.78 -3.11 0 0 -8.29 1.78 0 0 6.51zm-6.98 -3.25l0.29 0c0.16,0 0.29,-0.13 0.29,-0.29l0 -0.89c0,-0.16 -0.14,-0.29 -0.29,-0.29l-0.29 0 0 1.48zm2.67 5.03l-1.78 0c-0.19,-0.22 -0.3,-0.51 -0.3,-0.81l0 -2.15c0,-0.16 -0.14,-0.29 -0.29,-0.29l-0.29 0 0 3.25 -1.78 0 0 -8.29 2.93 0c0.67,0 1.22,0.54 1.22,1.22l0 1.72c0,0.67 -0.54,1.21 -1.22,1.21 0.67,0 1.22,0.54 1.22,1.22l0 2.12c0,0.3 0.11,0.59 0.3,0.81zm-6.43 -5.04l1.46 0 0 1.79 -1.46 0 0 1.47 1.46 0 0 1.78 -3.24 0 0 -8.29 3.24 0 0 1.78 -1.46 0 0 1.47zm-2.3 -3.25l0 1.78 -0.96 0 0 6.51 -1.78 0 0 -6.51 -0.95 0 0 -1.78 3.69 0zm-4.59 0l0 6.51 1.33 0 0 1.78 -3.11 0 0 -8.29 1.78 0zm-4.66 4.15l0.58 0 0 -2.07c0,-0.16 -0.13,-0.29 -0.29,-0.29 -0.16,0 -0.29,0.13 -0.29,0.29l0 2.07zm2.36 -2.93l0 7.07 -1.78 0 0 -2.36 -0.58 0 0 2.36 -1.78 0 0 -7.07c0,-0.67 0.54,-1.22 1.22,-1.22l1.72 0c0.67,0 1.21,0.54 1.21,1.22z"/>
 </g>
</svg>
