<?xml version="1.0" encoding="UTF-8"?>
<!DOCTYPE svg PUBLIC "-//W3C//DTD SVG 1.1//EN" "http://www.w3.org/Graphics/SVG/1.1/DTD/svg11.dtd">
<!-- Creator: CorelDRAW Standard 2020 -->
<svg xmlns="http://www.w3.org/2000/svg" xml:space="preserve" width="5.71667in" height="1.15556in" version="1.1" style="shape-rendering:geometricPrecision; text-rendering:geometricPrecision; image-rendering:optimizeQuality; fill-rule:evenodd; clip-rule:evenodd"
viewBox="0 0 230.74 46.64"
 xmlns:xlink="http://www.w3.org/1999/xlink"
 xmlns:xodm="http://www.corel.com/coreldraw/odm/2003">
 <defs>
  <style type="text/css">
   <![CDATA[
    .fil0 {fill:#004070}
    .fil2 {fill:#1D1D1C}
    .fil1 {fill:#C2DFF3}
    .fil3 {fill:white}
   ]]>
  </style>
 </defs>
 <g id="Layer_x0020_1">
  <metadata id="CorelCorpID_0Corel-Layer"/>
  <path class="fil0" d="M21.58 37.72c1.02,0.3 2.35,1.04 3.47,1.43 1.29,0.45 2.49,0.78 3.91,0.88 5.97,0.41 14.67,-4.58 1.38,-13.66 -3.68,-2.52 -8.05,-5.23 -9.83,-9.46 -2.27,-5.42 -0.25,-11.2 3.47,-14.06 -2.43,0.39 -7.11,3.17 -8.93,4.31 -1.37,0.86 -2.68,1.75 -3.74,2.68l-3.34 3.08c-10.6,10.03 -11.89,25.95 3.89,32.19 12.5,4.95 14.5,-3.42 9.72,-7.4z"/>
  <path class="fil1" d="M41.48 44.13c2.42,-0.51 7.04,-3.02 9.01,-4.21 4.78,-2.9 10.33,-7.89 12.95,-12.99 5.51,-10.69 2,-20.55 -8.44,-24.95 -3.03,-1.28 -6.87,-2.74 -10.52,-1.52 -1.54,0.51 -2.79,1.82 -2.72,3.74 0.09,2.36 1.53,3.01 2.26,4.29 -2.78,-0.7 -4.76,-1.73 -8.11,-1.87 -6.87,-0.28 -11.23,5.14 -1.03,11.45 1.02,0.63 2,1.29 2.91,1.91 6.71,4.58 11.77,10.12 8.01,18.73 -0.49,1.11 -1.12,2.11 -1.87,2.94l-2.31 2.31c-0.02,-0.05 -0.1,0.1 -0.14,0.16z"/>
  <path class="fil2" d="M210.53 16.11c0.96,-0.73 1.38,-1.06 1.35,-2.81 -0.06,-3.78 -2.92,-2.87 -8.66,-2.88l-0.06 11.78 5.89 0c4.16,0 4.02,-5.36 1.47,-6.09zm-6.09 -0.54l3.81 0c1.64,0 2.2,-0.37 2.23,-2.01 0.03,-1.71 -0.6,-1.94 -2.23,-1.94l-3.82 0 0 3.95zm0 5.49l4.08 0 1.86 -0.25c0.87,-1.87 0.89,-4.04 -1.86,-4.04l-4.08 0 0 4.28z"/>
  <path class="fil2" d="M223.65 15.31c-0.78,-2.41 -0.76,-3.74 2.27,-3.74 5.78,0 1.12,2.08 4.62,2.14 -0.04,-2.82 -0.99,-3.35 -3.81,-3.35 -1.56,0 -3.36,-0.09 -4.24,1.11 -0.64,0.87 -0.78,2.67 -0.34,3.74 0.93,2.27 4.9,1.17 7.06,2.03 0.72,2.67 0.37,3.88 -2.21,3.88 -3.22,0 -3.66,0.19 -3.75,-2.54l-1.34 0c0.01,3.13 0.84,3.75 4.01,3.75 2.62,0 4.82,0.05 4.82,-3.14 0,-4.85 -3.15,-3.01 -7.09,-3.88z"/>
  <path class="fil2" d="M81.28 15.31c-0.9,-2.31 -0.69,-3.74 2.27,-3.74 5.77,0 1.11,2.08 4.62,2.14 -0.06,-3.37 -1.56,-3.35 -4.62,-3.35 -4.14,0 -4.67,2.67 -3.78,4.86 0.93,2.28 4.9,1.17 7.06,2.03 0.7,2.62 0.38,3.88 -2.21,3.88 -3.19,0 -3.68,0.2 -3.75,-2.54l-1.34 0c0.01,3.13 0.83,3.75 4.01,3.75 2.79,0 4.82,-0 4.82,-3.41 0,-4.46 -3.46,-2.81 -7.09,-3.61z"/>
  <path class="fil2" d="M119.61 11.76c0.76,1.79 2.05,4.97 2.54,6.89l-5.18 -0.04 2.64 -6.86zm-5.22 10.37c1.53,0.15 1.22,0.27 1.69,-0.92 0.76,-1.92 -0.29,-1.48 6.6,-1.48 0.07,0.29 0.43,1.62 0.53,1.8 0.53,0.98 0.17,0.67 1.64,0.67 -1.05,-3.51 -2.99,-8.5 -4.41,-11.78l-1.82 -0.01 -4.24 11.72z"/>
  <path class="fil2" d="M99.47 17.72c4.13,-0.46 7.94,1.22 7.38,-4.42 -0.19,-1.91 -1.07,-2.77 -2.96,-2.86 -1.56,-0.08 -4.24,-0.11 -5.82,0.06l-0.01 11.63 1.33 0.08 0.08 -4.48zm-0.07 -1.27c1.56,0.12 5.29,0.49 5.91,-0.9 0.52,-1.17 0.14,-2.84 -0.23,-3.65 -1.34,-0.28 -4.12,-0.29 -5.68,-0.13l0 4.68z"/>
  <path class="fil2" d="M153.86 11.63l6.18 0 0.01 -1c-1.28,-0.64 -5.54,-0.2 -7.32,-0.2 -0.56,1.72 -0.21,9.49 -0.21,11.79l7.56 -0.01 0 -1.14 -6.22 0 0 -4.35c5.05,0 5.87,0.66 5.95,-1.07l-5.9 0 -0.05 -1 0 -3.01z"/>
  <path class="fil2" d="M184.3 22.2c1.91,-0.05 1.64,-0.84 2.14,-2.48l6.09 0c0.72,2.77 1.02,2.55 2.2,2.33l-4.41 -11.63 -1.83 -0.01 -4.19 11.78zm2.54 -3.59l5.15 0.05 -2.48 -6.92 -2.68 6.87z"/>
  <path class="fil2" d="M134.6 14.64c0,-1.79 0.35,-2.78 2.1,-3.03 1.46,-0.22 3.06,-0.1 4.19,0.29 0.55,2.01 -0.31,2.22 1.67,2.28 -0.03,-3.68 -1.21,-3.8 -4.69,-3.76 -3.01,0.04 -4.54,0.62 -4.54,3.69 0,4.57 -0.81,8.23 3.75,8.23 3.41,0 6.07,0.33 5.56,-4.09l-1.01 -0.06c-0.83,1.23 1,3.9 -6.29,2.68 -1.01,-1.9 -0.74,-3.65 -0.74,-6.22z"/>
  <path class="fil2" d="M169.72 22.19l6.19 0.05c1.41,-0.08 0.97,0.19 1.24,-0.64 -0.28,-0.77 0.12,-0.5 -1.24,-0.57l-4.8 -0.02 -0.09 -10.59 -1.25 0 -0.06 11.76z"/>
  <path class="fil3" d="M116.97 18.62l5.18 0.04c-0.5,-1.92 -1.79,-5.1 -2.54,-6.89l-2.64 6.86z"/>
  <path class="fil2" d="M176.44 32.81c1.31,-0.97 1.18,-2.22 0.56,-3.79 -1.45,-0.62 -3.5,-0.4 -5.39,-0.4l-0.03 6.88c0.11,0.55 0.11,0.4 0.28,0.68 0.64,-0.45 0.39,0.32 0.5,-1.17 0.03,-0.43 -0.03,-1.29 -0.03,-1.77 6.61,0 2.92,0.88 4.34,3.01 0.6,-0.2 0.6,0.4 0.6,-1 0,-1.83 0.08,-1.73 -0.84,-2.44zm-4.11 -0.38l1.94 0c2.09,0 2.64,-0.61 2.08,-2.74l-1.79 -0.4 -2.22 0.07 -0 3.08z"/>
  <path class="fil2" d="M102.68 36.19c1.05,-0.08 0.64,-0.13 0.96,-0.63 0.71,-1.11 -0.65,-0.98 4.33,-0.98 0.21,0.92 0.19,1.51 1.19,1.61 0.03,-1.02 -2.22,-6.99 -2.86,-7.56l-0.8 0c-0.65,0.79 -2.73,6.37 -2.81,7.56zm1.68 -2.34l3.08 0 -1.63 -3.99 -1.45 3.99z"/>
  <path class="fil2" d="M80.34 32.71l4.5 0.12c-0.01,0.63 -0.08,1.59 -0.04,2.19 0.07,1.28 -0.2,0.93 0.63,1.17 0.51,-0.72 0.51,-6.83 0,-7.56 -1.21,0.39 -0.38,0.49 -0.67,3.33l-4.35 0.02c-0.11,-1.06 0.15,-2.63 -0.34,-3.34 -0.6,0.2 -0.6,-0.4 -0.6,1l0 5.62c0,1.17 0,0.77 0.6,0.94 0.33,-0.46 0.27,-0.14 0.27,-0.94l0 -2.54z"/>
  <path class="fil2" d="M135.46 36.19c0.86,-0.25 0.61,-0.21 0.63,-1.44 0.01,-0.6 -0.03,-1.31 -0.04,-2l4.5 -0.03c0,1.03 -0.27,2.73 0.27,3.48 1.03,-0.3 0.6,-1.29 0.6,-3.88 0,-3.12 0.42,-3.34 -0.6,-3.68 -0.48,0.72 -0.23,2.29 -0.34,3.35l-4.35 -0.08c-0.34,-3.06 0.57,-2.87 -0.67,-3.28 -0.45,0.67 -0.51,6.84 0,7.56z"/>
  <path class="fil2" d="M162.7 29.5c0.15,0.18 0.2,0.22 0.39,0.56l0.6 1.57c0.33,0.92 0.56,1.21 0.69,2.22l-3.18 -0.06 1.5 -4.29zm-3.07 6.68c1.13,-0.09 0.97,-0.53 1.19,-1.61 2.91,0 3.48,-0.35 4.16,0.58 0.26,0.35 0.05,0.21 0.29,0.54 0.42,0.58 0.04,0.41 0.86,0.48 0,-0 -2,-8.18 -3.63,-7.56 -0.62,0.55 -2.9,6.43 -2.86,7.56z"/>
  <path class="fil2" d="M184.98 29.36l4.07 0c-0.21,-1.04 0.33,-0.62 -0.84,-0.77l-4.05 0.03c-0.13,1.99 -0.28,5.76 0.1,7.56 3.8,0 4.47,0.51 4.79,-0.74l-4.03 0 0.02 -2.81c1.11,0 3.08,0.32 3.81,-0.34 -0.74,-0.66 -2.71,-0.33 -3.83,-0.33l-0.05 -1 0.01 -1.61z"/>
  <path class="fil2" d="M148.98 31.5c0,-2.63 1.38,-2.51 3.91,-2.11 0.53,0.99 0,1.06 0.77,1.57 0.43,-0.22 0.6,0.33 0.44,-0.96 -0.03,-0.25 -0.22,-0.67 -0.42,-0.9 -0.76,-0.85 -5.57,-1.4 -5.57,1.87 0,3.2 -0.47,5.29 2.61,5.29 2.45,0 3.49,0.14 3.55,-2.68l-0.87 0c-0.06,1.88 -0.57,2.09 -2.68,1.93 -2.07,-0.15 -1.73,-1.67 -1.73,-4z"/>
  <path class="fil2" d="M93.25 29.43c2.35,-0.23 2.94,0.24 4.08,-0.33 -0.5,-0.7 0.5,-0.31 -0.92,-0.49l-4.02 0.02 -0.01 7.56c0.89,0 1.79,-0.01 2.68,0.01 2.46,0.05 1.96,0.05 2.27,-0.73l-4.06 -0.08 0.05 -2.67c0.73,-0.08 1.28,-0.06 2.01,-0.06 2.4,0.02 1.49,-0.08 1.8,-0.34 -0.48,-0.4 0.6,-0.11 -0.73,-0.33 -0.17,-0.03 -0.85,-0.02 -1.07,-0.01 -0.73,0.01 -1.28,0.02 -2.05,-0.06l-0.03 -2.47z"/>
  <path class="fil2" d="M126.9 28.62c-2.92,-0 -2.52,-0.27 -2.88,0.47 0.73,0.49 1.38,0.16 2.47,0.4 0,1.33 -0.37,5.66 0.4,6.69 0.69,-0.49 0.48,-0.14 0.49,-1.45l-0.02 -5.37 2.48 0c-0.18,-1.06 0.59,-0.73 -2.94,-0.74z"/>
  <path class="fil2" d="M115.13 28.62c-0.8,0.29 -0.56,0.22 -0.55,1.52l0.15 6.04c1.09,0 4.11,0.47 4.62,-0.4 -0.48,-0.4 0.6,-0.1 -0.73,-0.33l-3.15 -0.01c-0.17,-1.68 0.39,-5.73 -0.34,-6.82z"/>
  <path class="fil3" d="M161.2 33.8l3.18 0.06c-0.13,-1.01 -0.35,-1.3 -0.69,-2.22l-0.6 -1.57c-0.19,-0.34 -0.24,-0.38 -0.39,-0.56l-1.5 4.29z"/>
 </g>
</svg>
