<?xml version="1.0" encoding="UTF-8"?>
<!DOCTYPE svg PUBLIC "-//W3C//DTD SVG 1.1//EN" "http://www.w3.org/Graphics/SVG/1.1/DTD/svg11.dtd">
<!-- Creator: CorelDRAW Standard 2020 -->
<svg xmlns="http://www.w3.org/2000/svg" xml:space="preserve" width="5.0999in" height="0.825791in" version="1.1" style="shape-rendering:geometricPrecision; text-rendering:geometricPrecision; image-rendering:optimizeQuality; fill-rule:evenodd; clip-rule:evenodd"
viewBox="0 0 140.32 22.72"
 xmlns:xlink="http://www.w3.org/1999/xlink"
 xmlns:xodm="http://www.corel.com/coreldraw/odm/2003">
 <defs>
  <style type="text/css">
   <![CDATA[
    .fil1 {fill:#669CCF}
    .fil0 {fill:#313132}
   ]]>
  </style>
 </defs>
 <g id="Layer_x0020_1">
  <metadata id="CorelCorpID_0Corel-Layer"/>
  <path class="fil0" d="M94.32 4.37c-0,5.25 0.06,10.52 0.05,15.77 -0,0.81 0.18,1.52 -0.37,2.08 -0.12,0.12 -0.37,0.3 -0.41,0.41l4.21 0c-0.15,-0.16 -0.42,-0.28 -0.67,-0.75 -0.19,-0.35 -0.15,-0.83 -0.15,-1.27 -0.01,-1.18 -0.09,-6.17 -0.03,-7.08 0.02,-0.28 0.05,-0.39 0.32,-0.44 0.13,-0.03 1.1,0.02 1.37,0.02 1.2,-0 1.48,0.21 2.08,0.97 0.48,0.61 1.06,1.61 1.51,2.27 1.03,1.49 2.18,3.61 3.26,5.12 0.37,0.52 0.97,1.16 1.85,1.17 0.93,0.01 2.07,0.13 2.97,-0.02 -0.23,-0.18 -0.7,-0.29 -1.41,-0.87 -0.33,-0.27 -1.56,-2.21 -1.88,-2.73 -0.29,-0.47 -0.61,-0.95 -0.92,-1.38 -0.33,-0.45 -0.62,-0.89 -0.92,-1.38 -0.79,-1.25 -1.25,-1.9 -2.18,-2.98 -0.09,-0.1 -0.19,-0.21 -0.3,-0.3 -0.06,-0.06 -0.09,-0.07 -0.15,-0.13 -0.07,-0.06 -0.08,-0.08 -0.14,-0.14 -0.09,-0.08 -0.61,-0.35 -0,-0.54 1.35,-0.43 2.97,-1.75 3.51,-3.05 0.59,-1.44 0.59,-3.05 -0.18,-4.42 -0.3,-0.53 -0.96,-1.12 -1.45,-1.45 -2.12,-1.45 -4.65,-1.23 -7.11,-1.24l-3.82 0c0.26,0.29 0.66,0.27 0.89,0.79 0.12,0.27 0.09,1.2 0.09,1.56zm2.58 7.07c0,0.65 0.57,0.54 1.45,0.54 0.86,0 1.47,-0.04 2.25,-0.28 1.2,-0.37 2.16,-1.31 2.67,-2.42 0.81,-1.8 0.56,-4.45 -1.15,-5.53 -1.09,-0.69 -2.57,-0.78 -4.08,-0.76 -1.3,0.02 -1.17,-0.09 -1.17,1.22l0.04 7.23z"/>
  <path class="fil0" d="M75.03 4.53l0.04 6.04c0.02,2.93 0.06,7.1 -0.06,10.09 -0.02,0.51 -0.02,0.85 -0.27,1.21 -0.19,0.28 -0.65,0.62 -0.73,0.77l12.43 0.01c0.36,-0.97 0.62,-2.04 0.61,-3.15 -0.01,0.01 -0.02,0.01 -0.03,0.02l-0.35 0.46c-0.13,0.16 -0.27,0.3 -0.41,0.43 -0.29,0.26 -0.59,0.48 -1.02,0.65 -0.66,0.25 -2.23,0.27 -3.05,0.3 -1.06,0.03 -2.14,0 -3.18,-0.1 -1.42,-0.14 -1.29,0.04 -1.23,-2.45 0.03,-1.15 -0.01,-5.1 -0.06,-6.36 0,-0.53 0.51,-0.44 0.98,-0.46 1.43,-0.04 2.68,-0.05 4.11,0 0.85,0.03 0.79,0.32 1.24,0.68 0.11,-0.5 0.11,-2.14 0,-2.65 -0.13,0.11 -0.15,0.2 -0.28,0.31 -0.46,0.39 -0.72,0.29 -1.46,0.32l-4.17 0.04c-0.35,-0.01 -0.42,-0.18 -0.42,-0.51l-0.01 -6.44c0,-0.48 0.4,-0.4 0.83,-0.41 1.85,-0.02 3.55,0.03 5.44,0.13 0.48,0.03 1.05,0.23 1.37,0.55 0.18,0.18 0.18,0.24 0.36,0.31 0.06,-0.43 0.03,-0.99 0.03,-1.45 -0,-0.22 0.02,-0.47 -0.07,-0.65 -0.15,-0.27 -0.45,-0.19 -0.93,-0.19l-10.74 0 0.21 0.26c0.87,0.87 0.83,1.01 0.83,2.26z"/>
  <path class="fil0" d="M132.86 22.72l2.4 0c0.14,-0.07 0.83,-0.23 1.09,-0.33 2.4,-0.92 4.19,-3.28 3.94,-6.02 -0.22,-2.48 -1.69,-3.66 -3.68,-4.94 -0.54,-0.35 -1.25,-0.77 -1.83,-1.07 -0.96,-0.5 -2.69,-1.67 -3.21,-2.54 -0.39,-0.65 -0.51,-1.54 -0.33,-2.37 0.18,-0.87 0.5,-1.26 1.1,-1.8 0.24,-0.21 0.56,-0.38 0.91,-0.52 1.57,-0.62 3.59,0.12 4.73,1.32 1.14,1.19 0.92,1.73 1.33,2.29 0.07,-0.44 0.08,-2.42 0.08,-3.11 0,-0.23 0,-0.22 -0.13,-0.35 -0.24,-0.22 -0.79,-0.6 -1.08,-0.75 -0.41,-0.21 -0.82,-0.39 -1.32,-0.51 -2.14,-0.52 -4.52,-0.17 -5.93,0.98 -1.64,1.34 -2.31,2.85 -2,5.15 0.23,1.71 1.29,2.88 2.57,3.82 1.79,1.31 3.44,1.83 5.11,3.15 0.79,0.62 1.18,1.35 1.24,2.4 0.03,0.56 -0.03,1.13 -0.2,1.62 -0.87,2.57 -5.31,3.92 -7.97,0.05 -0.23,-0.33 -0.49,-0.75 -0.67,-1.15 -0.1,-0.21 -0.19,-0.42 -0.28,-0.64 -0.08,-0.21 -0.18,-0.56 -0.29,-0.69l-0.08 3.85c0.3,0.24 0.57,0.48 0.93,0.73 0.76,0.52 1.36,0.8 2.24,1.1l1.31 0.34z"/>
  <path class="fil0" d="M40.91 22.72l2.4 0c0.26,-0.12 1,-0.15 2.06,-0.79 1.88,-1.12 3.24,-3.18 2.99,-5.65 -0.21,-1.96 -1.04,-2.83 -2.07,-3.7 -1.04,-0.88 -2.18,-1.53 -3.52,-2.28 -1.11,-0.63 -2.62,-1.6 -3.18,-2.58 -0.7,-1.25 -0.41,-3.1 0.8,-4.07 2.22,-1.79 5.66,-0.05 6.55,2.08 0.13,0.32 0.26,0.68 0.42,1.01 0.1,-0.48 0.07,-2.34 0.08,-3.08 0.01,-0.24 0.03,-0.22 -0.11,-0.35 -0.6,-0.57 -1.38,-1.03 -2.4,-1.29 -1.92,-0.5 -4.36,-0.26 -5.93,0.97 -1.68,1.32 -2.33,2.99 -2,5.21 0.3,2.02 1.62,3.12 3.19,4.2 1.38,0.94 3.46,1.79 4.56,2.78 0.68,0.61 1.11,1.13 1.17,2.48 0.19,3.82 -4.77,5.27 -7.36,2.51 -1.67,-1.77 -1.72,-3.02 -2.06,-3.5 0,0.37 -0.12,3.72 -0.04,3.88 0.06,0.12 0.58,0.5 0.72,0.6 1.84,1.34 3.33,1.38 3.71,1.57z"/>
  <path class="fil0" d="M53.61 3.34c-0,0.31 -0.05,0.81 0.09,1.04 0.15,-0.15 0.59,-0.9 1.23,-0.96 0.47,-0.05 3.93,-0.19 4.15,-0.12 0.31,0.1 0.22,0.57 0.23,0.88 0.06,4.82 0.01,10.17 0.03,15.13 0,1.49 0.18,2.61 -0.86,3.33l4.41 0.01c-0.25,-0.28 -0.57,-0.34 -0.77,-1.13 -0.14,-0.55 -0.09,-1.62 -0.08,-2.28 0.01,-4.96 -0.02,-10.18 0.03,-15.05 0.01,-1.13 -0.22,-0.92 2.36,-0.85 0.61,0.02 1.36,0.02 2,0.09 0.31,0.03 0.55,0.22 0.72,0.39l0.53 0.6c0.16,-0.76 0.02,-1.55 0.04,-2.38 -4.4,-0.06 -9.06,0.01 -13.5,-0.01l-0.59 0 -0.02 1.32z"/>
  <path class="fil1" d="M-0 16.87l0 1.98c1.96,0.01 3.13,0.14 5.01,-0.57 0.84,-0.31 1.21,-1.18 4.32,-1.33 1.23,-0.06 2.53,-0.01 3.77,-0.01 2.34,-0.01 4.82,-0.23 6.86,0.67 1.13,0.5 0.67,0.65 2.65,1.09 0.57,0.13 3.02,0.31 3.56,0.13l0.02 -1.96c-2,0 -3.92,0.1 -5.6,-0.93l-0.59 -0.36c-1.76,-0.91 -4.6,-0.67 -6.86,-0.68 -1.26,-0 -2.52,0 -3.77,-0 -1.09,-0 -2.24,0.23 -3.12,0.64 -0.89,0.41 -1.13,0.88 -2.64,1.14 -1.2,0.21 -2.35,0.18 -3.62,0.18z"/>
  <path class="fil0" d="M116.48 6.36l-0.05 13.9c-0.01,0.99 0.15,1.55 -0.47,2.14 -0.09,0.09 -0.18,0.13 -0.25,0.23l3.99 0.01c-0.07,-0.12 -0.1,-0.11 -0.22,-0.22 -0.21,-0.2 -0.45,-0.5 -0.49,-0.82 -0.05,-0.43 -0.02,-1.27 -0.02,-1.74 0.01,-3.39 -0.04,-6.59 -0.04,-9.97 0,-1.87 -0.02,-3.89 0.02,-5.72 0.03,-1.26 -0.08,-1.41 0.57,-2.03l0.11 -0.12 -3.86 0c0.23,0.27 0.39,0.25 0.56,0.66 0.14,0.33 0.11,0.75 0.12,1.15 0.03,0.82 0.03,1.7 0.03,2.52z"/>
  <path class="fil1" d="M-0 5.66l0 1.97c1.25,0 2.49,0.01 3.73,0.01 1.45,-0 2.75,-0.04 4.04,-0.62 0.23,-0.1 0.38,-0.24 0.59,-0.36 1.36,-0.84 3.12,-0.95 4.71,-0.95 1.61,0.01 3.34,0.07 4.69,0.92 1.5,0.95 2.81,1 4.64,1 1.26,0 2.53,-0.03 3.79,-0 -0.01,-0.36 0.06,-1.74 -0.04,-1.97 -0.55,-0.04 -1.27,-0.01 -1.84,-0.01 -1.7,0 -3.72,0.1 -5.25,-0.4 -1.2,-0.39 -1.26,-0.85 -2.56,-1.21 -1.91,-0.53 -4.85,-0.48 -6.78,-0 -0.5,0.12 -0.94,0.34 -1.3,0.57 -0.41,0.26 -0.7,0.45 -1.26,0.64 -1.88,0.63 -4.99,0.4 -7.15,0.42z"/>
  <path class="fil1" d="M-0 9.37l0 1.98c2.47,0 5.49,0.33 7.41,-1 0.18,-0.12 0.39,-0.25 0.61,-0.34 1.68,-0.7 3.22,-0.6 5.05,-0.6 1.25,0 2.38,-0.05 3.58,0.15 1.56,0.26 1.67,0.59 2.68,1.1 1.88,0.95 4.52,0.68 6.85,0.68 0.07,-0.3 0.02,-1.59 0.02,-1.99l-3.74 -0.01c-1.1,-0.06 -2.23,-0.22 -3.11,-0.64 -0.44,-0.21 -0.73,-0.47 -1.2,-0.67 -1.63,-0.7 -3.22,-0.63 -5.03,-0.63 -1.22,0 -2.41,-0.03 -3.58,0.18 -1.4,0.25 -1.7,0.62 -2.67,1.11 -1.87,0.95 -4.6,0.57 -6.86,0.67z"/>
  <path class="fil1" d="M-0 13.1l0 2c1.98,-0.11 4.67,0.29 6.56,-0.95 0.19,-0.13 0.33,-0.26 0.56,-0.35 0.79,-0.34 1.3,-0.49 2.25,-0.57 1,-0.09 6.39,-0.11 7.37,-0.01 0.79,0.08 1.55,0.22 2.26,0.55 0.27,0.13 0.37,0.25 0.58,0.37 1.42,0.83 3,0.97 4.68,0.97 0.57,-0 1.35,0.04 1.9,-0.03 0.07,-0.3 0.02,-1.58 0.02,-1.98 -2.23,0 -4.92,0.13 -6.56,-0.95 -0.9,-0.59 -1.69,-0.79 -2.84,-0.9 -1.2,-0.12 -2.46,-0.06 -3.69,-0.07 -1.81,-0.01 -4.26,-0.15 -5.93,0.61 -0.38,0.17 -0.75,0.47 -1.2,0.67 -1.82,0.79 -4.02,0.65 -5.98,0.65z"/>
  <path class="fil1" d="M-0 1.96l0 1.96c1.26,0 2.52,-0 3.77,-0 2.17,0 3.73,0.14 5.53,-1.04 1.78,-1.16 5.08,-1.14 6.96,-0.31 1.02,0.45 1.09,0.84 2.61,1.16 1.32,0.28 3.87,0.19 5.43,0.19 0.6,0 1.29,0.03 1.88,-0.01 0,-0.13 0.06,-1.8 -0.04,-1.9 -0.07,-0.08 -0.1,-0.05 -0.37,-0.05l-3.22 0c-1.72,-0 -4.03,0.06 -5.49,-0.96 -1.43,-1 -3.26,-0.89 -3.59,-1l-0.82 0c-0.5,0.16 -1.94,-0.06 -3.54,1.01 -0.52,0.35 -1.35,0.63 -1.99,0.75 -1.62,0.3 -5.27,0.18 -7.13,0.2z"/>
  <path class="fil1" d="M-0 20.6l0 1.97c1.72,0 3.58,-0.07 4.97,-1.11 0.1,-0.07 0.17,-0.13 0.29,-0.19 1.33,-0.59 2.46,-0.67 4.03,-0.67l7.51 0c1.36,0 2.88,0.06 4.06,0.65 0.54,0.27 0.81,0.65 1.89,0.96 1.17,0.34 2.16,0.36 3.44,0.36l0 -1.97c-1.25,-0.02 -2.23,-0.01 -3.38,-0.35 -1.19,-0.35 -1.26,-0.64 -1.91,-0.91 -1.41,-0.6 -2.35,-0.67 -4.02,-0.67l-7.51 0c-5.18,-0.02 -3.95,1.55 -7.55,1.87 -0.62,0.05 -1.19,0.04 -1.82,0.07z"/>
 </g>
</svg>
