<?xml version="1.0" encoding="UTF-8"?>
<!DOCTYPE svg PUBLIC "-//W3C//DTD SVG 1.1//EN" "http://www.w3.org/Graphics/SVG/1.1/DTD/svg11.dtd">
<!-- Creator: CorelDRAW Standard 2020 -->
<svg xmlns="http://www.w3.org/2000/svg" xml:space="preserve" width="5.5143in" height="0.848091in" version="1.1" style="shape-rendering:geometricPrecision; text-rendering:geometricPrecision; image-rendering:optimizeQuality; fill-rule:evenodd; clip-rule:evenodd"
viewBox="0 0 360.4 55.43"
 xmlns:xlink="http://www.w3.org/1999/xlink"
 xmlns:xodm="http://www.corel.com/coreldraw/odm/2003">
 <defs>
  <style type="text/css">
   <![CDATA[
    .fil0 {fill:#27356A;fill-rule:nonzero}
    .fil1 {fill:#2E4C8A;fill-rule:nonzero}
   ]]>
  </style>
 </defs>
 <g id="Layer_x0020_1">
  <metadata id="CorelCorpID_0Corel-Layer"/>
  <path class="fil0" d="M225.53 7.95l0 -7.9 -20.94 0c-6.44,0 -10.99,3.78 -10.99,10.9l0 3.69 0 40.29 15.27 0 0 -32.39 12.52 0 0 -7.9 -12.52 0 0 -3.69c0,-2.23 0.95,-3 3.26,-3l13.39 0z"/>
  <path class="fil0" d="M287.07 31.62l0 -4.89c0,-2.32 -1.46,-3.87 -3.78,-3.87l-13.48 0c-2.32,0 -3.78,1.55 -3.78,3.87l0 4.89 21.04 0zm12.17 8.02l-33.21 0 0 3.78c0,2.66 2.15,4.12 4.9,4.12l28.15 0 0 2.76c0.01,3.22 -3.05,5.14 -8.05,5.13l-27.81 0c-8.41,0 -12.62,-3.69 -12.62,-12.02l0 -16.82c0,-7.47 4.21,-11.5 12.62,-11.5l24.79 0c8.41,0 11.24,4.03 11.24,11.5l0 13.04z"/>
  <polygon class="fil0" points="244.93,0.04 229.6,0.04 229.6,54.97 244.93,54.97 "/>
  <path class="fil0" d="M175.76 31.48l0 -4.89c0,-2.32 -1.46,-3.87 -3.78,-3.87l-13.49 0c-2.32,0 -3.78,1.55 -3.78,3.87l0 4.89 21.04 0zm12.17 8.16l-33.22 0 0 3.78c0,2.66 2.15,4.12 4.9,4.12l28.15 0 0 2.77c0.01,3.22 -3.05,5.14 -8.06,5.13l-27.81 0c-8.41,0 -12.62,-3.69 -12.62,-12.02l0 -16.82c0,-7.47 4.21,-11.5 12.62,-11.5l24.79 0c8.41,0 11.24,4.03 11.24,11.5l0 13.05z"/>
  <polygon class="fil0" points="133.43,0.03 118.11,0.03 118.11,54.97 133.43,54.97 "/>
  <path class="fil0" d="M99.86 31.74l0 -4.89c0,-2.32 -1.46,-3.87 -3.78,-3.87l-13.49 0c-2.32,0 -3.78,1.55 -3.78,3.87l0 4.89 21.04 0zm12.27 7.9l-33.21 0 0 3.78c0,2.66 2.15,4.12 4.89,4.12l28.15 0 0 2.77c0.01,3.22 -3.05,5.14 -8.06,5.13l-27.81 0c-8.41,0 -12.62,-3.69 -12.62,-12.02l0 -16.82c0,-7.46 4.21,-11.5 12.62,-11.5l24.79 0c8.41,0 11.24,4.03 11.24,11.5l0 13.05z"/>
  <polygon class="fil0" points="321.52,15.58 330.38,24.41 339.1,15.59 352.47,15.59 336.87,31.29 360.4,54.93 338.3,54.93 325.92,42.46 313.49,54.93 300.41,54.93 319.87,35.48 299.81,15.58 "/>
  <path class="fil0" d="M81.12 7.9l0 -7.9 -27.28 0c-6.44,0 -10.99,3.78 -10.99,10.9l0 3.69 0 40.34 13.94 0 0 -40.34 0 -3.49c0,-2.23 1.19,-3.2 3.51,-3.2l20.82 0z"/>
  <path class="fil0" d="M-0 7.9l0 -7.9 27.28 0c6.43,0 10.99,3.78 10.99,10.9l0 3.69 0 40.34 -13.94 0 0 -40.34 0 -3.49c0,-2.23 -1.19,-3.2 -3.51,-3.2l-20.82 0z"/>
  <path class="fil1" d="M225.53 7.95l0 -7.9 -20.94 0c-6.44,0 -10.99,3.78 -10.99,10.9l0 3.69 0 40.29 15.27 0 0 -32.39 12.52 0 0 -7.9 -12.52 0 0 -3.69c0,-2.23 0.95,-3 3.26,-3l13.39 0z"/>
  <path class="fil1" d="M287.07 31.62l0 -4.89c0,-2.32 -1.46,-3.87 -3.78,-3.87l-13.48 0c-2.32,0 -3.78,1.55 -3.78,3.87l0 4.89 21.04 0zm12.17 8.02l-33.21 0 0 3.78c0,2.66 2.15,4.12 4.9,4.12l28.15 0 0 2.76c0.01,3.22 -3.05,5.14 -8.05,5.13l-27.81 0c-8.41,0 -12.62,-3.69 -12.62,-12.02l0 -16.82c0,-7.47 4.21,-11.5 12.62,-11.5l24.79 0c8.41,0 11.24,4.03 11.24,11.5l0 13.04z"/>
  <polygon class="fil1" points="244.93,0.04 229.6,0.04 229.6,54.97 244.93,54.97 "/>
  <path class="fil1" d="M175.76 31.48l0 -4.89c0,-2.32 -1.46,-3.87 -3.78,-3.87l-13.49 0c-2.32,0 -3.78,1.55 -3.78,3.87l0 4.89 21.04 0zm12.17 8.16l-33.22 0 0 3.78c0,2.66 2.15,4.12 4.9,4.12l28.15 0 0 2.77c0.01,3.22 -3.05,5.14 -8.06,5.13l-27.81 0c-8.41,0 -12.62,-3.69 -12.62,-12.02l0 -16.82c0,-7.47 4.21,-11.5 12.62,-11.5l24.79 0c8.41,0 11.24,4.03 11.24,11.5l0 13.05z"/>
  <polygon class="fil1" points="133.43,0.03 118.11,0.03 118.11,54.97 133.43,54.97 "/>
  <path class="fil1" d="M99.86 31.74l0 -4.89c0,-2.32 -1.46,-3.87 -3.78,-3.87l-13.49 0c-2.32,0 -3.78,1.55 -3.78,3.87l0 4.89 21.04 0zm12.27 7.9l-33.21 0 0 3.78c0,2.66 2.15,4.12 4.89,4.12l28.15 0 0 2.77c0.01,3.22 -3.05,5.14 -8.06,5.13l-27.81 0c-8.41,0 -12.62,-3.69 -12.62,-12.02l0 -16.82c0,-7.46 4.21,-11.5 12.62,-11.5l24.79 0c8.41,0 11.24,4.03 11.24,11.5l0 13.05z"/>
  <polygon class="fil1" points="321.52,15.58 330.38,24.41 339.1,15.59 352.47,15.59 336.87,31.29 360.4,54.93 338.3,54.93 325.92,42.46 313.49,54.93 300.41,54.93 319.87,35.48 299.81,15.58 "/>
  <path class="fil1" d="M81.12 7.9l0 -7.9 -27.28 0c-6.44,0 -10.99,3.78 -10.99,10.9l0 3.69 0 40.34 13.94 0 0 -40.34 0 -3.49c0,-2.23 1.19,-3.2 3.51,-3.2l20.82 0z"/>
  <path class="fil1" d="M-0 7.9l0 -7.9 27.28 0c6.43,0 10.99,3.78 10.99,10.9l0 3.69 0 40.34 -13.94 0 0 -40.34 0 -3.49c0,-2.23 -1.19,-3.2 -3.51,-3.2l-20.82 0z"/>
 </g>
</svg>
