<?xml version="1.0" encoding="UTF-8"?>
<!DOCTYPE svg PUBLIC "-//W3C//DTD SVG 1.1//EN" "http://www.w3.org/Graphics/SVG/1.1/DTD/svg11.dtd">
<!-- Creator: CorelDRAW Standard 2020 -->
<svg xmlns="http://www.w3.org/2000/svg" xml:space="preserve" width="5.81348in" height="1.01889in" version="1.1" style="shape-rendering:geometricPrecision; text-rendering:geometricPrecision; image-rendering:optimizeQuality; fill-rule:evenodd; clip-rule:evenodd"
viewBox="0 0 484.85 84.98"
 xmlns:xlink="http://www.w3.org/1999/xlink"
 xmlns:xodm="http://www.corel.com/coreldraw/odm/2003">
 <defs>
  <style type="text/css">
   <![CDATA[
    .fil0 {fill:#038D61}
    .fil1 {fill:#D6221E}
   ]]>
  </style>
 </defs>
 <g id="Layer_x0020_1">
  <metadata id="CorelCorpID_0Corel-Layer"/>
  <g id="_-435975760">
   <path class="fil0" d="M433.12 33.04c-8.55,2.05 -13.44,5.84 -13.47,15.96 -0.08,21.72 -3.72,35.65 22.57,35.72 7.62,0.02 22.41,0.73 28.92,-0.82 8.34,-2 13.07,-7.54 13.36,-15.69 0.25,-6.86 1.28,-22.28 -1.96,-27.08 -4.76,-7.05 -9.34,-8.8 -20.49,-8.91 -7.73,-0.08 -22.21,-0.78 -28.92,0.82zm9.21 12.5c-5.64,0.74 -7.13,1.53 -7.19,7.4 -0.03,2.75 -0.31,12.76 0.43,14.69 2.03,5.35 20.35,4.24 26.35,3.64 5.56,-0.55 6.96,-1.94 7.05,-7.68 0.05,-2.93 0.33,-12.73 -0.64,-14.88 -2.12,-4.68 -19.98,-3.96 -26,-3.17z"/>
   <path class="fil0" d="M344.56 36.6l0.01 46.88 13.1 0.05 0.06 -32.88c1.18,0.88 0.73,0.43 1.27,1.83l11.37 31.3 12.88 0.04c1.8,-2.49 11.36,-31 12.46,-32.67l0.13 32.62 13.57 0c1.1,-6.52 1.56,-45.93 -1.72,-49.74l-18.99 -0.37c-2.63,3.61 -4.68,10.6 -6.22,15.13 -1.27,3.73 -3.87,13.49 -5.68,15.85l-10.64 -30.81c-3.94,-0.33 -7.91,-0.14 -11.83,-0.16 -4.71,-0.02 -8.43,-1.15 -9.77,2.91z"/>
   <path class="fil0" d="M207.68 36.4l0.05 46.94 13.85 0c0.21,-6.46 0.28,-6.76 0.86,-17.87 1.74,-0.49 8.68,-0.58 10.85,-0.22 2.15,0.36 4.57,3.45 5.82,5.09 1.88,2.46 3.92,4.95 6.26,7.92 1.5,2.31 2.57,3.75 4.55,5.49l17.67 0.07c-0.87,-2.31 -1.75,-2.17 -3.4,-4.12 -1.42,-1.67 -1.77,-2.72 -3.65,-4.93 -1.68,-1.98 -6.32,-7.27 -7.21,-9.22 4.08,-1.65 11.04,-1.89 11.7,-13.84 1.23,-22.46 -11.96,-18.01 -33.61,-18.01 -4.41,0 -8.81,0.01 -13.22,-0 -4.65,-0.01 -9.23,-1.19 -10.53,2.71zm14.36 17.35l26.41 -0.2c3.69,-1.08 3.5,-8.06 -0.63,-8.85l-25.4 0.02 -0.38 9.03z"/>
   <path class="fil0" d="M197.66 71.64l-41.39 -0.03 -0.11 -8.32 41.78 -0.18 -0.21 -10.92 -41.26 -0.02 -0.13 -7.5 41.42 -0.24 -0.01 -10.77c-10.33,0.15 -48.63,-1.2 -55.05,0.75 -1.94,1.56 -2.28,40.26 -0.61,47.9 -0.84,1.74 19.25,1.5 26.55,1.5 9.6,0 19.24,0.09 28.84,0.01l0.18 -12.19z"/>
   <path class="fil1" d="M-0 46.96c9.47,0.19 19.07,0.06 28.55,0.05 4.63,-0 9.25,-0 13.88,-0 6.67,0 7.36,0.9 12.24,-2.24 25.96,-16.65 49.06,-27.43 79.93,-35.06 3.64,-0.9 7.94,-2.38 10.92,-2.96l37.22 -5.97c-4,-2.54 -45.78,1.79 -52.86,2.81 -28.41,4.11 -70.48,14.82 -96.08,26.22 -2.25,1 -2.59,1.63 -4.61,2.65 -5.8,2.94 -11.35,4.69 -19.81,9.24 -1.53,0.82 -2.96,1.61 -4.73,2.54 -0.95,0.5 -1.38,0.7 -2.18,1.13l-2.48 1.57z"/>
   <path class="fil0" d="M334.06 33.69l-14.72 -0c-1.31,35.59 5.19,37.74 -15.89,37.56 -3.87,-0.03 -8.91,-0.01 -12.33,-1.32 -4.12,-1.58 -3.4,-4.68 -3.37,-9.66 0.04,-8.69 0.26,-17.9 -0.08,-26.54l-14.75 -0.04c-0.25,6.47 -0.76,35.68 0.73,39.83 4.26,11.92 15.71,11.4 29.79,11.46 33.24,0.14 32.17,-5.59 30.61,-51.28z"/>
   <polygon class="fil0" points="73.95,46.99 96.36,47.05 96.43,83.73 113.27,83.76 113.29,47.22 136.23,46.99 136.39,33.72 74.02,33.69 "/>
  </g>
 </g>
</svg>
