<?xml version="1.0" encoding="UTF-8"?>
<!DOCTYPE svg PUBLIC "-//W3C//DTD SVG 1.1//EN" "http://www.w3.org/Graphics/SVG/1.1/DTD/svg11.dtd">
<!-- Creator: CorelDRAW Standard 2020 -->
<svg xmlns="http://www.w3.org/2000/svg" xml:space="preserve" width="2.63333in" height="1.61667in" version="1.1" style="shape-rendering:geometricPrecision; text-rendering:geometricPrecision; image-rendering:optimizeQuality; fill-rule:evenodd; clip-rule:evenodd"
viewBox="0 0 21.63 13.28"
 xmlns:xlink="http://www.w3.org/1999/xlink"
 xmlns:xodm="http://www.corel.com/coreldraw/odm/2003">
 <defs>
  <style type="text/css">
   <![CDATA[
    .fil1 {fill:none}
    .fil0 {fill:#254763}
   ]]>
  </style>
 </defs>
 <g id="Layer_x0020_1">
  <metadata id="CorelCorpID_0Corel-Layer"/>
  <g id="_-590724264">
   <path class="fil0" d="M5.83 6.32c-0.08,0.21 -0.4,0.66 -0.57,0.82 -0.62,0.59 -1.4,0.36 -1.69,-0.39 -0.13,-0.35 -0.14,-0.85 -0.17,-1.24 -0.16,0.37 -0.2,1.67 0.04,2.17 0.31,0.64 1.12,0.83 1.67,0.58 0.26,-0.12 0.5,-0.36 0.64,-0.58 0.34,-0.51 0.72,-1.61 0.99,-2.11 0.08,-0.15 0.15,-0.29 0.36,-0.24 0.05,0.17 -0.18,0.66 -0.25,0.84 -0.11,0.27 -0.21,0.55 -0.31,0.82 -0.21,0.56 -0.42,1.1 -0.64,1.65 -0.18,0.44 -0.97,2.38 -1.21,2.77 -0.07,0.12 -0.14,0.28 -0.27,0.32 0.03,0.02 -0.03,0.05 0.19,0.06l0.66 0.02c0.32,0 0.51,-0.04 0.63,-0.28 0.51,-1.04 1.16,-2.71 1.64,-3.81 0.18,-0.42 0.36,-0.86 0.53,-1.28 0.14,-0.35 0.52,-1.03 0.22,-1.4 -0.24,-0.3 -1.03,-0.36 -1.43,-0.16 -0.18,0.09 -0.38,0.27 -0.52,0.39 -0.17,0.14 -0.33,0.27 -0.51,0.42 -0.26,0.21 -0.81,0.55 -1.3,0.52 -0.64,-0.04 -0.74,-0.82 -0.59,-1.11 0.41,-0.77 2.02,-0.62 3.01,-0.59 0.67,0.01 3.91,0.1 4.45,0 0.32,-0.06 0.43,-0.13 0.6,-0.3 0.15,-0.15 0.26,-0.32 0.36,-0.55 0.06,-0.15 0.21,-0.56 0.21,-0.71 -0.22,0.49 -1.14,0.44 -1.55,0.42 -1.14,-0.03 -4.92,-0.12 -5.83,0.16 -0.56,0.17 -0.93,0.41 -1.17,0.82 -0.68,1.12 -0.25,4.01 1.57,2.25 0.09,-0.09 0.16,-0.2 0.26,-0.27z"/>
   <path class="fil0" d="M3.92 4.14c0.11,-0.1 0.34,-0.48 0.74,-0.73 0.37,-0.23 0.64,-0.3 1.16,-0.33 1.46,-0.08 2.97,-0 4.43,-0 0.83,0 1.75,0.16 2.38,-0.56 0.13,-0.15 0.43,-0.79 0.41,-1.06 -0.16,0.43 -2.04,0.39 -2.59,0.38 -1.11,-0.03 -3.18,-0.15 -4.28,0.05 -0.43,0.08 -0.78,0.21 -1.08,0.41 -0.39,0.27 -0.76,0.82 -0.96,1.28 -0.06,0.13 -0.19,0.44 -0.21,0.56z"/>
   <path class="fil0" d="M13.41 9.37c0.89,-0.01 2.03,0.15 2.69,-0.45 0.24,-0.22 0.41,-0.43 0.56,-0.75 0.43,-0.92 0.43,-2.08 -0.93,-2.07l-1.18 -0.01 -1.14 3.28zm0.93 -0.61c0.47,-0 1.08,0.06 1.45,-0.42 0.28,-0.37 0.55,-1.01 0.3,-1.39 -0.2,-0.3 -0.58,-0.23 -1.01,-0.23 -0.06,0.07 -0.15,0.4 -0.19,0.49l-0.54 1.55z"/>
   <path class="fil0" d="M6 11.76c0.45,0.09 0.92,0.12 1.31,-0.09 0.31,-0.17 0.44,-0.55 0.6,-0.94 0.59,-1.37 1.19,-3.01 1.75,-4.43 0.18,-0.47 0.05,-0.84 -0.2,-1.13 -0.2,-0.24 -0.73,-0.39 -1.17,-0.39 0.79,0.54 0.45,0.96 0.12,1.72 -0.51,1.2 -0.98,2.42 -1.47,3.64 -0.13,0.33 -0.37,1.04 -0.59,1.31 -0.06,0.07 -0.09,0.11 -0.16,0.16 -0.07,0.06 -0.15,0.09 -0.19,0.14z"/>
   <path class="fil0" d="M10.35 6.69l1 0 -0.92 2.66 0.72 0.01 0.92 -2.66 0.94 0c0.05,-0.06 0.21,-0.54 0.22,-0.61l-2.64 -0.01c-0.06,0.02 -0.22,0.53 -0.24,0.61z"/>
   <path class="fil0" d="M16.51 9.38l0.71 0 1.15 -3.28c-0.87,0 -0.68,-0.1 -0.85,0.38l-0.43 1.24c-0.19,0.54 -0.41,1.11 -0.57,1.65z"/>
   <path class="fil0" d="M12.38 9.37l0.7 0c0.06,-0.09 1.14,-3.21 1.15,-3.28l-0.7 -0 -1.15 3.28z"/>
  </g>
  <rect class="fil1" x="-0" y="-0" width="21.63" height="13.28"/>
 </g>
</svg>
