<?xml version="1.0" encoding="UTF-8"?>
<!DOCTYPE svg PUBLIC "-//W3C//DTD SVG 1.1//EN" "http://www.w3.org/Graphics/SVG/1.1/DTD/svg11.dtd">
<!-- Creator: CorelDRAW Standard 2020 -->
<svg xmlns="http://www.w3.org/2000/svg" xml:space="preserve" width="1.83843in" height="1.26265in" version="1.1" style="shape-rendering:geometricPrecision; text-rendering:geometricPrecision; image-rendering:optimizeQuality; fill-rule:evenodd; clip-rule:evenodd"
viewBox="0 0 10.52 7.22"
 xmlns:xlink="http://www.w3.org/1999/xlink"
 xmlns:xodm="http://www.corel.com/coreldraw/odm/2003">
 <defs>
  <style type="text/css">
   <![CDATA[
    .fil0 {fill:#254763}
   ]]>
  </style>
 </defs>
 <g id="Layer_x0020_1">
  <metadata id="CorelCorpID_0Corel-Layer"/>
  <path class="fil0" d="M1.78 3.39c-0.06,0.15 -0.28,0.46 -0.4,0.57 -0.43,0.41 -0.97,0.25 -1.18,-0.27 -0.09,-0.24 -0.1,-0.59 -0.12,-0.86 -0.11,0.26 -0.14,1.16 0.03,1.51 0.21,0.45 0.78,0.58 1.16,0.4 0.18,-0.08 0.35,-0.25 0.45,-0.41 0.23,-0.35 0.5,-1.12 0.69,-1.47 0.06,-0.11 0.11,-0.2 0.25,-0.16 0.03,0.12 -0.13,0.46 -0.18,0.59 -0.07,0.19 -0.15,0.38 -0.22,0.57 -0.14,0.39 -0.29,0.77 -0.45,1.15 -0.12,0.3 -0.68,1.66 -0.84,1.93 -0.05,0.08 -0.1,0.19 -0.19,0.22 0.02,0.02 -0.02,0.03 0.13,0.04l0.46 0.01c0.22,0 0.35,-0.03 0.44,-0.19 0.36,-0.72 0.81,-1.88 1.14,-2.66 0.13,-0.29 0.25,-0.6 0.37,-0.89 0.1,-0.24 0.36,-0.71 0.15,-0.97 -0.17,-0.21 -0.72,-0.25 -1,-0.11 -0.12,0.06 -0.26,0.19 -0.36,0.27 -0.12,0.1 -0.23,0.19 -0.36,0.29 -0.18,0.14 -0.57,0.38 -0.9,0.36 -0.44,-0.03 -0.52,-0.57 -0.41,-0.78 0.28,-0.54 1.41,-0.43 2.1,-0.41 0.46,0.01 2.73,0.07 3.1,0 0.22,-0.04 0.3,-0.09 0.42,-0.21 0.1,-0.11 0.18,-0.22 0.25,-0.38 0.04,-0.1 0.14,-0.39 0.14,-0.49 -0.15,0.34 -0.79,0.3 -1.08,0.3 -0.79,-0.02 -3.43,-0.08 -4.06,0.11 -0.39,0.12 -0.64,0.28 -0.82,0.57 -0.48,0.78 -0.17,2.79 1.09,1.56 0.06,-0.06 0.11,-0.14 0.18,-0.19z"/>
  <path class="fil0" d="M0.46 1.87c0.08,-0.07 0.24,-0.33 0.52,-0.51 0.26,-0.16 0.44,-0.21 0.81,-0.23 1.02,-0.06 2.07,-0 3.09,-0 0.58,0 1.22,0.11 1.66,-0.39 0.09,-0.1 0.3,-0.55 0.29,-0.74 -0.11,0.3 -1.42,0.27 -1.8,0.26 -0.78,-0.02 -2.21,-0.11 -2.98,0.04 -0.3,0.06 -0.54,0.14 -0.75,0.29 -0.27,0.19 -0.53,0.57 -0.67,0.89 -0.04,0.09 -0.13,0.31 -0.15,0.39z"/>
  <path class="fil0" d="M7.07 5.51c0.62,-0 1.41,0.11 1.88,-0.31 0.17,-0.15 0.29,-0.3 0.39,-0.52 0.3,-0.64 0.3,-1.45 -0.65,-1.44l-0.82 -0.01 -0.79 2.29zm0.65 -0.43c0.33,-0 0.75,0.04 1.01,-0.29 0.19,-0.26 0.38,-0.7 0.21,-0.97 -0.14,-0.21 -0.4,-0.16 -0.71,-0.16 -0.04,0.05 -0.11,0.28 -0.13,0.34l-0.38 1.08z"/>
  <path class="fil0" d="M1.91 7.17c0.31,0.07 0.64,0.08 0.91,-0.06 0.22,-0.12 0.3,-0.38 0.42,-0.65 0.41,-0.96 0.83,-2.1 1.22,-3.09 0.13,-0.33 0.03,-0.58 -0.14,-0.79 -0.14,-0.17 -0.51,-0.27 -0.81,-0.27 0.55,0.38 0.31,0.67 0.09,1.2 -0.36,0.84 -0.68,1.68 -1.02,2.54 -0.09,0.23 -0.26,0.73 -0.41,0.91 -0.04,0.05 -0.07,0.08 -0.11,0.11 -0.05,0.04 -0.1,0.06 -0.13,0.1z"/>
  <path class="fil0" d="M4.94 3.65l0.69 0 -0.64 1.86 0.5 0 0.64 -1.85 0.66 0c0.03,-0.04 0.15,-0.38 0.15,-0.43l-1.84 -0.01c-0.04,0.01 -0.15,0.37 -0.17,0.42z"/>
  <path class="fil0" d="M9.22 5.52l0.5 0 0.8 -2.28c-0.61,0 -0.47,-0.07 -0.59,0.27l-0.3 0.86c-0.13,0.38 -0.29,0.78 -0.4,1.15z"/>
  <path class="fil0" d="M6.35 5.51l0.49 0c0.04,-0.06 0.8,-2.23 0.8,-2.28l-0.49 -0 -0.8 2.28z"/>
 </g>
</svg>
