<?xml version="1.0" encoding="UTF-8"?>
<!DOCTYPE svg PUBLIC "-//W3C//DTD SVG 1.1//EN" "http://www.w3.org/Graphics/SVG/1.1/DTD/svg11.dtd">
<!-- Creator: CorelDRAW Standard 2020 -->
<svg xmlns="http://www.w3.org/2000/svg" xml:space="preserve" width="4.13224in" height="1.21006in" version="1.1" style="shape-rendering:geometricPrecision; text-rendering:geometricPrecision; image-rendering:optimizeQuality; fill-rule:evenodd; clip-rule:evenodd"
viewBox="0 0 79.4 23.25"
 xmlns:xlink="http://www.w3.org/1999/xlink"
 xmlns:xodm="http://www.corel.com/coreldraw/odm/2003">
 <defs>
  <style type="text/css">
   <![CDATA[
    .fil3 {fill:black}
    .fil2 {fill:black;fill-rule:nonzero}
    .fil1 {fill:black;fill-rule:nonzero}
    .fil0 {fill:#D8C793;fill-rule:nonzero}
   ]]>
  </style>
 </defs>
 <g id="Layer_x0020_1">
  <metadata id="CorelCorpID_0Corel-Layer"/>
  <polygon class="fil0" points="-0,10.99 12.12,10.99 12.12,23.11 -0,23.11 "/>
  <polygon class="fil1" points="10.02,0.46 10.42,0.69 10.42,0.24 10.02,0 "/>
  <polygon class="fil1" points="9.06,1.52 9.64,1.87 9.64,2.5 9.06,2.16 "/>
  <polygon class="fil1" points="8.06,3.04 8.83,3.5 8.83,4.32 8.06,3.85 "/>
  <polygon class="fil1" points="7.77,4.56 8.73,5.13 8.73,6.13 7.77,5.55 "/>
  <polygon class="fil1" points="8.06,6.07 9.21,6.76 9.21,7.94 8.06,7.25 "/>
  <polygon class="fil1" points="8.42,7.59 9.76,8.39 9.76,9.75 8.42,8.95 "/>
  <polygon class="fil1" points="9.5,9.11 11.02,10.02 11.02,11.56 9.5,10.65 "/>
  <polygon class="fil1" points="7.82,0.46 8.22,0.69 8.22,0.24 7.82,0 "/>
  <polygon class="fil1" points="6.86,1.52 7.44,1.87 7.44,2.5 6.86,2.16 "/>
  <polygon class="fil1" points="5.85,3.04 6.63,3.5 6.63,4.32 5.85,3.85 "/>
  <polygon class="fil1" points="5.61,4.56 6.57,5.13 6.57,6.13 5.61,5.55 "/>
  <polygon class="fil1" points="5.86,6.07 7.01,6.76 7.01,7.94 5.86,7.25 "/>
  <polygon class="fil1" points="6.22,7.59 7.55,8.39 7.55,9.75 6.22,8.95 "/>
  <polygon class="fil1" points="7.26,9.11 8.78,10.02 8.78,11.56 7.26,10.65 "/>
  <polygon class="fil1" points="5.56,0.46 5.95,0.69 5.95,0.24 5.56,0 "/>
  <polygon class="fil1" points="4.59,1.52 5.17,1.87 5.17,2.5 4.59,2.16 "/>
  <polygon class="fil1" points="3.59,3.04 4.36,3.5 4.36,4.32 3.59,3.85 "/>
  <polygon class="fil1" points="3.34,4.56 4.3,5.13 4.3,6.13 3.34,5.55 "/>
  <polygon class="fil1" points="3.59,6.07 4.74,6.76 4.74,7.94 3.59,7.25 "/>
  <polygon class="fil1" points="3.95,7.59 5.29,8.39 5.29,9.75 3.95,8.95 "/>
  <polygon class="fil1" points="4.99,9.11 6.52,10.02 6.52,11.56 4.99,10.65 "/>
  <polygon class="fil1" points="3.13,0.46 3.53,0.69 3.53,0.24 3.13,0 "/>
  <polygon class="fil1" points="2.17,1.52 2.75,1.87 2.75,2.5 2.17,2.16 "/>
  <polygon class="fil1" points="1.17,3.04 1.94,3.5 1.94,4.32 1.17,3.85 "/>
  <polygon class="fil1" points="0.92,4.56 1.88,5.13 1.88,6.13 0.92,5.55 "/>
  <polygon class="fil1" points="1.17,6.07 2.32,6.76 2.32,7.94 1.17,7.25 "/>
  <polygon class="fil1" points="1.53,7.59 2.87,8.39 2.87,9.75 1.53,8.95 "/>
  <polygon class="fil1" points="2.57,9.11 4.1,10.02 4.1,11.56 2.57,10.65 "/>
  <polygon class="fil1" points="1.64,21.75 2.03,21.98 2.03,21.53 1.64,21.29 "/>
  <polygon class="fil1" points="3,20.46 2.41,20.11 2.41,19.48 3,19.83 "/>
  <polygon class="fil1" points="4,18.95 3.23,18.48 3.23,17.67 4,18.13 "/>
  <polygon class="fil1" points="2.56,12.87 1.03,11.96 1.03,10.42 2.56,11.33 "/>
  <polygon class="fil1" points="3.84,21.75 4.23,21.98 4.23,21.53 3.84,21.29 "/>
  <polygon class="fil1" points="5.2,20.46 4.61,20.11 4.61,19.48 5.2,19.83 "/>
  <polygon class="fil1" points="6.2,18.95 5.43,18.48 5.43,17.67 6.2,18.13 "/>
  <polygon class="fil1" points="4.8,12.87 3.27,11.96 3.27,10.42 4.8,11.33 "/>
  <polygon class="fil1" points="6.1,21.75 6.5,21.98 6.5,21.53 6.1,21.29 "/>
  <polygon class="fil1" points="7.47,20.46 6.88,20.11 6.88,19.48 7.47,19.83 "/>
  <polygon class="fil1" points="8.47,18.95 7.7,18.48 7.7,17.67 8.47,18.13 "/>
  <polygon class="fil1" points="7.07,12.87 5.54,11.96 5.54,10.42 7.07,11.33 "/>
  <polygon class="fil1" points="8.53,21.75 8.92,21.98 8.92,21.53 8.53,21.29 "/>
  <polygon class="fil1" points="9.89,20.46 9.3,20.11 9.3,19.48 9.89,19.83 "/>
  <polygon class="fil1" points="10.89,18.95 10.12,18.48 10.12,17.67 10.89,18.13 "/>
  <polygon class="fil1" points="9.49,12.87 7.96,11.96 7.96,10.42 9.49,11.33 "/>
  <polygon class="fil1" points="4.28,17.43 3.32,16.85 3.32,15.86 4.28,16.43 "/>
  <polygon class="fil1" points="4,15.91 2.85,15.22 2.85,14.04 4,14.73 "/>
  <polygon class="fil1" points="3.64,14.39 2.3,13.59 2.3,12.23 3.64,13.03 "/>
  <polygon class="fil1" points="6.45,17.43 5.49,16.85 5.49,15.86 6.45,16.43 "/>
  <polygon class="fil1" points="6.2,15.91 5.05,15.22 5.05,14.04 6.2,14.73 "/>
  <polygon class="fil1" points="5.84,14.39 4.5,13.59 4.5,12.23 5.84,13.03 "/>
  <polygon class="fil1" points="8.71,17.43 7.75,16.85 7.75,15.86 8.71,16.43 "/>
  <polygon class="fil1" points="8.47,15.91 7.32,15.22 7.32,14.04 8.47,14.73 "/>
  <polygon class="fil1" points="8.11,14.39 6.77,13.59 6.77,12.23 8.11,13.03 "/>
  <polygon class="fil1" points="11.14,17.43 10.17,16.85 10.17,15.86 11.14,16.43 "/>
  <polygon class="fil1" points="10.89,15.91 9.74,15.22 9.74,14.04 10.89,14.73 "/>
  <polygon class="fil1" points="10.53,14.39 9.19,13.59 9.19,12.23 10.53,13.03 "/>
  <path class="fil2" d="M15.57 11.44c0.55,0.11 0.91,0.58 1.2,1.15l5.22 9.9c0.11,0.22 0.33,0.66 0.42,0.66l0.04 0c0.07,0 0.37,-0.57 0.4,-0.66l3.41 -6.86c1.5,-3.01 2.74,-4 3.47,-4.27l0 -0.33c-0.62,0 -1.35,0.07 -2.01,0.07 -0.66,0 -1.5,-0.07 -2.56,-0.07l0 0.37c0.99,0.13 1.3,0.53 1.28,1.21 -0.02,0.58 -0.18,1.48 -0.57,2.3l-1.95 4.02 -2.83 -4.82c-0.38,-0.66 -0.82,-1.63 -0.78,-1.95 0,-0.46 0.55,-0.71 1.02,-0.75l0 -0.37c-0.86,0 -1.86,0.07 -2.76,0.07 -0.89,0 -2.03,-0.07 -3.01,-0.07l0 0.42z"/>
  <path class="fil3" d="M34.6 15.45c0,0.9 -0.3,2.41 -1.49,2.41 -0.78,0 -1.2,-0.74 -1.2,-1.47 0,-1.51 1.12,-2.14 2.45,-2.14l0.25 0 0 1.19zm0.42 2.78l2.31 0 0 -0.21c-0.58,-0.15 -0.74,-0.67 -0.74,-1.29l0 -2.74c0,-2.34 -1.23,-3.09 -3.08,-3.09 -1.22,-0.04 -2.37,0.31 -3.56,0.67l0.57 2.16 0.21 -0.06c0.36,-1.4 1.1,-2.33 2.25,-2.34 1,0 1.6,0.77 1.6,1.88l0 0.6 -0.3 0c-1.96,0 -4.63,0.55 -4.63,2.49 0,1.6 1.49,2.12 2.89,2.12 1.01,0 1.66,-0.52 2.18,-1.34l0.3 1.14z"/>
  <path class="fil2" d="M43.84 13.5l0.64 -2.03c-0.93,-0.29 -1.96,-0.58 -2.94,-0.58 -1.48,0 -3.4,0.51 -3.4,2.33 0,1.56 1.11,1.9 2.34,2.14 1.18,0.22 2.34,0.3 2.34,1.29 0,0.79 -0.82,1.34 -1.55,1.34 -1.59,0 -2.41,-1.19 -2.85,-2.56l-0.04 0 -0.68 2.27c1.04,0.47 2.22,0.73 3.35,0.73 1.57,0 3.77,-0.49 3.77,-2.48 0,-1.57 -1.16,-1.9 -2.34,-2.1 -1.63,-0.26 -2.34,-0.48 -2.34,-1.26 0,-0.82 0.58,-1.26 1.34,-1.26 1.21,0 2.12,0.86 2.18,2.08l0.18 0.08z"/>
  <path class="fil2" d="M52.62 11.78c-0.99,-0.49 -2.04,-0.88 -3.15,-0.88 -2.37,0 -4.07,1.4 -4.07,3.77 0,2.27 1.73,3.77 3.86,3.77 1.55,0 2.75,-0.51 3.38,-1.99l-0.38 -0.37c-0.33,0.99 -1.18,1.78 -2.26,1.78 -1.79,0 -2.35,-1.57 -2.35,-3.19 0,-1.25 0.4,-3.33 2.04,-3.33 1.4,0 2.04,1.33 2.05,2.57l0.22 0.07 0.66 -2.2z"/>
  <path class="fil2" d="M59.24 18.23l2.42 0 0 -0.21c-0.62,-0.21 -0.81,-0.62 -0.81,-1.86 0,-1.68 0.01,-3.38 0.04,-5.05 -0.93,0.19 -1.88,0.3 -2.81,0.38l0 0.21c0.51,0.08 0.77,0.34 0.77,0.88l0 2.23c0,1.37 -0.41,2.78 -1.6,2.78 -1.1,0 -1.33,-1.16 -1.33,-2.05l0 -1.36c0,-1.31 0.07,-2.44 0.11,-3.07 -0.96,0.2 -1.9,0.31 -2.83,0.4l0 0.22c0.42,0.1 0.7,0.21 0.7,0.68 0.01,1.08 0.03,2.15 0.03,3.22 0,1.63 0.85,2.81 2.56,2.81 1.16,0 1.88,-0.51 2.41,-1.55l0.34 1.34z"/>
  <path class="fil2" d="M63.01 15.94c0,1.14 -0.19,1.93 -0.93,2.14l0 0.21c0.64,0 1.3,-0.05 1.93,-0.05 0.63,0 1.29,0.05 1.93,0.05l0 -0.21c-0.74,-0.21 -0.93,-1 -0.93,-2.14l0 -6.17c0,-0.51 0.04,-1.04 0.04,-1.47 -0.97,0.22 -1.9,0.38 -2.83,0.48l0 0.2c0.59,0.12 0.79,0.4 0.79,1.01l0 5.94z"/>
  <path class="fil3" d="M70.84 15.45c0,0.9 -0.3,2.41 -1.49,2.41 -0.78,0 -1.21,-0.74 -1.21,-1.47 0,-1.51 1.12,-2.14 2.45,-2.14l0.25 0 0 1.19zm0.42 2.78l2.31 0 0 -0.21c-0.58,-0.15 -0.74,-0.67 -0.74,-1.29l0 -2.74c0,-2.34 -1.23,-3.09 -3.08,-3.09 -1.22,-0.04 -2.37,0.31 -3.56,0.67l0.57 2.16 0.21 -0.06c0.36,-1.4 1.1,-2.33 2.25,-2.34 1,0 1.6,0.77 1.6,1.88l0 0.6 -0.3 0c-1.96,0 -4.63,0.55 -4.63,2.49 0,1.6 1.49,2.12 2.89,2.12 1.01,0 1.66,-0.52 2.18,-1.34l0.3 1.14z"/>
  <path class="fil2" d="M79.4 10.9l-0.62 0c-1.12,0 -1.85,1.22 -2.14,2.19l-0.03 0 0 -0.82c0,-0.41 0.03,-0.81 0.03,-1.16 -0.99,0.19 -1.88,0.31 -2.78,0.38l0 0.21c0.41,0.08 0.85,0.37 0.85,1.33l0 2.92c0,1.14 -0.19,1.93 -0.93,2.14l0 0.21c0.64,0 1.3,-0.05 1.93,-0.05 0.63,0 1.29,0.05 1.93,0.05l0 -0.21c-0.74,-0.21 -0.93,-1 -0.93,-2.14l0 -1.05c0,-1.01 0.27,-2.08 1.07,-2.08 0.36,0 0.58,0.23 0.79,0.48l0.82 -2.38z"/>
  <path class="fil2" d="M28.42 19.86c-0.45,-0.12 -0.89,-0.23 -1.36,-0.23 -0.67,0 -1.64,0.22 -1.64,1.05 0,0.72 0.5,0.9 1.16,1.02 0.93,0.18 1.16,0.28 1.15,0.69 0,0.52 -0.47,0.68 -0.9,0.68 -0.61,0 -1.12,-0.54 -1.21,-1.12l-0.08 -0.03 -0.29 0.99c0.51,0.25 1.11,0.34 1.67,0.34 0.72,0 1.69,-0.36 1.69,-1.22 0,-0.7 -0.53,-0.87 -1.35,-1.03 -0.81,-0.16 -0.96,-0.28 -0.96,-0.58 0,-0.42 0.35,-0.62 0.74,-0.62 0.55,0 0.95,0.45 1.04,0.96l0.07 0.03 0.27 -0.93z"/>
  <path class="fil3" d="M32.26 21.44c0,-1.13 0.38,-1.64 0.97,-1.64 0.59,0 0.97,0.51 0.97,1.64 0,1.13 -0.38,1.64 -0.97,1.64 -0.59,0 -0.97,-0.51 -0.97,-1.64zm-1.04 0c0,1.19 0.99,1.81 2.01,1.81 1.03,0 2.01,-0.62 2.01,-1.81 0,-1.19 -0.98,-1.81 -2.01,-1.81 -1.03,0 -2.01,0.62 -2.01,1.81z"/>
  <path class="fil2" d="M39.18 20.4c0,-0.35 0.07,-0.54 0.32,-0.6l0 -0.09c-0.29,0 -0.54,0.02 -0.79,0.02 -0.24,0 -0.5,-0.02 -0.79,-0.02l0 0.09c0.25,0.05 0.31,0.24 0.31,0.6l0 1.74c0,0.48 -0.02,0.91 -0.44,0.93l0 0.11c0.32,0 0.62,-0.02 0.91,-0.02 0.97,0 1.68,0.02 2.39,0.02l0.39 -1.2 -0.09 -0.04c-0.38,0.48 -1.01,1.02 -1.69,1.02 -0.4,0 -0.54,-0.2 -0.54,-0.74l0 -1.82z"/>
  <path class="fil2" d="M47.2 21.75c0,0.82 -0.28,1.25 -1.16,1.25 -0.62,0 -0.87,-0.44 -0.87,-1.04l0 -1.57c0,-0.39 0.17,-0.56 0.4,-0.6l0 -0.09c-0.27,0 -0.57,0.02 -0.82,0.02 -0.24,0 -0.52,-0.02 -0.79,-0.02l0 0.09c0.21,0.03 0.27,0.15 0.27,0.6l0 1.82c0,0.78 0.85,1.04 1.6,1.04 1.04,0 1.56,-0.44 1.56,-1.45l0 -0.92c0,-0.38 0.14,-0.96 0.55,-1.08l0 -0.09c-0.19,0 -0.42,0.02 -0.61,0.02 -0.2,0 -0.44,-0.02 -0.72,-0.02l0 0.09c0.51,0.11 0.59,0.69 0.59,1.07l0 0.88z"/>
  <path class="fil3" d="M50.41 20.68c0.21,-0.27 0.7,-0.76 1.08,-0.76 0.22,0 0.29,0.15 0.29,0.35l0 1.86c0,0.48 -0.02,0.91 -0.48,0.93l0 0.11c0.36,0 0.67,-0.02 0.95,-0.02 0.28,0 0.59,0.02 0.91,0.02l0 -0.11c-0.42,-0.02 -0.44,-0.45 -0.44,-0.93l0 -1.86c0,-0.2 0.06,-0.35 0.29,-0.35 0.37,0 0.86,0.48 1.08,0.76l0.12 0 -0.28 -0.95 -3.34 0 -0.28 0.95 0.12 0z"/>
  <path class="fil2" d="M57.15 22.11c0,0.48 -0.02,0.91 -0.41,0.93l0 0.11 1.71 0 0 -0.11c-0.35,-0.02 -0.37,-0.45 -0.37,-0.93l0 -1.84c0,-0.29 0.06,-0.42 0.27,-0.47l0 -0.09c-0.25,0 -0.5,0.02 -0.74,0.02 -0.24,0 -0.5,-0.02 -0.74,-0.02l0 0.09c0.17,0.05 0.27,0.1 0.27,0.46l0 1.85z"/>
  <path class="fil3" d="M62.16 21.44c0,-1.13 0.38,-1.64 0.97,-1.64 0.59,0 0.97,0.51 0.97,1.64 0,1.13 -0.38,1.64 -0.97,1.64 -0.59,0 -0.97,-0.51 -0.97,-1.64zm-1.04 0c0,1.19 0.98,1.81 2.01,1.81 1.03,0 2.01,-0.62 2.01,-1.81 0,-1.19 -0.98,-1.81 -2.01,-1.81 -1.03,0 -2.01,0.62 -2.01,1.81z"/>
  <path class="fil2" d="M67.75 19.8c0.43,0.09 0.45,0.44 0.45,0.85l0 1.35c0,0.38 -0.14,0.96 -0.58,1.08l0 0.09c0.22,0 0.44,-0.02 0.64,-0.02 0.2,0 0.44,0.02 0.66,0.02l0 -0.09c-0.45,-0.11 -0.53,-0.69 -0.53,-1.07l0 -1.65 2.62 2.75c0.05,0.05 0.13,0.14 0.18,0.14l0.01 0c0.04,0 0.1,-0.04 0.1,-0.17l0 -2.2c0,-0.38 0.14,-0.96 0.58,-1.08l0 -0.09c-0.22,0 -0.44,0.02 -0.64,0.02 -0.2,0 -0.44,-0.02 -0.66,-0.02l0 0.09c0.45,0.11 0.53,0.69 0.53,1.07l0 0.89 -2.1 -2.05c-0.21,0 -0.45,0.02 -0.64,0.02 -0.19,0 -0.41,-0.02 -0.62,-0.02l0 0.09z"/>
  <path class="fil2" d="M77.47 19.86c-0.45,-0.12 -0.89,-0.23 -1.36,-0.23 -0.67,0 -1.64,0.22 -1.64,1.05 0,0.72 0.5,0.9 1.16,1.02 0.93,0.18 1.16,0.28 1.15,0.69 0,0.52 -0.47,0.68 -0.91,0.68 -0.61,0 -1.12,-0.54 -1.21,-1.12l-0.08 -0.03 -0.29 0.99c0.51,0.25 1.11,0.34 1.67,0.34 0.72,0 1.69,-0.36 1.69,-1.22 0,-0.7 -0.53,-0.87 -1.35,-1.03 -0.81,-0.16 -0.96,-0.28 -0.96,-0.58 0,-0.42 0.35,-0.62 0.74,-0.62 0.55,0 0.95,0.45 1.04,0.96l0.07 0.03 0.27 -0.93z"/>
 </g>
</svg>
