<?xml version="1.0" encoding="UTF-8"?>
<!DOCTYPE svg PUBLIC "-//W3C//DTD SVG 1.1//EN" "http://www.w3.org/Graphics/SVG/1.1/DTD/svg11.dtd">
<!-- Creator: CorelDRAW Standard 2020 -->
<svg xmlns="http://www.w3.org/2000/svg" xml:space="preserve" width="4.97091in" height="0.781724in" version="1.1" style="shape-rendering:geometricPrecision; text-rendering:geometricPrecision; image-rendering:optimizeQuality; fill-rule:evenodd; clip-rule:evenodd"
viewBox="0 0 90.49 14.23"
 xmlns:xlink="http://www.w3.org/1999/xlink"
 xmlns:xodm="http://www.corel.com/coreldraw/odm/2003">
 <defs>
  <style type="text/css">
   <![CDATA[
    .fil1 {fill:#28694D}
    .fil2 {fill:#2BA342;fill-rule:nonzero}
    .fil0 {fill:#28694D;fill-rule:nonzero}
   ]]>
  </style>
 </defs>
 <g id="Layer_x0020_1">
  <metadata id="CorelCorpID_0Corel-Layer"/>
  <path class="fil0" d="M33.44 14.23l4.27 0 1.55 -9.95 0.04 0 1.55 9.95 4.27 0 3.44 -14.2 -3.81 0 -1.78 9.21 -0.04 0 -1.47 -9.21 -4.36 0 -1.47 9.21 -0.04 0 -1.78 -9.21 -3.81 0 3.44 14.2zm15.91 0l3.83 0 0 -14.2 -3.83 0 0 14.2z"/>
  <path class="fil1" d="M54.83 14.23l3.71 0 0 -4.31 2.32 0c3.18,0 5.17,-2.05 5.17,-5.53 0,-3.87 -2.41,-4.36 -5.09,-4.36l-6.11 0 0 14.2zm3.71 -10.72l1.97 0c1.03,0 1.91,0.42 1.91,1.53 0,1.01 -0.77,1.74 -2.03,1.74l-1.86 0 0 -3.27zm6.26 10.72l3.77 0 0.77 -3.06 4.21 -0 0.8 3.06 3.89 0 -3.81 -14.2 -5.74 0 -3.89 14.2zm7.88 -6.32l-2.53 0 1.34 -5.32 0.04 -0 1.15 5.32 0 0z"/>
  <polygon class="fil0" points="78.83,14.23 82.66,14.23 82.66,8.07 82.7,8.07 86.12,14.23 90.49,14.23 86.08,7.11 90.49,0.03 86.12,0.03 82.7,6.44 82.66,6.44 82.66,0.03 78.83,0.03 "/>
  <path class="fil2" d="M7.05 0l7 14.21 5.89 0 -7 -14.21 -5.89 0zm-7.05 0l7 14.21 5.89 0 -7 -14.21 -5.89 0z"/>
  <polygon class="fil0" points="17.67,7.28 14.09,0 21.26,0 "/>
  <polygon class="fil2" points="28.25,0 21.09,14.21 18.25,8.45 22.41,0 "/>
 </g>
</svg>
